<svg viewBox="0 0 330 200" xmlns="http://www.w3.org/2000/svg"><g><g><g><g><g><line x1="61.91500186920166" y1="176.8779993057251" x2="56.91500186920166" y2="176.8779993057251" style="visibility: inherit;" fill="rgb(0, 0, 0)" stroke="rgb(204, 204, 204)" stroke-width="1px"></line><line x1="61.91500186920166" y1="163.27199935913094" x2="56.91500186920166" y2="163.27199935913094" style="visibility: inherit;" fill="rgb(0, 0, 0)" stroke="rgb(204, 204, 204)" stroke-width="1px"></line><line x1="61.91500186920166" y1="149.66599941253668" x2="56.91500186920166" y2="149.66599941253668" style="visibility: inherit;" fill="rgb(0, 0, 0)" stroke="rgb(204, 204, 204)" stroke-width="1px"></line><line x1="61.91500186920166" y1="136.05999946594244" x2="56.91500186920166" y2="136.05999946594244" style="visibility: inherit;" fill="rgb(0, 0, 0)" stroke="rgb(204, 204, 204)" stroke-width="1px"></line><line x1="61.91500186920166" y1="122.45399951934819" x2="56.91500186920166" y2="122.45399951934819" style="visibility: inherit;" fill="rgb(0, 0, 0)" stroke="rgb(204, 204, 204)" stroke-width="1px"></line><line x1="61.91500186920166" y1="108.84799957275393" x2="56.91500186920166" y2="108.84799957275393" style="visibility: inherit;" fill="rgb(0, 0, 0)" stroke="rgb(204, 204, 204)" stroke-width="1px"></line><line x1="61.91500186920166" y1="95.24199962615968" x2="56.91500186920166" y2="95.24199962615968" style="visibility: inherit;" fill="rgb(0, 0, 0)" stroke="rgb(204, 204, 204)" stroke-width="1px"></line><line x1="61.91500186920166" y1="81.63599967956542" x2="56.91500186920166" y2="81.63599967956542" style="visibility: inherit;" fill="rgb(0, 0, 0)" stroke="rgb(204, 204, 204)" stroke-width="1px"></line><line x1="61.91500186920166" y1="68.02999973297116" x2="56.91500186920166" y2="68.02999973297116" style="visibility: inherit;" fill="rgb(0, 0, 0)" stroke="rgb(204, 204, 204)" stroke-width="1px"></line><line x1="61.91500186920166" y1="54.42399978637702" x2="56.91500186920166" y2="54.42399978637702" style="visibility: inherit;" fill="rgb(0, 0, 0)" stroke="rgb(204, 204, 204)" stroke-width="1px"></line><line x1="61.91500186920166" y1="40.817999839782765" x2="56.91500186920166" y2="40.817999839782765" style="visibility: inherit;" fill="rgb(0, 0, 0)" stroke="rgb(204, 204, 204)" stroke-width="1px"></line><line x1="61.91500186920166" y1="27.211999893188498" x2="56.91500186920166" y2="27.211999893188498" style="visibility: inherit;" fill="rgb(0, 0, 0)" stroke="rgb(204, 204, 204)" stroke-width="1px"></line><line x1="61.91500186920166" y1="13.605999946594249" x2="56.91500186920166" y2="13.605999946594249" style="visibility: inherit;" fill="rgb(0, 0, 0)" stroke="rgb(204, 204, 204)" stroke-width="1px"></line><line x1="61.91500186920166" y1="0" x2="56.91500186920166" y2="0" style="visibility: inherit;" fill="rgb(0, 0, 0)" stroke="rgb(204, 204, 204)" stroke-width="1px"></line></g><g transform="translate(51.91500186920166, 0)"><text style="text-anchor: end; visibility: hidden; font-family: Roboto, sans-serif; font-size: 12px; font-weight: 200;" x="0" y="176.8779993057251" dx="0em" dy="0.3em" fill="rgb(33, 33, 33)" stroke="none" stroke-width="1px">0.084</text><text style="text-anchor: end; visibility: inherit; font-family: Roboto, sans-serif; font-size: 12px; font-weight: 200;" x="0" y="163.27199935913094" dx="0em" dy="0.3em" fill="rgb(33, 33, 33)" stroke="none" stroke-width="1px">0.086</text><text style="text-anchor: end; visibility: hidden; font-family: Roboto, sans-serif; font-size: 12px; font-weight: 200;" x="0" y="149.66599941253668" dx="0em" dy="0.3em" fill="rgb(33, 33, 33)" stroke="none" stroke-width="1px">0.088</text><text style="text-anchor: end; visibility: inherit; font-family: Roboto, sans-serif; font-size: 12px; font-weight: 200;" x="0" y="136.05999946594244" dx="0em" dy="0.3em" fill="rgb(33, 33, 33)" stroke="none" stroke-width="1px">0.09</text><text style="text-anchor: end; visibility: hidden; font-family: Roboto, sans-serif; font-size: 12px; font-weight: 200;" x="0" y="122.45399951934819" dx="0em" dy="0.3em" fill="rgb(33, 33, 33)" stroke="none" stroke-width="1px">0.092</text><text style="text-anchor: end; visibility: inherit; font-family: Roboto, sans-serif; font-size: 12px; font-weight: 200;" x="0" y="108.84799957275393" dx="0em" dy="0.3em" fill="rgb(33, 33, 33)" stroke="none" stroke-width="1px">0.094</text><text style="text-anchor: end; visibility: hidden; font-family: Roboto, sans-serif; font-size: 12px; font-weight: 200;" x="0" y="95.24199962615968" dx="0em" dy="0.3em" fill="rgb(33, 33, 33)" stroke="none" stroke-width="1px">0.096</text><text style="text-anchor: end; visibility: inherit; font-family: Roboto, sans-serif; font-size: 12px; font-weight: 200;" x="0" y="81.63599967956542" dx="0em" dy="0.3em" fill="rgb(33, 33, 33)" stroke="none" stroke-width="1px">0.098</text><text style="text-anchor: end; visibility: hidden; font-family: Roboto, sans-serif; font-size: 12px; font-weight: 200;" x="0" y="68.02999973297116" dx="0em" dy="0.3em" fill="rgb(33, 33, 33)" stroke="none" stroke-width="1px">0.1</text><text style="text-anchor: end; visibility: inherit; font-family: Roboto, sans-serif; font-size: 12px; font-weight: 200;" x="0" y="54.42399978637702" dx="0em" dy="0.3em" fill="rgb(33, 33, 33)" stroke="none" stroke-width="1px">0.102</text><text style="text-anchor: end; visibility: hidden; font-family: Roboto, sans-serif; font-size: 12px; font-weight: 200;" x="0" y="40.817999839782765" dx="0em" dy="0.3em" fill="rgb(33, 33, 33)" stroke="none" stroke-width="1px">0.104</text><text style="text-anchor: end; visibility: inherit; font-family: Roboto, sans-serif; font-size: 12px; font-weight: 200;" x="0" y="27.211999893188498" dx="0em" dy="0.3em" fill="rgb(33, 33, 33)" stroke="none" stroke-width="1px">0.106</text><text style="text-anchor: end; visibility: hidden; font-family: Roboto, sans-serif; font-size: 12px; font-weight: 200;" x="0" y="13.605999946594249" dx="0em" dy="0.3em" fill="rgb(33, 33, 33)" stroke="none" stroke-width="1px">0.108</text><text style="text-anchor: end; visibility: hidden; font-family: Roboto, sans-serif; font-size: 12px; font-weight: 200;" x="0" y="0" dx="0em" dy="0.3em" fill="rgb(33, 33, 33)" stroke="none" stroke-width="1px">0.11</text></g><line x1="61.91500186920166" y1="0" x2="61.91500186920166" y2="176.8779993057251" fill="rgb(0, 0, 0)" stroke="rgb(204, 204, 204)" stroke-width="1px"></line></g></g><g transform="translate(61, 0)" clip-path="url(#clip_0)"><clipPath id="clip_0"><rect width="268" height="176"></rect></clipPath><g><g><g><line x1="0" y1="0" x2="0" y2="176.8779993057251" fill="rgb(0, 0, 0)" stroke="rgb(66, 66, 66)" stroke-width="1px" opacity="0.25"></line><line x1="33.51062476634979" y1="0" x2="33.51062476634979" y2="176.8779993057251" fill="rgb(0, 0, 0)" stroke="rgb(66, 66, 66)" stroke-width="1px" opacity="0.25"></line><line x1="67.02124953269958" y1="0" x2="67.02124953269958" y2="176.8779993057251" fill="rgb(0, 0, 0)" stroke="rgb(66, 66, 66)" stroke-width="1px" opacity="0.25"></line><line x1="100.53187429904938" y1="0" x2="100.53187429904938" y2="176.8779993057251" fill="rgb(0, 0, 0)" stroke="rgb(66, 66, 66)" stroke-width="1px" opacity="0.25"></line><line x1="134.04249906539917" y1="0" x2="134.04249906539917" y2="176.8779993057251" fill="rgb(0, 0, 0)" stroke="rgb(66, 66, 66)" stroke-width="1px" opacity="0.25"></line><line x1="167.55312383174896" y1="0" x2="167.55312383174896" y2="176.8779993057251" fill="rgb(0, 0, 0)" stroke="rgb(66, 66, 66)" stroke-width="1px" opacity="0.25"></line><line x1="201.06374859809875" y1="0" x2="201.06374859809875" y2="176.8779993057251" fill="rgb(0, 0, 0)" stroke="rgb(66, 66, 66)" stroke-width="1px" opacity="0.25"></line><line x1="234.57437336444855" y1="0" x2="234.57437336444855" y2="176.8779993057251" fill="rgb(0, 0, 0)" stroke="rgb(66, 66, 66)" stroke-width="1px" opacity="0.25"></line><line x1="268.08499813079834" y1="0" x2="268.08499813079834" y2="176.8779993057251" fill="rgb(0, 0, 0)" stroke="rgb(66, 66, 66)" stroke-width="1px" opacity="0.25"></line></g><g><line x1="0" y1="176.8779993057251" x2="268.08499813079834" y2="176.8779993057251" fill="rgb(0, 0, 0)" stroke="rgb(66, 66, 66)" stroke-width="1px" opacity="0.25"></line><line x1="0" y1="163.27199935913094" x2="268.08499813079834" y2="163.27199935913094" fill="rgb(0, 0, 0)" stroke="rgb(66, 66, 66)" stroke-width="1px" opacity="0.25"></line><line x1="0" y1="149.66599941253668" x2="268.08499813079834" y2="149.66599941253668" fill="rgb(0, 0, 0)" stroke="rgb(66, 66, 66)" stroke-width="1px" opacity="0.25"></line><line x1="0" y1="136.05999946594244" x2="268.08499813079834" y2="136.05999946594244" fill="rgb(0, 0, 0)" stroke="rgb(66, 66, 66)" stroke-width="1px" opacity="0.25"></line><line x1="0" y1="122.45399951934819" x2="268.08499813079834" y2="122.45399951934819" fill="rgb(0, 0, 0)" stroke="rgb(66, 66, 66)" stroke-width="1px" opacity="0.25"></line><line x1="0" y1="108.84799957275393" x2="268.08499813079834" y2="108.84799957275393" fill="rgb(0, 0, 0)" stroke="rgb(66, 66, 66)" stroke-width="1px" opacity="0.25"></line><line x1="0" y1="95.24199962615968" x2="268.08499813079834" y2="95.24199962615968" fill="rgb(0, 0, 0)" stroke="rgb(66, 66, 66)" stroke-width="1px" opacity="0.25"></line><line x1="0" y1="81.63599967956542" x2="268.08499813079834" y2="81.63599967956542" fill="rgb(0, 0, 0)" stroke="rgb(66, 66, 66)" stroke-width="1px" opacity="0.25"></line><line x1="0" y1="68.02999973297116" x2="268.08499813079834" y2="68.02999973297116" fill="rgb(0, 0, 0)" stroke="rgb(66, 66, 66)" stroke-width="1px" opacity="0.25"></line><line x1="0" y1="54.42399978637702" x2="268.08499813079834" y2="54.42399978637702" fill="rgb(0, 0, 0)" stroke="rgb(66, 66, 66)" stroke-width="1px" opacity="0.25"></line><line x1="0" y1="40.817999839782765" x2="268.08499813079834" y2="40.817999839782765" fill="rgb(0, 0, 0)" stroke="rgb(66, 66, 66)" stroke-width="1px" opacity="0.25"></line><line x1="0" y1="27.211999893188498" x2="268.08499813079834" y2="27.211999893188498" fill="rgb(0, 0, 0)" stroke="rgb(66, 66, 66)" stroke-width="1px" opacity="0.25"></line><line x1="0" y1="13.605999946594249" x2="268.08499813079834" y2="13.605999946594249" fill="rgb(0, 0, 0)" stroke="rgb(66, 66, 66)" stroke-width="1px" opacity="0.25"></line><line x1="0" y1="0" x2="268.08499813079834" y2="0" fill="rgb(0, 0, 0)" stroke="rgb(66, 66, 66)" stroke-width="1px" opacity="0.25"></line></g></g></g><g><g><line x1="0" y1="748.3299970626832" x2="268.08499813079834" y2="748.3299970626832" fill="rgb(0, 0, 0)" stroke="rgb(153, 153, 153)" stroke-width="1.5px"></line></g></g><g><g><line x1="33.51062476634979" y1="0" x2="33.51062476634979" y2="176.8779993057251" fill="rgb(0, 0, 0)" stroke="rgb(153, 153, 153)" stroke-width="1.5px"></line></g></g><g><g><g><g><g><path style="fill: none;" stroke="rgb(255, 112, 67)" stroke-width="2px" d="M35.359606998457906,-138.21009494165304L35.69276962988496,129.07385289724968L35.84423765382886,256.4188522778857L38.44238341321349,184.32149308851857L38.73452903992653,161.88429012164136L38.819109856836796,141.4894409488016L38.84095878418446,123.69396771295338L39.379742609177825,90.68878083572287L39.409701107718945,71.88725026403853L39.516465958224536,56.76901409980529L39.62517442496657,55.82568136599289L39.655937178502086,51.212360427972285L39.811426477417946,54.16743905129216L39.95847109889269,58.70714720275534L40.10618593286276,51.728458702194665L40.346390091187956,48.234613905892736L40.81821968789816,35.76853891419334L40.90990475725889,27.928737348722454L41.27094822849155,20.48349803272991L41.623278937284944,16.893551818565076L41.842237359508275,14.871956430106534L41.84880544196248,13.11290500512034L41.9599266736877,7.769595674484678L42.059520250493286,17.071204660111324L42.30314249254465,21.31263252560766L42.315541423708204,27.452546828550766L42.343824391011005,32.500585379723304L42.48369773878574,33.883725734951746L42.67309978996515,29.525603615074175L43.02871453998566,18.47509059847931L43.11564110062957,12.696920857429854L43.18601341263891,12.737004082257247L43.56756538622856,8.487205509239429L43.74537276123881,1.5559418042792164L43.82975251440048,1.3376378849556643L44.48676182356954,-5.054987997820916L44.8291733874321,-15.572997398446288L45.706012395068406,0.3589395940506232L45.760768755936624,4.972477341230615L45.812643203074934,6.731456038984171L46.01317078167677,5.700209950144405L46.10163883105993,7.937777201047635L46.211553680293555,9.811530245937568L46.259339831210376,5.281482058039061L46.38869084280849,-4.154367082299732L46.67158753708601,5.523723772423162L46.893226809290645,12.568601290293683L46.90777042043924,20.376818985689372L46.94000764146447,27.064061182401012L47.03685334703922,28.92959841804855L47.24683092182517,22.884797526582584L47.42872659305692,8.146263647771482L47.53408399732232,12.632464193639343L47.541925483517645,18.429855744888723L47.66913181513071,12.657655782410817L47.70431797113538,11.770173001654081L47.827905155273676,10.221889340137801L47.900221083519455,9.151666563497383L47.97629020173907,13.457671386291562L48.002428489056825,12.572080915494345L48.30295177196145,13.82743896850352L48.403483646260504,5.984014093585189L48.40924747372031,-0.6193506725848068L48.63691865838289,14.582735131322519L48.872297286741734,8.675498781697405L48.935766410049204,3.812786044756563L49.09775677016974,7.044359446737568L49.29741307252765,17.637725576196235L49.328913059808016,23.80967288823703L49.831572431303265,33.19856679604708L49.95013302172661,37.777587559973426L50.41834347096205,37.636570274694336L50.54079129385829,41.340152563175224L50.57738489610314,35.57785135613198L50.5891806360209,31.789651291664285L50.69199123280406,38.8101453830751L50.76008482232928,32.539562177811874L50.873082649041415,27.381108818418667L50.979177287051684,28.107560773049286L51.06643895394325,24.317329932138556L51.546847270593645,27.881421886419872L51.726933368088005,28.640682572300623L51.996291769959925,25.14795871551797L52.09293641178608,28.868435359129904L52.525893683767315,32.355693848920765L52.76582975709438,37.97007770597406L52.80128399809718,44.191515432480756L52.96722861194015,39.60182959538821L52.98793817804575,36.06112342907283L53.970201611197,34.508055972916324L54.483718425116535,32.4776000926106L54.527818407309056,32.17322082076968L54.96855014423608,39.275025491254816L55.010907573940756,41.00258401972363L55.401373373718265,44.018561057898765L55.465244624522924,41.25040399499645L55.715367927778956,35.99015397540366L55.80651682714343,44.45136465596773L55.98010186343312,37.14370473737054L56.17117944585085,35.8760120939327L56.21943474551439,36.14157105509057L56.2815634438312,31.19010547032446L56.48182293743491,28.626987262502357L56.68201540978909,33.83313124504304L56.88763660335541,26.43409854297063L56.94373338921427,28.780662085031498L57.24023539714694,25.764476961294115L57.333998125243184,20.6478903284232L57.43459702079177,22.329190975305274L57.51106826650858,23.07095593713164L57.679090539087056,16.829599917861135L57.86641493153095,22.835228662641015L57.983299990715985,20.794767546914343L58.00106062184214,21.16433170572074L58.46551788110375,22.4924507487153L58.61913058503271,27.317808443313165L58.671072053420545,27.390769349197264L59.26729308926344,31.466782947699418L59.405758990798,39.62692672007988L59.589933384513856,41.64891732540073L59.7687460782671,53.87060827557499L59.97463535683155,52.21519831755265L60.01719385028482,51.606864101916244L60.06022149248481,57.08228367950496L60.14614273438573,57.598867271122664L60.28420650842309,61.32010676190188L60.88397967049122,56.26146406247429L61.53502408845186,66.03168544876685L61.57134960569858,66.89393921713041L61.85102927999854,58.8217275788491L61.945328178091046,41.73682798670289L62.22098657741904,37.51603729505581L63.26584785763383,39.60325414742547L63.32616698221326,37.67507978238628L63.5334637070179,46.876630095209656L63.65229238243938,50.28169111780118L63.682653008477686,55.78729132784201L64.17733685127854,53.404398795765005L64.4182782433486,47.95943654369352L64.50306012400746,48.79786698952773L64.63127177436351,36.58073205796979L64.63133879561305,29.27153659966955L64.9505610071373,31.404054433778086L64.98373652565598,30.050533517042474L65.24290769759894,20.14864411419019L65.3125427758634,18.87008234930003L65.40771295019985,21.106939797093272L65.45462782487273,20.30019845688589L65.69141389947175,21.40902130405131L65.7191606967783,22.399315565398194L65.83470533097267,22.731808894621505L66.20218284216045,16.12206685459373L66.2377041044128,19.69805916806506L66.43977317175388,18.832604516516003L68.40570748429656,21.378676929351975L68.71983608085633,30.018013701599926L68.97914129529833,31.530427359301378L69.2858975544095,40.87199470960256L69.43703047210575,42.71390313925735L69.55096659631133,55.52294054005033L69.59345806851506,59.970765456193504L69.66148463679075,55.47199187725125L69.67555909919261,53.379503559680394L69.82488244315148,53.658670073964934L70.04457809911966,52.10403199274094L70.72243101689338,47.242493238302146L71.2750212192905,45.818484254113876L71.55470089359045,41.43341315497L71.5963881107998,35.766058404130185L72.14596235696793,40.48682749556426L72.25989848117351,36.08584713423455L73.12775664137244,25.819910632724607L73.75252872951627,28.38039944081326L73.95848502933025,26.496016287171713L74.0629041361022,22.169858499323674L74.56395499760866,22.381475216367L74.92506549009086,31.462504463589752L75.55653970318794,32.316348129449686L75.63549073513747,31.71785393592968L75.65157583502531,33.297548928630775L76.47519997053266,29.833082994864483L76.56306482867004,30.026082284683422L76.7876530358541,37.94033399368755L76.98650508321762,40.164727573434185L77.01143698804378,33.2327120994866L77.40377938280821,34.173497457503764L77.54050273185491,29.929866292075978L77.65437183481097,26.008629108178667L77.69646117951751,26.302015754858207L77.9498015027511,25.1709697232514L78.00134084364176,30.088535345255988L78.21131841842771,33.545187557243935L78.2434886182034,38.40487763603842L79.145527615664,37.24137719327316L79.4316413299191,40.206700192162245L79.43673494488358,40.66912475139729L79.6319008235228,37.906171942577004L79.69657632932187,31.91391066052707L79.8292784033966,38.74969297677306L80.02424321828722,42.826609922993484L80.40130476815818,45.07966556376237L80.58728873561145,45.85217481829355L80.61858765914322,46.35799329391996L80.81630034526468,46.87667813288566L80.92085349453569,47.70742360718485L81.05221514361978,48.219312898418735L81.45628625705241,46.77365340936515L81.5857713111496,54.021276203839385L81.60581066475987,54.842367271508046L81.70600743281126,53.583931907981835L81.90955096764206,49.87383914855436L81.97134455971123,40.56408928025173L82.01437220191121,36.72724108785387L82.07509345398783,31.78954596571433L82.20410935933828,31.976737745852823L82.47226137871861,28.82661900279841L82.6212496164298,27.789719826384985L82.73793361186623,29.641010917551203L82.80642932888865,34.49119773716242L83.15252706147551,44.64857886765059L83.18597066499233,48.85865312290285L83.30211849043249,44.54366919138219L83.3832812236166,44.46979384227661L83.41679184838294,45.55084640561484L83.71818640753149,41.88591165133558L83.73655022990346,38.17990518996401L83.77897468085766,37.884732542315554L83.93131398104548,31.678676086756536L84.06012882264734,31.604922098715754L84.12406709470153,33.1591533991772L84.40321059900522,36.63342763381187L84.54127437304258,38.69366275078372L85.01270184225558,30.524332419715325L85.62621436047793,29.502162220006145L85.78230685063959,31.606740582914913L86.20219497896194,33.653908773299484L86.20226200021148,34.89084663298248L86.5911192900002,34.566589879687704L87.27540624772907,31.090564242442746L87.32493495113374,30.159380019829175L87.58249761308788,28.071403003711602L88.0096240363598,35.87390668860276L88.08374953834294,42.542453765571565L88.23528458353638,36.197048497572354L88.30545583179712,38.121837860674674L88.52180042528867,32.47037269731155L88.85603539670825,27.962083712789475L89.11701614238858,24.796980094290106L89.66786379229784,24.264420560458326L89.94352219162583,22.564271137082166L90.30523587535382,33.81288139978084L91.10386108478546,28.542622862117867L91.13341745582939,25.038132472008897L91.34882375182748,33.71533961372042L91.49627050079943,39.852365732037775L91.53293112429381,44.251224855839894L91.54821196918726,44.29179292597113L91.76348422268629,38.06900679307347L91.7921693174863,36.998920431935716L91.79277250873209,36.48419259985297L91.82152462478162,37.031670520598055L91.94899904139281,32.62851010712641L92.01655646092176,31.115499123777415L92.42364353058338,32.50029468832233L93.10411027708888,27.26392059210017L93.1609442966926,19.068124652019705L93.50188139306546,13.7479140258545L93.65589622449158,9.19534709431995L93.76661532871961,8.008664523706212L94.1133832738018,11.307583515956983L94.16210772221208,9.564756088260644L94.21398216935037,6.283814093717957L94.32691297481298,7.625875241791486L94.58688840175033,9.25999512528576L94.99658930014373,7.5254047309058265L95.06662650590539,2.9376232481353095L95.8288591768408,7.686932189954084L96.54008867688178,7.124559160082262L96.85776939966678,11.71708758664035L97.01225337983965,14.589284504258844L97.2125798946929,14.150629231609635L97.30017666783213,13.195993843370504L97.40841598582745,17.23075944040033L97.4167266207695,21.76181109816522L97.6106190956676,21.691884633924907L97.81570411923767,24.909483584700926L98.0791646511507,26.827716047103305L98.26159649237871,24.9275227591876L98.45575705227495,21.163640624804778L98.54737510038615,19.53076000674287L99.11310146769166,13.592046279012468L99.32066627749442,15.194218285766382L99.7044969735682,18.98343179172897L99.73800759833455,22.866756770663507L99.73807461958408,25.260575946482955L99.8641415899551,30.2874646412548L99.92352241704106,31.53168592211411L100.15910210914849,36.60520671504658L100.77556356235027,27.881318816069303L101.07293684652686,21.478160007862677L101.17635063455582,17.443271568574467L101.39906224675298,23.470771471689343L101.6581663974464,28.243385358438406L101.72284190324545,31.909196166067176L101.88764715584637,31.54237447823973L102.16658959640145,31.88112833043419L102.44211395323039,35.9889490452852L102.80114678697706,39.69196859703029L102.83291485925555,46.96035161068263L102.9016786612761,50.5786041099876L103.2716359586966,47.69317145936239L103.8580048708582,46.33628087784701L103.92797505537034,47.6861474041423L103.98842822244883,50.372656601861074L104.06925584938527,54.34082626734679L104.11590263906002,57.16983550415886L104.21951749083756,59.079677465137664L104.25477066809177,61.48167024393995L104.7203002673459,59.82376363192091L105.00138738788606,56.66349820051706L105.22530538257479,53.308120925175096L105.33857129428506,52.17756605575764L105.90852000031113,49.862511696401576L105.94095828508497,53.40187018724146L105.98599656477094,50.33277526012783L106.12339012631297,60.791058510460154L106.13920714120269,66.58130524030645L106.38993363570452,67.38096026793912L106.45145914277553,69.96865456332377L106.84916323750257,70.75345479966477L106.91169406331659,64.79299367921965L106.94574085807919,64.85386449378724L107.01115359762312,62.32963402855952L107.05525357981561,61.047806688155234L107.60429165598751,61.62585075473249L107.826668161937,66.31225569591672L108.43039557772755,71.93968205447429L108.49634448726773,75.02422533294138L108.77200288659573,74.80157752850549L108.93794750043868,76.58532991266559L109.03707192849755,77.97610122732429L109.55139299741148,81.50253366249741L109.75332802225353,79.83107226830607L109.83328437294603,75.9294256830376L109.98629388562917,76.8832094021601L110.20330869161606,82.70116697559506L110.2636278161955,83.25738724338348L110.62165533119918,89.86681317748852L110.71541805929542,90.12371164703934L110.88819884059072,84.22771098856633L111.08731897295237,85.86337735057276L111.28308804283738,92.63734940792305L112.02688987015128,93.83207710407086L112.09236963094473,92.52531389645245L112.28492168085216,88.6253461156331L112.53933434407831,93.8976163920365L112.67619173562407,95.87587204962611L112.83543422451378,95.58061612218088L113.67085409993888,97.47008492212288L114.33717936279297,99.82025766705404L114.42437400843501,95.51276424823756L114.6208803120649,84.87230938533743L114.68703028535366,82.20121340383481L115.10966628490687,85.97225647516933L115.39015021420121,83.59479488365228L115.90427021936655,89.7391480296024L116.11511907039643,92.35410962194902L116.50035721271037,91.2647320848751L116.83968579909444,94.30443374394414L117.03016019026637,101.94641342357099L117.53905253796816,95.15909591514442L117.60191847002983,89.44544247993855L117.6936705606401,86.22780130736136L117.71029183052421,83.21177963509986L117.78636094874382,75.78748302867946L118.32668626247644,85.28076098928379L119.17564443030714,78.12154681348817L119.24527950857161,74.65313761943472L119.35023478533984,71.8883744704125L119.51028152922392,75.28867834042555L120.5914013054359,82.95100528879829L120.6580204274714,86.43610075031776L121.11845641176104,91.34866158086994L121.32756271030306,92.01734204909893L121.38935630237222,95.4569506969334L121.71293489511609,88.41070506202203L121.77131040345907,89.57693286115213L122.04824220652819,95.83038766253253L122.1948176792562,92.63363243669538L122.45914948741317,87.84357191862914L122.68708875707388,89.54216971459692L123.18385025861025,92.77039952498804L123.34510338498592,94.7686272847014L123.84809786272884,96.4261735793276L124.10284563220262,103.49196714598094L124.32032958693623,104.58295227634048L124.38614445397734,107.51508154086893L124.98531442479968,108.55349854664742L125.04422610313893,111.37809803606407L125.14522712618471,102.24139824998196L125.24971325420618,103.49278971169001L125.47570890763043,104.76575429817407L126.0898916383481,105.54475921446488L126.16642990531444,108.87946585820022L126.22748626363872,108.67024553467873L127.06391145780682,101.94229567989973L127.16457737460495,95.64159178353276L127.28702519750118,96.71282149456871L127.31725178104044,101.54109202067808L127.34727730083108,102.01178227247917L127.48018043865441,105.65893546181388L127.67869737977028,108.96998973515674L127.86246964598895,103.02336488162854L127.94778769664407,96.63453520050594L127.96152705279827,91.23758532363297L128.12653336914778,92.85049975980984L128.33550562519073,90.62892452892422L128.3686141224599,91.54381540513886L128.49990875029445,91.68440082675474L128.53435767255425,93.52890479422045L128.90699581995608,98.24952006179696L129.06523299010277,104.73914903285957L129.5042891957915,110.79307513193176L129.6635987059307,113.13116626829995L129.82029438733815,112.67014379211935L129.95192412142038,111.6849966615356L129.98241878995776,109.35494254192281L130.66201426021934,109.34583632636685L130.68513659130812,109.057745790453L130.72521529852867,106.94200450708367L130.81971526036978,111.58562344862216L131.16601405670525,106.65802934780747L131.1956374489987,108.22867179516301L131.22693637253045,105.48748112630638L131.22700339378,103.84059735136938L131.2581682748127,104.7373283724439L131.46365542587995,102.80005085772929L132.33553486105086,102.16877539612932L132.63022729524613,100.54989883858893L132.9714324766171,104.10064235838941L133.45519185574412,98.40064314284828L133.58306839985252,95.2970680446785L133.78848852967025,104.87027931348584L133.88486508649828,104.3487914828974L134.01977886180757,111.28330974490476L134.6822168921888,114.6951610372706L134.98160081385137,108.66731577598901L135.01149229114293,105.08517667554851L135.71012179627178,105.64811710698314L136.2389194550848,103.24336734150286L136.5410512479782,103.34561836475994L136.66946396208286,103.42497275233283L136.96864681999685,107.09805474828279L137.0001468072772,106.20304496079054L137.19330204843044,106.12981872965281L137.24175841184257,110.55025116182802L137.310254128865,116.84209105034863L138.05150914869665,108.73547482693743L138.10090380960227,97.98818410193705L138.1348165618658,96.87142042398348L138.37924305891156,96.09563059624173L138.41060900369285,94.84046415179874L138.47454727574706,95.63343834463045L138.47461429699658,96.09430081372663L139.16975869714975,90.60748191264834L139.4611000688684,93.92243082319108L139.52001174720763,100.22468261852123L139.6220180889964,97.36353330932803L139.6940659322441,96.36498749109195L139.80887333269357,92.09848320423312L139.96483178035618,91.46433562467332L140.1772221201253,101.32010747770413L140.48947412169815,102.79047038997777L140.87839843273642,100.01058271658336L140.99327285443545,103.21246813118022L141.08871111377002,99.03918008840255L141.16665682697655,98.19715020312343L141.73198106678487,103.08383945100903L141.93257566663624,111.34304391146183L142.47765948908568,110.07222099559381L142.47826268033145,109.3008470063828L142.52021798253892,110.29093525368535L142.5539296710539,110.47592948975948L142.617733900609,111.23467666579671L142.7644434158361,110.8285214469443L143.2748102310276,113.07664790214272L143.4459154810846,112.67644094859865L144.05996416930319,113.27878389941561L144.3108247063041,110.59858592887387L144.31960448999286,111.07995916133844L144.70035220858813,112.08009435491071L144.87815958359838,111.99307199365046L145.24168284106372,113.64633091137983L145.39114022752165,119.33054003588558L145.4486444596207,124.40467096160341L145.5359731477618,125.16569117092789L145.58664121240852,128.03839755142707L146.64008121256353,128.9935562542019L146.7417524481046,124.50102214461123L146.77157690414666,122.34494582826011L146.96419597530365,122.79413831300164L147.09368102940084,125.47688935145342L147.1521905802429,128.16429290022003L147.75692331477643,120.53830539719667L148.30321351971745,124.27690826620486L149.17167487116217,124.14993806918417L150.09382024348258,127.96015838472887L150.29159995085357,132.75771562125146L150.64480193589094,128.1296495411603L151.06086985298992,124.65625848945606L151.67049513873937,125.22658427050686L152.00251840892435,127.76538204224556L152.22147683114767,129.17605602209323L152.5035692704308,128.74516566003342L152.80235000084758,127.61683426710874L152.8634733804214,127.3045537687695L152.92982441745875,129.27958465790292L152.9571690872681,128.82792230271716L153.2623168363905,134.77090302464245L153.48154334361195,141.74129020205865L153.64487412872313,138.0273269132434L154.83302684043883,138.211961467843L155.69967861814618,135.7556838709638L155.9851891411555,138.46586859977648L155.98579233240127,140.23797625443743L156.0213135946536,143.88476208698359L157.87579156922342,134.25580942279962L158.0319510806346,129.62682717711002L158.10131807390096,130.51478717362946L158.32965947105885,133.56334724050265L158.7108093171513,132.98062640036878L158.8601996823597,136.23647258313176L158.9837198452485,136.37330221697746L159.12922297798394,138.00500182323452L159.31138673421384,140.1916125377447L159.34235055149793,146.25464912237692L160.0872917400539,147.34475463544544L160.2053831817305,142.42032435813877L160.81112123500702,142.67520378062784L160.86949674335003,139.84098505338162L160.9003935393846,138.4625956627839L161.57114220470785,138.16932931227313L161.67154003650785,137.38851975155703L161.71041236123682,134.94691774422387L162.16320792307974,127.50291954070191L162.3215791357255,127.98202341978788L162.3494599755311,126.93311104645505L162.4123259075928,130.81287765860188L162.9840171661067,135.87570952884997L163.9196338095832,131.09922348848974L164.05783162611962,133.56443575832435L164.2857708957803,132.1622091840146L164.37504320015788,129.01817437399365L164.4375740259719,133.90498397830567L164.56866759005786,136.3257666250285L164.73474624639988,134.12073310830738L164.95631849735497,131.35224110622707L165.5918810066736,131.3809460356277L165.66788310364367,130.1386549972L165.85433621984362,125.75980257539989L166.07262442957162,127.11661674170942L166.1037222893548,127.17584431878353L166.17335736761927,123.52101276361151L166.50638595654726,128.4803156456964L166.8059039207089,125.26931011621542L166.90583260376215,123.17083969383665L166.97392619328738,119.74416797519312L167.2928803198135,122.79152515668639L167.49240257967233,124.32758088947841L167.52524299194337,125.30896333912443L167.67550463339566,125.42716037984827L167.73589077922463,128.22076414821908L167.79674607380034,131.04182854464977L168.6749925276768,121.5975315123353L169.1383774469459,122.52297012493435L169.66637085076454,123.96625726151949L169.7874782486701,119.07821944006132L169.90168245787382,116.12700775769079L170.193090850842,120.55128193273434L170.6472938589251,117.36133087778198L170.70721085600732,115.9536555542742L170.7198108509195,113.17893634584833L171.45121374706983,113.85112844831818L171.5433679651773,107.48804573266204L171.78457744224548,111.61971368571454L171.94462418612957,114.95393425346926L172.03496883049965,121.58995171243609L172.06921668901086,121.37980521073729L172.34862827831267,123.21503381007426L172.43790058269025,129.2413992510348L172.78889086649298,127.61828258875656L172.89887273697616,118.27563821315616L173.05034076092002,118.83139706932606L173.1648130551219,115.35340484912227L173.5550777911508,116.09070820918014L173.8579468177891,118.49410260777353L174.26992643866657,118.40133782046352L174.45356466238616,120.96930318807216L174.69752201068522,119.69530999558401L175.4025185345197,127.36809468826725L175.48663020268322,128.15007933745184L175.588636544472,126.25856586026322L175.6181929155159,128.5284592634094L175.67971842258692,125.72458971361444L175.87186834499718,124.0976174229028L175.91134386097193,120.41044690248725L176.24195968491674,126.70081189749983L176.44409577350734,126.33983982778427L176.50374468559144,124.1138489245364L176.75440415884376,124.52028167634613L176.8700828355372,122.03237279860667L177.20512206195116,120.62403029806018L177.61576125783802,121.5677645852039L177.83827180628657,119.17015420004758L177.94543878428937,113.57342587125105L178.04670789233327,116.9595659773658L178.08356957957625,120.37962888521069L178.1908706000781,128.4839149201846L178.44300454082014,135.77620527340645L178.60365447594998,130.05188825022034L178.85324160920976,129.81041326411062L179.90064969690678,124.01130935569174L179.9643869052124,121.12988452238362L180.027118794775,119.77566220001644L180.32563144019363,122.34931828684176L180.5091356214142,116.59938848486345L180.96059075826642,118.44002600708522L181.35695442800284,125.32844518771174L181.7192042817271,122.15253229349064L181.82737657847287,125.89149197870724L181.8899744255364,127.5503736573477L181.98320098363638,122.62945585335687L182.27306788786532,120.468158856788L182.3921646482849,123.54467568657991L182.62258370417834,120.8651304853169L182.65354752146246,118.38531516812832L183.0479675749624,120.86364919618532L183.24856217481374,124.25225765244461L183.2791908858502,124.13908095777715L184.07500120280145,123.5478287603269L184.72209136703967,128.2669990517273L184.90613171825646,126.04337409658939L184.98481466520786,130.41434763409964L185.08273271077513,135.3161324535454L185.9350419410825,134.288668831581L186.10252804366468,129.99611609347335L186.13322377595065,132.1063909271675L186.1720290794301,133.8307194267457L186.33710241702914,131.81558270300454L186.40291728407027,130.48996272871508L186.8198564774132,132.47834314183842L187.2591807681,127.45047964340996L187.7995731030822,124.7351625563058L187.89802731864572,125.13989185994933L188.2171154876709,131.2244876674156L188.50932813563347,125.7938619502985L189.0066258071661,127.40905532483231L189.1988427508259,129.3971484422298L189.29260547892213,131.47123631754724L189.81825313900708,131.22243010742548L189.89284778973698,130.98981810480683L189.92206905453324,130.75344007099596L190.29269656444907,129.91915730006787L190.29283060694812,129.47265978192638L190.35268058278083,128.97896394357483L190.4774741494107,124.27285590451818L190.55153263014438,128.68249097563543L190.76043786493776,130.29779927287882L190.94615374739288,130.32944990474806L191.62997155637504,130.82391832317538L191.7666278841722,130.13217598295458L192.04731287721515,131.38051301011828L192.0473798984647,132.12195283051588L192.11326178675532,132.33434907826023L192.15937240643382,133.7232269023597L192.57021266606927,138.60069179493766L192.69400091395616,134.93732327211967L192.78803172705054,131.81508817148742L192.85277425409913,131.2071204434101L193.16596455316542,135.34342513285318L193.6879260445261,135.62982211460115L193.9822163512242,139.12203869249237L194.20512902716993,141.06007891430235L194.33709386749982,139.20656135807812L194.62950757921098,133.93486951025207L194.8195128216362,134.02015687236488L194.87581067124364,135.90795749296814L195.06407336118102,136.97928716829188L195.24094243869783,137.5988909227883L195.5817454925716,132.19052949052204L195.82121241715194,131.70159030927658L195.97053576111077,135.37749119687558L196.08091975909113,136.71816126206755L196.1455952648902,133.00517726094128L196.19204099081637,132.8822469610943L196.2628824515724,132.72611340707311L197.0621778734994,143.2923094929801L197.0627810647452,149.58061096220817L197.1743044239676,152.032423032841L197.18469271764516,152.29618289322286L197.5063276941526,148.05034678608072L197.5391681064236,147.81008547967488L197.56812128622175,145.8204405273255L198.06407853276372,146.47260803837816L198.74481336426734,141.41308361129924L198.8381739648664,131.26721649401352L198.83824098611595,125.15159573914278L198.9012409606767,121.977712276609L199.62017790441394,124.5567881440769L199.648997041713,125.66606074175901L199.70877999629616,123.66834309956512L199.74001189857842,128.08741702076858L200.35560207553627,127.0647939860259L200.35566909678576,126.42496466198655L200.7571934027362,129.9203734193757L201.09015497041463,130.56701732824195L201.53008245234727,131.36181191416657L201.6275313491678,130.10150698220494L201.84347381516218,138.095624315625L201.9927301378715,140.12223036407093L202.02288970016124,143.4349645605509L202.18320452904345,138.50923710697495L202.25766513727427,140.6315946779895L202.57896500753404,143.0008672925116L202.92941912134052,147.84770961572346L203.07706693406107,146.14563249209792L203.30212428999187,145.8210592686911L203.34789980342268,146.9845662423396L203.38295191692828,146.56294924476276L203.58964545048715,141.8117524272247L203.66202839998246,141.43797242564858L203.66263159122826,141.5624261659641L203.8619527873385,137.29322171070933L204.29966856803657,140.00372298079105L204.90024598509908,139.96226201525835L205.88867537320735,137.96806050024537L205.96755938390731,140.3471133613158L205.96762640515686,141.83678785386917L206.02881680598023,144.7458798215736L206.38496772599697,138.17091535378304L206.6031218932259,142.74800669585827L206.7566675759053,139.4210696318409L206.81182606427072,133.82078709941655L207.15450571313144,138.22981358294427L207.15785677560805,141.27291417973754L207.27360247355105,142.9496757189045L207.49423642701268,146.73976888337944L207.99589047976494,139.04549216099358L208.21752975196958,138.01250833297738L208.5711338645041,137.37353834039834L208.60089129929662,139.19016476729252L208.72883486465452,136.83215440670864L209.0755357884872,136.76416426886087L209.10536024452924,135.71850415928418L209.16628256035446,138.7661283834353L209.53684304902077,144.69658294855068L209.5655951650703,146.88210849824117L209.74346956133007,152.43339361331567L209.87731099664688,156.77630926185114L209.8921226927936,158.99297034070835L210.28325870506643,157.44954038906985L210.3140884798515,155.4066199436184L210.5987947478664,155.74164076272962L210.6088479352963,155.20159927949632L211.11492539051773,151.91911645439146L211.59627200466156,155.6964191336746L211.7855400133419,150.69639255579312L211.84840594540358,149.50790495683697L211.859531472826,148.78769604099915L211.98164418947457,148.18052048719125L212.0782888313007,142.44551512360687L212.19356538049698,144.02626717577644L213.1831341298473,143.99385741170164L213.27327771046876,140.21827290947672L213.5172350587678,142.92206509947516L213.54679142981172,141.76364946827314L213.74168922345282,140.31894971843957L213.83538493029954,140.54263546721484L213.94798062951446,143.0273733742194L214.19870712401627,142.9529623631554L214.53897400789378,141.469757475735L214.61430589236855,145.3484218843514L215.06576102922082,147.93241759782433L215.46668214392542,150.8193113738116L215.502739576174,152.85560598605514L215.54730870711327,155.71319183771396L216.29801372312903,155.16273481565815L216.6031614722514,156.24527024300875L216.99590599451304,154.02057419419262L217.26928567135693,156.2755022243498L217.5236313133335,158.09440805742466L217.70613017581104,158.7636360541848L217.85974287974,158.0659289355141L217.88695350705026,158.88992998535235L218.08955874438763,156.90451354449127L218.90869245617628,160.29052037730588L219.02732006784916,161.87113805765657L219.2450721075809,160.46081157663164L219.28816677103043,155.35319546076502L219.28823379227995,152.2567136970156L219.4525028748846,153.49709566275294L220.12921643141627,156.65719607738154L220.20830150586485,154.28540907611742L220.95377886441707,154.4915161916837L221.05390861121893,154.05868544043406L221.36569146404506,154.7199976024909L221.52191799670575,152.85546632928492L221.67110729816557,150.2004255499072L222.11056563135148,149.82932611856387L222.33200383980753,146.3455910414496L222.39332828312993,144.98563819984562L222.8455876749766,142.6668785352458L222.85597596865415,140.96404391557292L223.0469195085728,140.42846530599127L223.24463219469428,147.14499193804843L223.34630343023537,149.09251198443746L223.37451937628865,147.39007090473854L223.51117570408582,145.79319510931848L223.67189266046523,142.19729377722288L223.74025433498858,143.23670009001748L223.96913190214275,150.57623802590905L224.71172734696506,151.57732867160743L224.8304219798875,153.92522090438402L225.02920700600149,152.03642723906813L225.28234626548647,148.74876028707862L225.42228663451075,152.392567053135L225.61550889691355,155.17970678276978L225.898271548692,159.1680098455212L226.0202502228415,167.7274868927417L226.1170289071667,164.90509969125506L226.60655211375354,161.81327291338567L227.28634864776373,164.34635337196028L227.38125073710202,161.63549731741205L227.63881339905618,153.78152299395217L227.82479736650944,153.76398731228394L227.8378665101683,154.47915179194374L227.9571643343365,159.41659408413196L228.3329524804664,164.32330481409534L228.72100551526069,161.23174861711544L229.02360645690084,159.2194440759235L229.35596483333347,153.96234766013384L229.5869870804727,156.42115145213631L229.72324128077267,159.38040693256306L229.8456220824194,160.00306992459355L230.8363972142613,163.80687318263173L230.9591801434052,160.8606403137983L231.86952977580788,162.86408293000022L231.98755419623492,162.1974460059977L231.98762121748447,161.7649435217716L232.0494148095536,160.84329648775633L232.08057969058635,162.7182022927991L232.64489861165166,165.5392107331042L232.71949326238155,167.15102183572174L232.7513953771591,168.46476223752975L232.92498041344882,170.90061533347463L232.96706975815533,166.53166187331266L233.06572503746747,165.61653256345505L233.18535796788333,165.12511571196765L233.4222110637319,164.85258784741987L233.4371568023777,166.9862958737694L233.52180464053748,165.41766680867326L233.66864819826367,160.30506773593706L233.99939806470752,160.0292893998493L234.09396504779815,160.87645356616366L234.12888311880468,162.50911611276175L235.00619127518772,163.19375992607712L235.28459754574658,164.04071195940082L235.34257092659234,168.65469646686884L235.5324421265185,167.5046915452839L235.738465447582,168.474259413899L235.73853246883155,169.0908114856347L235.81473562955023,167.47010927263017L235.8487154030633,163.16011676315992L235.9202940975642,157.98583550556557L235.98383024212123,156.43198367555001L236.19615356064082,157.68366412930806L236.34058435338378,160.34473491576168L236.47905025491835,163.58819553622016L236.6111491377473,163.85981958936594L236.64345338002204,166.11439458610653L236.79063204399586,171.19450868427688L236.9091926344192,168.78204071446498L237.12701169540048,167.1991058655217L237.29603928672194,164.4215564434708L237.408903070935,161.15905713741464L237.50816154149294,164.5223619917525L237.6877784902406,161.24291698776003L238.1031091735947,166.91033003960032L238.13876447834613,165.90585459201978L238.20142934665918,166.44468561406623L238.50865475451707,159.23330359530988L238.53834516806006,152.88216495055448L238.68766851201892,152.4909620055254L238.84999397838712,152.53173041410432L238.9145354416871,153.8389197805375L239.27544487042067,152.28199267274488L239.30835230394126,148.54918223828938L239.3420639924562,144.713201932473L239.40278524453282,138.49998981254421L240.1026881534028,146.067767975633L240.1687040841925,150.87646402578113L240.4797497032738,156.18704136634182L240.63952836215972,160.54063242695096L240.87336550177932,159.55600614548476L241.11980263631105,156.10451590159246L241.2720078939998,159.15378954488438L241.83384702883242,160.862841984926L242.0198980175352,157.74856116430342L242.18885858760714,154.84167368732463L242.43938401836039,155.57887886088938L243.2156241304481,152.020613435528L243.55146761185645,151.63289202566878L243.63960055499197,155.13632604889096L243.66882181978823,157.73211156998667L243.73557498432277,159.43146397248978L243.88134620205642,159.96552093832503L244.015790828619,162.40237169496433L244.1068056854844,154.8446321150679L244.30425028660775,152.5925140853236L244.3158449627769,152.52405268684208L244.47233958043574,147.9658533762697L245.10589145226837,150.93446033893198L245.16473610935805,151.0952240672957L245.51472107441782,152.68236637560634L245.54300404172062,154.35924282518192L245.59507955260753,157.69764808481008L245.71826460924865,154.84390973821107L245.78280607254862,154.75634510317178L245.90424857670186,160.98146672400495L246.29163139900086,165.13137664696671L246.38606433959245,161.21544613541423L246.56930043581485,160.17775063477956L246.8866460523522,156.85614870415606L246.9464960281849,152.68010834740736" fill="none"></path></g></g></g></g><g opacity="0.2"><g><g><g><path style="fill: none;" stroke="rgb(255, 112, 67)" stroke-width="2px" d="M38.38782811609388,177.03751679488994L38.44238341321349,157.65735671059747L38.73452903992653,128.2284856713254L38.819109856836796,110.89716718954182L38.84095878418446,97.00075785918119L39.379742609177825,41.1810005198774L39.409701107718945,43.6849544065119L39.516465958224536,34.09165985345554L39.62517442496657,54.41068226527435L39.655937178502086,44.29237902094131L39.811426477417946,58.60005698627193L39.95847109889269,65.51670942995004L40.10618593286276,41.26042595135361L40.346390091187956,42.993846711439694L40.81821968789816,17.06942642664446L40.90990475725889,16.16903500051592L41.27094822849155,9.315639058741L41.623278937284944,11.508632497317713L41.842237359508275,11.839563347418643L41.84880544196248,10.474327867640909L41.9599266736877,-0.2453683214689125L42.059520250493286,31.023618138551267L42.30314249254465,27.674774323852365L42.315541423708204,36.66241828296536L42.343824391011005,40.0726432064822L42.48369773878574,35.95843626779429L42.67309978996515,22.98842043525796L43.02871453998566,1.8993210735871577L43.11564110062957,4.029666245855874L43.18601341263891,12.79712891949814L43.56756538622856,2.1125076497128386L43.74537276123881,-8.840953753161052L43.82975251440048,1.0101820059702473L44.48676182356954,-14.643926821985795L44.8291733874321,-23.71054003587858L45.706012395068406,24.25684508279603L45.760768755936624,11.89278396200067L45.812643203074934,9.369924085614652L46.01317078167677,4.153340816884568L46.10163883105993,11.294128077402382L46.211553680293555,12.62215981327231L46.259339831210376,-1.513590223808601L46.38869084280849,-18.308140792807855L46.67158753708601,20.040860054507448L46.893226809290645,23.135917567099543L46.90777042043924,32.08914552878285L46.94000764146447,37.094924477468545L47.03685334703922,31.72790427151995L47.24683092182517,13.817596189383622L47.42872659305692,-13.96153717044511L47.53408399732232,19.361765012440927L47.541925483517645,27.125943071762748L47.66913181513071,3.9993558386939254L47.70431797113538,10.43894883051878L47.827905155273676,7.899463847863343L47.900221083519455,7.546332398536744L47.97629020173907,19.91667862048274L48.002428489056825,11.24369520929847L48.30295177196145,15.710476048017343L48.403483646260504,-5.781123218792308L48.40924747372031,-10.524397821839683L48.63691865838289,37.38586383718357L48.872297286741734,-0.1853557427402352L48.935766410049204,-3.4812830606547394L49.09775677016974,11.891719549709027L49.29741307252765,33.52777477038416L49.328913059808016,33.06759385629832L49.831572431303265,47.281907657762204L49.95013302172661,44.64611870586311L50.41834347096205,37.425044346775856L50.54079129385829,46.89552599589676L50.57738489610314,26.9343995455671L50.5891806360209,26.107351194962554L50.69199123280406,49.34088652019142L50.76008482232928,23.133687369917066L50.873082649041415,19.643428779328797L50.979177287051684,29.19723870499526L51.06643895394325,18.631983670772467L51.546847270593645,33.22755981784198L51.726933368088005,29.779573601121722L51.996291769959925,19.908872930344053L52.09293641178608,34.44915032454789L52.525893683767315,37.586581583607185L52.76582975709438,46.39165349155406L52.80128399809718,53.52367202224075L52.96722861194015,32.71730083974945L52.98793817804575,30.750064179599693L53.970201611197,32.178454788681435L54.483718425116535,29.43191627215214L54.527818407309056,31.71665191300832L54.96855014423608,49.927732496982465L55.010907573940756,43.59392181242684L55.401373373718265,48.542526615161584L55.465244624522924,37.09816840064307L55.715367927778956,28.09977894601447L55.80651682714343,57.14318067681392L55.98010186343312,26.182214859474595L56.17117944585085,33.974473128775884L56.21943474551439,36.53990949682752L56.2815634438312,23.762907093175308L56.48182293743491,24.782309950769143L56.68201540978909,41.64234721885407L56.88763660335541,15.335549489861934L56.94373338921427,32.300507398122846L57.24023539714694,21.240199275688102L57.333998125243184,12.973010379116804L57.43459702079177,24.851141945628548L57.51106826650858,24.183603379871247L57.679090539087056,7.467565888955376L57.86641493153095,31.843671779810744L57.983299990715985,17.734075873324432L58.00106062184214,21.718677943930242L58.46551788110375,24.48462931320705L58.61913058503271,34.55584498520993L58.671072053420545,27.50021070802333L59.26729308926344,37.58080334545256L59.405758990798,51.867142378650776L59.589933384513856,44.68190323338208L59.7687460782671,72.20314470083623L59.97463535683155,49.73208338051905L60.01719385028482,50.69436277846152L60.06022149248481,65.29541304588804L60.14614273438573,58.37374265854934L60.28420650842309,66.90196599807054L60.88397967049122,48.673500013332934L61.53502408845186,80.68701752820574L61.57134960569858,68.18731986967565L61.85102927999854,46.71341012142707L61.945328178091046,16.109478598483665L62.22098657741904,31.184851257584985L63.26584785763383,42.73407942597986L63.32616698221326,34.78281823482733L63.5334637070179,60.67895556444471L63.65229238243938,55.389282651688646L63.682653008477686,64.0456916429031L64.17733685127854,49.83005999764958L64.4182782433486,39.79199316558636L64.50306012400746,50.05551265827891L64.63127177436351,18.25502966063298L64.63133879561305,18.30774341221898L64.9505610071373,34.602831184940904L64.98373652565598,28.02025214193905L65.24290769759894,5.295810009911858L65.3125427758634,16.952239701964803L65.40771295019985,24.462225968783002L65.45462782487273,19.090086446574617L65.69141389947175,23.072255574799527L65.7191606967783,23.884756957418322L65.83470533097267,23.230548888456337L66.20218284216045,6.207453794552007L66.2377041044128,25.062047638272144L66.43977317175388,17.534422539192466L68.40570748429656,25.197785548606088L68.71983608085633,42.97701885997185L68.97914129529833,33.79904784585365L69.2858975544095,54.88434573505432L69.43703047210575,45.47676578373939L69.55096659631133,74.73649664123984L69.59345806851506,66.6425028304083L69.66148463679075,48.72383150883764L69.67555909919261,50.24077108332393L69.82488244315148,54.07741984539173L70.04457809911966,49.77207487090498L70.72243101689338,39.950185106643964L71.2750212192905,43.68247077783139L71.55470089359045,34.85580650625408L71.5963881107998,27.265026277870422L72.14596235696793,47.56798113271545L72.25989848117351,29.484376592240135L73.12775664137244,10.421005880459692L73.75252872951627,32.221132652946245L73.95848502933025,23.66944155670937L74.0629041361022,15.680621817551819L74.56395499760866,22.698900291931793L74.92506549009086,45.084048334423706L75.55653970318794,33.5971136282396L75.63549073513747,30.82011264564956L75.65157583502531,35.66709141768244L76.47519997053266,24.636384094215213L76.56306482867004,30.31558121941203L76.7876530358541,49.81171155719367L76.98650508321762,43.501317943054126L77.01143698804378,22.834688888565324L77.40377938280821,35.58467549452971L77.54050273185491,23.564419543934196L77.65437183481097,20.126773332332718L77.69646117951751,26.74209572487742L77.9498015027511,23.474400675841178L78.00134084364176,37.464883778262966L78.21131841842771,38.73016587522572L78.2434886182034,45.69441275423003L79.145527615664,35.49612652912516L79.4316413299191,44.654684690495834L79.43673494488358,41.36276159024988L79.6319008235228,33.76174272934663L79.69657632932187,22.925518737451977L79.8292784033966,49.00336645114224L80.02424321828722,48.94198534232431L80.40130476815818,48.45924902491561L80.58728873561145,47.01093870009032L80.61858765914322,47.11672100735954L80.81630034526468,47.65470539133432L80.92085349453569,48.953541818633546L81.05221514361978,48.98714683526962L81.45628625705241,44.60516417578477L81.5857713111496,64.8927103955508L81.60581066475987,56.074003873011L81.70600743281126,51.69627886269269L81.90955096764206,44.308700009413116L81.97134455971123,26.599464477797596L82.01437220191121,30.971968799256913L82.07509345398783,24.38300328250521L82.20410935933828,32.25752541606043L82.47226137871861,24.101440888216548L82.6212496164298,26.23437106176498L82.73793361186623,32.41794755430051L82.80642932888865,41.76647796657919L83.15252706147551,59.88465056338301L83.18597066499233,55.17376450578127L83.30211849043249,38.07119329410115L83.3832812236166,44.358980818618235L83.41679184838294,47.17242525062205L83.71818640753149,36.388509519916575L83.73655022990346,32.6208954979066L83.77897468085766,37.441973570842904L83.93131398104548,22.369591403418102L84.06012882264734,31.494291116654693L84.12406709470153,35.49050034986935L84.40321059900522,41.84483898576376L84.54127437304258,41.78401542624144L85.01270184225558,18.27033692311275L85.62621436047793,27.968906920442304L85.78230685063959,34.7636081272782L86.20219497896194,36.72466105887652L86.20226200021148,36.746253422506925L86.5911192900002,34.08020474974551L87.27540624772907,25.876525786575414L87.32493495113374,28.762603685908786L87.58249761308788,24.939437479535094L88.0096240363598,47.577662215939405L88.08374953834294,52.54527438102486L88.23528458353638,26.678940595573412L88.30545583179712,41.00902190532808L88.52180042528867,23.99317495226683L88.85603539670825,21.199650236006566L89.11701614238858,20.04932466654098L89.66786379229784,23.46558125971045L89.94352219162583,20.014047002018042L90.30523587535382,50.68579679382879L91.10386108478546,20.63723505562365L91.13341745582939,19.781396886845222L91.34882375182748,46.73115032628774L91.49627050079943,49.0579049095139L91.53293112429381,50.849513541543L91.54821196918726,44.35264503116799L91.76348422268629,28.734827593726926L91.7921693174863,35.39379089022887L91.79277250873209,35.71210085172894L91.82152462478162,37.85288740171566L91.94899904139281,26.02376948691899L92.01655646092176,28.845982648753946L92.42364353058338,34.57748803513994L93.10411027708888,19.40935944776712L93.1609442966926,6.774430741899093L93.50188139306546,5.7675980866065375L93.65589622449158,2.366496697018062L93.76661532871961,6.2286406677856165L94.1133832738018,16.255962004333227L94.16210772221208,6.950514946716175L94.21398216935037,1.3624011019039968L94.32691297481298,9.63896696390166L94.58688840175033,11.711174950526985L94.99658930014373,4.92351913933575L95.06662650590539,-3.944048976020289L95.8288591768408,14.810895602682463L96.54008867688178,6.280999615274399L96.85776939966678,18.605880226477474L97.01225337983965,18.897579880686536L97.2125798946929,13.4926463226357L97.30017666783213,11.764040761011797L97.40841598582745,23.282907835945117L97.4167266207695,28.55838858481265L97.6106190956676,21.58699493756446L97.81570411923767,29.735882010864874L98.0791646511507,29.705064740706895L98.26159649237871,22.077232827314237L98.45575705227495,15.517817423230445L98.54737510038615,17.081439079650103L99.11310146769166,4.68397568741707L99.32066627749442,17.597476295897263L99.7044969735682,24.667252050672776L99.73800759833455,28.691744239065297L99.73807461958408,28.85130471021215L99.8641415899551,37.82779768341273L99.92352241704106,33.398017843403245L100.15910210914849,44.21548790444519L100.77556356235027,14.795486967603463L101.07293684652686,11.873421795552742L101.17635063455582,11.390938909642049L101.39906224675298,32.51202132636166L101.6581663974464,35.402306188562015L101.72284190324545,37.40791237751041L101.88764715584637,30.99214194649848L102.16658959640145,32.38925910872582L102.44211395323039,42.150680117561755L102.80114678697706,45.24649792464787L102.83291485925555,57.86292613116119L102.9016786612761,56.00598285894521L103.2716359586966,43.36502248342457L103.8580048708582,44.300945005574036L103.92797505537034,49.71094719358505L103.98842822244883,54.40242039843924L104.06925584938527,60.29308076557529L104.11590263906002,61.413349359376944L104.21951749083756,61.94444040660587L104.25477066809177,65.08465941214327L104.7203002673459,57.33690371389246L105.00138738788606,51.92310005341129L105.22530538257479,48.27505501216225L105.33857129428506,50.481733751631474L105.90852000031113,46.389930157367594L105.94095828508497,58.710907923501324L105.98599656477094,45.72913286945735L106.12339012631297,76.47848338595865L106.13920714120269,75.26667533507593L106.38993363570452,68.58044280938816L106.45145914277553,73.85019600640067L106.84916323750257,71.9306551541763L106.91169406331659,55.8523019985522L106.94574085807919,64.9451707156388L107.01115359762312,58.54328833071777L107.05525357981561,59.12506567754862L107.60429165598751,62.492916854598256L107.826668161937,73.34186310769299L108.43039557772755,80.38082159231054L108.49634448726773,79.6510402506421L108.77200288659573,74.46760582185166L108.93794750043868,79.26095848890571L109.03707192849755,80.06225819931247L109.55139299741148,86.79218231525711L109.75332802225353,77.32388017701909L109.83328437294603,70.07695580513486L109.98629388562917,78.31388498084381L110.20330869161606,91.4281033357476L110.2636278161955,84.09171764506597L110.62165533119918,99.78095207864614L110.71541805929542,90.50905935136555L110.88819884059072,75.38371000085677L111.08731897295237,88.3168768935825L111.28308804283738,102.7983074939485L112.02688987015128,95.62416864829261L112.09236963094473,90.56516908502489L112.28492168085216,82.77539444440409L112.53933434407831,101.8060218066417L112.67619173562407,98.8432555360106L112.83543422451378,95.13773223101299L113.67085409993888,100.30428812203598L114.33717936279297,103.34551678445084L114.42437400843501,89.05152412001272L114.6208803120649,68.9116270909871L114.68703028535366,78.19456943158089L115.10966628490687,91.6288210821712L115.39015021420121,80.0286024963768L115.90427021936655,98.95567774852766L116.11511907039643,96.27655201046895L116.50035721271037,89.63066577926429L116.83968579909444,98.8639862325478L117.03016019026637,113.40938294301141L117.53905253796816,84.97811965250438L117.60191847002983,80.87496232712968L117.6936705606401,81.40133954849561L117.71029183052421,78.68774712670758L117.78636094874382,64.65103811904883L118.32668626247644,99.52067793019027L119.17564443030714,67.38272554979476L119.24527950857161,69.45052382835473L119.35023478533984,67.74122974687914L119.51028152922392,80.38913414544525L120.5914013054359,94.44449571135752L120.6580204274714,91.66374394259692L121.11845641176104,98.71750282669824L121.32756271030306,93.02036275144233L121.38935630237222,100.616363668685L121.71293489511609,77.8413366096551L121.77131040345907,91.32627455984733L122.04824220652819,105.21056986460312L122.1948176792562,87.83849959793957L122.45914948741317,80.65848114152988L122.68708875707388,92.09006640854868L123.18385025861025,97.61274424057477L123.34510338498592,97.76596892427138L123.84809786272884,98.91249302126683L124.10284563220262,114.09065749596083L124.32032958693623,106.21942997187975L124.38614445397734,111.91327543766153L124.98531442479968,110.11112405531523L125.04422610313893,115.61499727018901L125.14522712618471,88.5363485708588L125.24971325420618,105.36987690425194L125.47570890763043,106.6752011779002L126.0898916383481,106.71326658890126L126.16642990531444,113.88152582380333L126.22748626363872,108.35641504939633L127.06391145780682,91.85037089773121L127.16457737460495,86.19053593898232L127.28702519750118,98.31966606112277L127.31725178104044,108.7834978098421L127.34727730083108,102.71781765018063L127.48018043865441,111.12966524581583L127.67869737977028,113.93657114517099L127.86246964598895,94.1034276013362L127.94778769664407,87.05129067882213L127.96152705279827,83.14216050832358L128.12653336914778,95.26987141407518L128.33550562519073,87.29656168259582L128.3686141224599,92.91615171946079L128.49990875029445,91.8952789591785L128.53435767255425,96.29566074541887L128.90699581995608,105.33044296316164L129.06523299010277,114.47359248945334L129.5042891957915,119.87396428054001L129.6635987059307,116.63830297285219L129.82029438733815,111.97861007784839L129.95192412142038,110.20727596566007L129.98241878995776,105.85986136250371L130.66201426021934,109.33217700303291L130.68513659130812,108.62560998658212L130.72521529852867,103.76839258202968L130.81971526036978,118.55105186092986L131.16601405670525,99.26663819658548L131.1956374489987,110.58463546619636L131.22693637253045,101.37569512302139L131.22700339378,101.37027168896397L131.2581682748127,106.08242490405576L131.46365542587995,99.89413458565723L132.33553486105086,101.22186220372954L132.63022729524613,98.12158400227847L132.9714324766171,109.42675763809008L133.45519185574412,89.85064431953661L133.58306839985252,90.64170539742379L133.78848852967025,119.23009621669681L133.88486508649828,103.56655973701481L134.01977886180757,121.68508713791584L134.6822168921888,119.8129379758193L134.98160081385137,99.62554788406666L135.01149229114293,99.71196802488794L135.71012179627178,106.4925277541349L136.2389194550848,99.63624269328267L136.5410512479782,103.49899489964545L136.66946396208286,103.54400433369194L136.96864681999685,112.60767774220784L137.0001468072772,104.86053027955224L137.19330204843044,106.01997938294618L137.24175841184257,117.18089981009075L137.310254128865,126.27985088312958L138.05150914869665,96.57555049182068L138.10090380960227,81.86724801443648L138.1348165618658,95.19627490705321L138.37924305891156,94.93194585462918L138.41060900369285,92.95771448513436L138.47454727574706,96.82289963387804L138.47461429699658,96.78559451737104L139.16975869714975,82.37725356103101L139.4611000688684,98.89485418900537L139.52001174720763,109.67806031151642L139.6220180889964,93.07180934553828L139.6940659322441,94.86716876373794L139.80887333269357,85.69872677394487L139.96483178035618,90.51311425533372L140.1772221201253,116.10376525725032L140.48947412169815,104.99601475838817L140.87839843273642,95.84075120649163L140.99327285443545,108.0152962530754L141.08871111377002,92.779248024236L141.16665682697655,96.93410537520465L141.73198106678487,110.41387332283749L141.93257566663624,123.73185060214101L142.47765948908568,108.16598662179192L142.47826268033145,108.14378602256627L142.52021798253892,111.77606762463913L142.5539296710539,110.75342084387077L142.617733900609,112.37279742985254L142.7644434158361,110.21928861866571L143.2748102310276,116.44883758494021L143.4459154810846,112.07613051828248L144.05996416930319,114.1822983256411L144.3108247063041,106.57828897306133L144.31960448999286,111.8020190100353L144.70035220858813,113.5802971452691L144.87815958359838,111.86253845176L145.24168284106372,116.12621928797397L145.39114022752165,127.85685372264412L145.4486444596207,132.01586735018014L145.5359731477618,126.30722148491459L145.58664121240852,132.3474571221759L146.64008121256353,130.4262943083643L146.7417524481046,117.76222098022517L146.77157690414666,119.11083135373349L146.96419597530365,123.46792704011379L147.09368102940084,129.50101590913124L147.1521905802429,132.19539822337015L147.75692331477643,109.09932414266167L148.30321351971745,129.88481256971698L149.17167487116217,123.95948277365322L150.09382024348258,133.67548885804584L150.29159995085357,139.95405147603537L150.64480193589094,121.18755042102339L151.06086985298992,119.44617191189981L151.67049513873937,126.08207294208287L152.00251840892435,131.57357869985378L152.22147683114767,131.29206699186471L152.5035692704308,128.0988301169437L152.80235000084758,125.92433717772168L152.8634733804214,126.83613302126065L152.92982441745875,132.24213099160312L152.9571690872681,128.15042876993846L153.2623168363905,143.68537410753038L153.48154334361195,152.19687096818294L153.64487412872313,132.45638198002044L154.83302684043883,138.48891329974225L155.69967861814618,132.07126747564504L155.9851891411555,142.53114569299544L155.98579233240127,142.89613773642887L156.0213135946536,149.35494083580284L157.87579156922342,119.81238042652367L158.0319510806346,122.68335380857567L158.10131807390096,131.84672716840853L158.32965947105885,138.13618734081248L158.7108093171513,132.10654514016798L158.8601996823597,141.12024185727637L158.9837198452485,136.57854666774585L159.12922297798394,140.45255123262027L159.31138673421384,143.47152860950987L159.34235055149793,155.3492039993252L160.0872917400539,148.97991290504822L160.2053831817305,135.0336789421789L160.81112123500702,143.05752291436139L160.86949674335003,135.58965696251238L160.9003935393846,136.3950115768873L161.57114220470785,137.72942978650707L161.67154003650785,136.21730541048296L161.71041236123682,131.28451473322403L162.16320792307974,116.33692223541915L162.3215791357255,128.7006792384169L162.3494599755311,125.3597424864559L162.4123259075928,136.6325275768219L162.9840171661067,143.46995733422222L163.9196338095832,123.93449442794949L164.05783162611962,137.26225416307616L164.2857708957803,130.05886932254998L164.37504320015788,124.3021221589622L164.4375740259719,141.23519838477353L164.56866759005786,139.95694059511268L164.73474624639988,130.81318283322577L164.95631849735497,127.19950310310682L165.5918810066736,131.42400342972851L165.66788310364367,128.2752184395584L165.85433621984362,119.19152394269973L166.07262442957162,129.1518379911736L166.1037222893548,127.26468568439489L166.17335736761927,118.03876543085326L166.50638595654726,135.91926996882367L166.8059039207089,120.45280182199394L166.90583260376215,120.02313406026846L166.97392619328738,114.6041603972279L167.2928803198135,127.3625609289262L167.49240257967233,126.63166448866652L167.52524299194337,126.78103701359336L167.67550463339566,125.60445594093399L167.73589077922463,132.41116980077553L167.79674607380034,135.273425139296L168.6749925276768,107.43108596386365L169.1383774469459,123.911128043833L169.66637085076454,126.13118796639712L169.7874782486701,111.74616270787399L169.90168245787382,111.70019023413504L170.193090850842,127.18769319529957L170.6472938589251,112.57640429535346L170.70721085600732,113.84214256901262L170.7198108509195,109.01685753320936L171.45121374706983,114.85941660202316L171.5433679651773,97.94342165917772L171.78457744224548,117.81721561529326L171.94462418612957,119.95526510510149L172.03496883049965,131.54397790088626L172.06921668901086,121.06458545818913L172.34862827831267,125.96787670907973L172.43790058269025,138.28094741247557L172.78889086649298,125.18360759533921L172.89887273697616,104.26167164975554L173.05034076092002,119.66503535358089L173.1648130551219,110.13641651881657L173.5550777911508,117.19666324926695L173.8579468177891,122.09919420566352L174.26992643866657,118.26219063949853L174.45356466238616,124.82125123948508L174.69752201068522,117.78432020685163L175.4025185345197,138.87727172729217L175.48663020268322,129.3230563112289L175.588636544472,123.42129564448004L175.6181929155159,131.93329936812862L175.67971842258692,121.51878538892193L175.87186834499718,121.65715898683517L175.91134386097193,114.87969112186394L176.24195968491674,136.1363593900187L176.44409577350734,125.79838172321091L176.50374468559144,120.77486256966453L176.75440415884376,125.12993080406079L176.8700828355372,118.30050948199757L177.20512206195116,118.51151654724036L177.61576125783802,122.98336601591944L177.83827180628657,115.57373862231304L177.94543878428937,105.1783333780563L178.04670789233327,122.03877613653805L178.08356957957625,125.50972324697798L178.1908706000781,140.64034397264538L178.44300454082014,146.71464080323918L178.60365447594998,121.4654127154411L178.85324160920976,129.44820078494604L179.90064969690678,115.31265349306355L179.9643869052124,116.80774727242141L180.027118794775,117.7443287164657L180.32563144019363,126.20980241707971L180.5091356214142,107.97449378189584L180.96059075826642,121.2009822904179L181.35695442800284,135.66107395865149L181.7192042817271,117.38866295215901L181.82737657847287,131.4999315065322L181.8899744255364,130.03869617530842L181.98320098363638,115.2480791473707L182.27306788786532,117.22621336193488L182.3921646482849,128.1594509312676L182.62258370417834,116.84581268342245L182.65354752146246,114.66559219234543L183.0479675749624,124.58115023827081L183.24856217481374,129.33517033683376L183.2791908858502,123.969315915776L184.07500120280145,122.66095046415163L184.72209136703967,135.34575448882794L184.90613171825646,122.7079366638826L184.98481466520786,136.97080794036512L185.08273271077513,142.66880968271425L185.9350419410825,132.74747339863427L186.10252804366468,123.557286986312L186.13322377595065,135.27180317770873L186.1720290794301,136.41721217611294L186.33710241702914,128.7928776173928L186.40291728407027,128.50153276728096L186.8198564774132,135.4609137615235L187.2591807681,119.90868439576734L187.7995731030822,120.66218692564946L187.89802731864572,125.74698581541456L188.2171154876709,140.35138137861483L188.50932813563347,117.64792337462286L189.0066258071661,129.83184538663298L189.1988427508259,132.37928811832592L189.29260547892213,134.5823681305234L189.81825313900708,130.84922079224273L189.89284778973698,130.64090010087884L189.92206905453324,130.39887302027967L190.29269656444907,128.66773314367566L190.29283060694812,128.80291350471398L190.35268058278083,128.2384201860474L190.4774741494107,117.21369384593321L190.55153263014438,135.2969435823113L190.76043786493776,132.72076171874406L190.94615374739288,130.37692585255203L191.62997155637504,131.56562095081628L191.7666278841722,129.09456247262344L192.04731287721515,133.25301855086383L192.0473798984647,133.2341125611123L192.11326178675532,132.6529434498767L192.15937240643382,135.806543638509L192.57021266606927,145.91688913380455L192.69400091395616,129.4422704878926L192.78803172705054,127.13173552053905L192.85277425409913,130.29516885129414L193.16596455316542,141.54788216701778L193.6879260445261,136.05941758722298L193.9822163512242,144.36036355932916L194.20512902716993,143.96713924701746L194.33709386749982,136.42628502374168L194.62950757921098,126.0273317385128L194.8195128216362,134.14808791553415L194.87581067124364,138.73965842387295L195.06407336118102,138.58628168127754L195.24094243869783,138.52829655453294L195.5817454925716,124.07798734212251L195.82121241715194,130.96818153740844L195.97053576111077,140.8913425282741L196.08091975909113,138.72916635985536L196.1455952648902,127.43570125925177L196.19204099081637,132.697851511324L196.2628824515724,132.49191307604139L197.0621778734994,159.14160362184052L197.0627810647452,159.01306316605005L197.1743044239676,155.71014113879048L197.18469271764516,152.6918226837957L197.5063276941526,141.68159262536764L197.5391681064236,147.44969352006623L197.56812128622175,142.8359730988014L198.06407853276372,147.45085930495708L198.74481336426734,133.82379697068106L198.8381739648664,116.04841581808502L198.83824098611595,115.97816460683677L198.9012409606767,117.21688708280811L199.62017790441394,128.42540194527888L199.648997041713,127.32996963828217L199.70877999629616,120.67176663627426L199.74001189857842,134.71602790257367L200.35560207553627,125.53085943391197L200.35566909678576,125.4652206759275L200.7571934027362,135.16348655545943L201.09015497041463,131.5369831915412L201.53008245234727,132.55400379305374L201.6275313491678,128.21104958426235L201.84347381516218,150.08680031575497L201.9927301378715,143.16213943673975L202.02288970016124,148.4040658552708L202.18320452904345,131.12064592661102L202.25766513727427,143.8151310345113L202.57896500753404,146.55477621429472L202.92941912134052,155.11797310054123L203.07706693406107,143.59251680665966L203.30212428999187,145.33419943358086L203.34789980342268,148.72982670281235L203.38295191692828,145.93052374839746L203.58964545048715,134.6849572009177L203.66202839998246,140.87730242328436L203.66263159122826,141.7491067764374L203.8619527873385,130.88941502782706L204.29966856803657,144.06947488591373L204.90024598509908,139.90007056695933L205.88867537320735,134.97675822772595L205.96755938390731,143.9156926529215L205.96762640515686,144.0712995926994L206.02881680598023,149.10951777313034L206.38496772599697,128.30846865209725L206.6031218932259,149.61364370897104L206.7566675759053,134.43066403581486L206.81182606427072,125.4203633007798L207.15450571313144,144.84335330823586L207.15785677560805,145.83756507492754L207.27360247355105,145.464818027655L207.49423642701268,152.42490863009198L207.99589047976494,127.50407707741478L208.21752975196958,136.46303259095308L208.5711338645041,136.41508335152966L208.60089129929662,141.9151044076337L208.72883486465452,133.29513886583302L209.0755357884872,136.66217906208902L209.10536024452924,134.15001399491902L209.16628256035446,143.337564719662L209.53684304902077,153.59226479622382L209.5655951650703,150.16039682277696L209.74346956133007,160.76032128592746L209.87731099664688,163.29068273465455L209.8921226927936,162.3179619589941L210.28325870506643,155.13439546161226L210.3140884798515,152.34223927544124L210.5987947478664,156.2441719913963L210.6088479352963,154.3915370546465L211.11492539051773,146.99539221673422L211.59627200466156,161.36237315259908L211.7855400133419,143.19635268897105L211.84840594540358,147.72517355840267L211.859531472826,147.7073826672424L211.98164418947457,147.26975715647941L212.0782888313007,133.8430070782302L212.19356538049698,146.39739525403076L213.1831341298473,143.94524276558943L213.27327771046876,134.55489615613916L213.5172350587678,146.97775338447275L213.54679142981172,140.0260260214701L213.74168922345282,138.15190009368908L213.83538493029954,140.8781640903776L213.94798062951446,146.7544802347263L214.19870712401627,142.8413458465592L214.53897400789378,139.2449501446045L214.61430589236855,151.16641849727588L215.06576102922082,151.8084111680338L215.46668214392542,155.14965203779244L215.502739576174,155.91004790442045L215.54730870711327,159.99957061520223L216.29801372312903,154.33704928257444L216.6031614722514,157.8690733840347L216.99590599451304,150.68353012096838L217.26928567135693,159.65789426958568L217.5236313133335,160.82276680703703L217.70613017581104,159.76747804932504L217.85974287974,157.0193682575081L217.88695350705026,160.12593156010982L218.08955874438763,153.92638888319968L218.90869245617628,165.36953062652773L219.02732006784916,164.2420645781826L219.2450721075809,158.34532185509434L219.28816677103043,147.691771286965L219.28823379227995,147.61199105139158L219.4525028748846,155.35766861135872L220.12921643141627,161.3973466993244L220.20830150586485,150.72772857422126L220.95377886441707,154.8006768650332L221.05390861121893,153.4094393135597L221.36569146404506,155.71196584557615L221.52191799670575,150.0586694194759L221.67110729816557,146.21786438084075L222.11056563135148,149.27267697154892L222.33200383980753,141.11998842577836L222.39332828312993,142.94570893743955L222.8455876749766,139.18873903834597L222.85597596865415,138.40979198606365L223.0469195085728,139.6250973916189L223.24463219469428,157.2197818861341L223.34630343023537,152.0137920540208L223.37451937628865,144.8364092851904L223.51117570408582,143.39788141618828L223.67189266046523,136.80344177907958L223.74025433498858,144.79580955920926L223.96913190214275,161.58554492974633L224.71172734696506,153.07896464015516L224.8304219798875,157.4470592535491L225.02920700600149,149.2032367410943L225.28234626548647,143.81725985909458L225.42228663451075,157.85827720221948L225.61550889691355,159.360416377222L225.898271548692,165.15046443964823L226.0202502228415,180.56670246357248L226.1170289071667,160.6715188890249L226.60655211375354,157.1755327465816L227.28634864776373,168.14597405982215L227.38125073710202,157.56921323558973L227.63881339905618,142.00056150876253L227.82479736650944,153.73768378978173L227.8378665101683,155.55189851143328L227.9571643343365,166.8227575224144L228.3329524804664,171.6833709090402L228.72100551526069,156.5944143216456L229.02360645690084,156.20098726413548L229.35596483333347,146.0767030364494L229.5869870804727,160.10935714014L229.72324128077267,163.81929015320299L229.8456220824194,160.93706441263936L230.8363972142613,169.51257806968914L230.9591801434052,156.44129101054818L231.86952977580788,165.86924685430307L231.98755419623492,161.19749061999403L231.98762121748447,161.11618979543255L232.0494148095536,159.4608259367334L232.08057969058635,165.53056100036304L232.64489861165166,169.77072339356172L232.71949326238155,169.56873848964807L232.7513953771591,170.4353728402417L232.92498041344882,174.5543949773918L232.96706975815533,159.97823168306982L233.06572503746747,164.24383859866867L233.18535796788333,164.38799043473654L233.4222110637319,164.44379605059825L233.4371568023777,170.1868579132935L233.52180464053748,163.0647232110292L233.66864819826367,152.63616912683278L233.99939806470752,159.61562189571768L234.09396504779815,162.14719981563522L234.12888311880468,164.95810993265894L235.00619127518772,164.2207256460502L235.28459754574658,165.31114000938632L235.34257092659234,175.5756732280709L235.5324421265185,165.77968416290648L235.738465447582,169.9286112168217L235.73853246883155,170.0156395932382L235.81473562955023,165.0390559531232L235.8487154030633,156.6951279989546L235.9202940975642,150.2244136191742L235.98383024212123,154.1012059305267L236.19615356064082,159.56118480994522L236.34058435338378,164.33634109544218L236.47905025491835,168.4533864669078L236.6111491377473,164.26725566908476L236.64345338002204,169.49625708121732L236.79063204399586,178.81467983153246L236.9091926344192,165.16333875974712L237.12701169540048,164.8247035921067L237.29603928672194,160.25523231039432L237.408903070935,156.26530817833032L237.50816154149294,169.56731927325922L237.6877784902406,156.32374948177133L238.1031091735947,175.41144961736072L238.13876447834613,164.39914142064896L238.20142934665918,167.2529321471359L238.50865475451707,148.41623056717526L238.53834516806006,143.35545698342148L238.68766851201892,151.90415758798184L238.84999397838712,152.59288302697274L238.9145354416871,155.79970383018707L239.27544487042067,149.94660201105606L239.30835230394126,142.9499665866061L239.3420639924562,138.95923147374847L239.40278524453282,129.18017163265108L240.1026881534028,157.41943522026605L240.1687040841925,158.08950810100345L240.4797497032738,164.15290737718283L240.63952836215972,167.07101901786461L240.87336550177932,158.07906672328545L241.11980263631105,150.92728053575402L241.2720078939998,163.7277000098223L241.83384702883242,163.4264206449885L242.0198980175352,153.0771399333695L242.18885858760714,150.48134247185632L242.43938401836039,156.6846866212366L243.2156241304481,146.683215297486L243.55146761185645,151.05130991087992L243.63960055499197,160.39147708372428L243.66882181978823,161.62578985163026L243.73557498432277,161.9804925762445L243.88134620205642,160.7666063870781L244.015790828619,166.0576478299234L244.1068056854844,143.50802274522326L244.30425028660775,149.2143370407071L244.3158449627769,152.42136058911984L244.47233958043574,141.12855441041108L245.10589145226837,155.38737078292544L245.16473610935805,151.33636965984113L245.51472107441782,155.06307983807235L245.54300404172062,156.8745574995454L245.59507955260753,162.70525597425237L245.71826460924865,150.56330221831263L245.78280607254862,154.62499815061295L245.90424857670186,170.3191491552545L246.29163139900086,171.3562415314094L246.38606433959245,155.3415503680853L246.56930043581485,158.6212073838276L246.8866460523522,151.8737458082207L246.9464960281849,146.41604781228426" fill="none"></path></g></g></g></g></g></g><g transform="translate(61, 176)" clip-path="url(#clip_1)"><clipPath id="clip_1"><rect width="268" height="23"></rect></clipPath><g><g><line x1="0" y1="0" x2="0" y2="5" style="visibility: inherit;" fill="rgb(0, 0, 0)" stroke="rgb(204, 204, 204)" stroke-width="1px"></line><line x1="33.51062476634979" y1="0" x2="33.51062476634979" y2="5" style="visibility: inherit;" fill="rgb(0, 0, 0)" stroke="rgb(204, 204, 204)" stroke-width="1px"></line><line x1="67.02124953269958" y1="0" x2="67.02124953269958" y2="5" style="visibility: inherit;" fill="rgb(0, 0, 0)" stroke="rgb(204, 204, 204)" stroke-width="1px"></line><line x1="100.53187429904938" y1="0" x2="100.53187429904938" y2="5" style="visibility: inherit;" fill="rgb(0, 0, 0)" stroke="rgb(204, 204, 204)" stroke-width="1px"></line><line x1="134.04249906539917" y1="0" x2="134.04249906539917" y2="5" style="visibility: inherit;" fill="rgb(0, 0, 0)" stroke="rgb(204, 204, 204)" stroke-width="1px"></line><line x1="167.55312383174896" y1="0" x2="167.55312383174896" y2="5" style="visibility: inherit;" fill="rgb(0, 0, 0)" stroke="rgb(204, 204, 204)" stroke-width="1px"></line><line x1="201.06374859809875" y1="0" x2="201.06374859809875" y2="5" style="visibility: inherit;" fill="rgb(0, 0, 0)" stroke="rgb(204, 204, 204)" stroke-width="1px"></line><line x1="234.57437336444855" y1="0" x2="234.57437336444855" y2="5" style="visibility: inherit;" fill="rgb(0, 0, 0)" stroke="rgb(204, 204, 204)" stroke-width="1px"></line><line x1="268.08499813079834" y1="0" x2="268.08499813079834" y2="5" style="visibility: inherit;" fill="rgb(0, 0, 0)" stroke="rgb(204, 204, 204)" stroke-width="1px"></line></g><g transform="translate(0, 8)"><text style="text-anchor: middle; visibility: hidden; font-family: Roboto, sans-serif; font-size: 12px; font-weight: 200;" x="0" y="0" dx="0em" dy="0.95em" fill="rgb(33, 33, 33)" stroke="none" stroke-width="1px">-500k</text><text style="text-anchor: middle; visibility: inherit; font-family: Roboto, sans-serif; font-size: 12px; font-weight: 200;" x="33.51062476634979" y="0" dx="0em" dy="0.95em" fill="rgb(33, 33, 33)" stroke="none" stroke-width="1px">0</text><text style="text-anchor: middle; visibility: inherit; font-family: Roboto, sans-serif; font-size: 12px; font-weight: 200;" x="67.02124953269958" y="0" dx="0em" dy="0.95em" fill="rgb(33, 33, 33)" stroke="none" stroke-width="1px">500k</text><text style="text-anchor: middle; visibility: inherit; font-family: Roboto, sans-serif; font-size: 12px; font-weight: 200;" x="100.53187429904938" y="0" dx="0em" dy="0.95em" fill="rgb(33, 33, 33)" stroke="none" stroke-width="1px">1M</text><text style="text-anchor: middle; visibility: inherit; font-family: Roboto, sans-serif; font-size: 12px; font-weight: 200;" x="134.04249906539917" y="0" dx="0em" dy="0.95em" fill="rgb(33, 33, 33)" stroke="none" stroke-width="1px">1.5M</text><text style="text-anchor: middle; visibility: inherit; font-family: Roboto, sans-serif; font-size: 12px; font-weight: 200;" x="167.55312383174896" y="0" dx="0em" dy="0.95em" fill="rgb(33, 33, 33)" stroke="none" stroke-width="1px">2M</text><text style="text-anchor: middle; visibility: inherit; font-family: Roboto, sans-serif; font-size: 12px; font-weight: 200;" x="201.06374859809875" y="0" dx="0em" dy="0.95em" fill="rgb(33, 33, 33)" stroke="none" stroke-width="1px">2.5M</text><text style="text-anchor: middle; visibility: inherit; font-family: Roboto, sans-serif; font-size: 12px; font-weight: 200;" x="234.57437336444855" y="0" dx="0em" dy="0.95em" fill="rgb(33, 33, 33)" stroke="none" stroke-width="1px">3M</text><text style="text-anchor: middle; visibility: hidden; font-family: Roboto, sans-serif; font-size: 12px; font-weight: 200;" x="268.08499813079834" y="0" dx="0em" dy="0.95em" fill="rgb(33, 33, 33)" stroke="none" stroke-width="1px">3.5M</text></g><line x1="0" y1="0" x2="268.08499813079834" y2="0" fill="rgb(0, 0, 0)" stroke="rgb(204, 204, 204)" stroke-width="1px"></line></g></g></g></g></svg>