<svg viewBox="0 0 330 200" xmlns="http://www.w3.org/2000/svg"><g><g><g><g><g><line x1="72.29800224304199" y1="176.8779993057251" x2="67.29800224304199" y2="176.8779993057251" style="visibility: inherit;" fill="rgb(0, 0, 0)" stroke="rgb(204, 204, 204)" stroke-width="1px"></line><line x1="72.29800224304199" y1="164.2438564981733" x2="67.29800224304199" y2="164.2438564981733" style="visibility: inherit;" fill="rgb(0, 0, 0)" stroke="rgb(204, 204, 204)" stroke-width="1px"></line><line x1="72.29800224304199" y1="151.60971369062153" x2="67.29800224304199" y2="151.60971369062153" style="visibility: inherit;" fill="rgb(0, 0, 0)" stroke="rgb(204, 204, 204)" stroke-width="1px"></line><line x1="72.29800224304199" y1="138.9755708830697" x2="67.29800224304199" y2="138.9755708830697" style="visibility: inherit;" fill="rgb(0, 0, 0)" stroke="rgb(204, 204, 204)" stroke-width="1px"></line><line x1="72.29800224304199" y1="126.34142807551792" x2="67.29800224304199" y2="126.34142807551792" style="visibility: inherit;" fill="rgb(0, 0, 0)" stroke="rgb(204, 204, 204)" stroke-width="1px"></line><line x1="72.29800224304199" y1="113.70728526796613" x2="67.29800224304199" y2="113.70728526796613" style="visibility: inherit;" fill="rgb(0, 0, 0)" stroke="rgb(204, 204, 204)" stroke-width="1px"></line><line x1="72.29800224304199" y1="101.07314246041433" x2="67.29800224304199" y2="101.07314246041433" style="visibility: inherit;" fill="rgb(0, 0, 0)" stroke="rgb(204, 204, 204)" stroke-width="1px"></line><line x1="72.29800224304199" y1="88.43899965286255" x2="67.29800224304199" y2="88.43899965286255" style="visibility: inherit;" fill="rgb(0, 0, 0)" stroke="rgb(204, 204, 204)" stroke-width="1px"></line><line x1="72.29800224304199" y1="75.80485684531077" x2="67.29800224304199" y2="75.80485684531077" style="visibility: inherit;" fill="rgb(0, 0, 0)" stroke="rgb(204, 204, 204)" stroke-width="1px"></line><line x1="72.29800224304199" y1="63.170714037758955" x2="67.29800224304199" y2="63.170714037758955" style="visibility: inherit;" fill="rgb(0, 0, 0)" stroke="rgb(204, 204, 204)" stroke-width="1px"></line><line x1="72.29800224304199" y1="50.536571230207166" x2="67.29800224304199" y2="50.536571230207166" style="visibility: inherit;" fill="rgb(0, 0, 0)" stroke="rgb(204, 204, 204)" stroke-width="1px"></line><line x1="72.29800224304199" y1="37.90242842265538" x2="67.29800224304199" y2="37.90242842265538" style="visibility: inherit;" fill="rgb(0, 0, 0)" stroke="rgb(204, 204, 204)" stroke-width="1px"></line><line x1="72.29800224304199" y1="25.268285615103593" x2="67.29800224304199" y2="25.268285615103593" style="visibility: inherit;" fill="rgb(0, 0, 0)" stroke="rgb(204, 204, 204)" stroke-width="1px"></line><line x1="72.29800224304199" y1="12.634142807551788" x2="67.29800224304199" y2="12.634142807551788" style="visibility: inherit;" fill="rgb(0, 0, 0)" stroke="rgb(204, 204, 204)" stroke-width="1px"></line><line x1="72.29800224304199" y1="0" x2="67.29800224304199" y2="0" style="visibility: inherit;" fill="rgb(0, 0, 0)" stroke="rgb(204, 204, 204)" stroke-width="1px"></line></g><g transform="translate(62.29800224304199, 0)"><text style="text-anchor: end; visibility: hidden; font-family: Roboto, sans-serif; font-size: 12px; font-weight: 200;" x="0" y="176.8779993057251" dx="0em" dy="0.3em" fill="rgb(33, 33, 33)" stroke="none" stroke-width="1px">0</text><text style="text-anchor: end; visibility: inherit; font-family: Roboto, sans-serif; font-size: 12px; font-weight: 200;" x="0" y="164.2438564981733" dx="0em" dy="0.3em" fill="rgb(33, 33, 33)" stroke="none" stroke-width="1px">100</text><text style="text-anchor: end; visibility: hidden; font-family: Roboto, sans-serif; font-size: 12px; font-weight: 200;" x="0" y="151.60971369062153" dx="0em" dy="0.3em" fill="rgb(33, 33, 33)" stroke="none" stroke-width="1px">200</text><text style="text-anchor: end; visibility: inherit; font-family: Roboto, sans-serif; font-size: 12px; font-weight: 200;" x="0" y="138.9755708830697" dx="0em" dy="0.3em" fill="rgb(33, 33, 33)" stroke="none" stroke-width="1px">300</text><text style="text-anchor: end; visibility: hidden; font-family: Roboto, sans-serif; font-size: 12px; font-weight: 200;" x="0" y="126.34142807551792" dx="0em" dy="0.3em" fill="rgb(33, 33, 33)" stroke="none" stroke-width="1px">400</text><text style="text-anchor: end; visibility: inherit; font-family: Roboto, sans-serif; font-size: 12px; font-weight: 200;" x="0" y="113.70728526796613" dx="0em" dy="0.3em" fill="rgb(33, 33, 33)" stroke="none" stroke-width="1px">500</text><text style="text-anchor: end; visibility: hidden; font-family: Roboto, sans-serif; font-size: 12px; font-weight: 200;" x="0" y="101.07314246041433" dx="0em" dy="0.3em" fill="rgb(33, 33, 33)" stroke="none" stroke-width="1px">600</text><text style="text-anchor: end; visibility: inherit; font-family: Roboto, sans-serif; font-size: 12px; font-weight: 200;" x="0" y="88.43899965286255" dx="0em" dy="0.3em" fill="rgb(33, 33, 33)" stroke="none" stroke-width="1px">700</text><text style="text-anchor: end; visibility: hidden; font-family: Roboto, sans-serif; font-size: 12px; font-weight: 200;" x="0" y="75.80485684531077" dx="0em" dy="0.3em" fill="rgb(33, 33, 33)" stroke="none" stroke-width="1px">800</text><text style="text-anchor: end; visibility: inherit; font-family: Roboto, sans-serif; font-size: 12px; font-weight: 200;" x="0" y="63.170714037758955" dx="0em" dy="0.3em" fill="rgb(33, 33, 33)" stroke="none" stroke-width="1px">900</text><text style="text-anchor: end; visibility: hidden; font-family: Roboto, sans-serif; font-size: 12px; font-weight: 200;" x="0" y="50.536571230207166" dx="0em" dy="0.3em" fill="rgb(33, 33, 33)" stroke="none" stroke-width="1px">1e+3</text><text style="text-anchor: end; visibility: inherit; font-family: Roboto, sans-serif; font-size: 12px; font-weight: 200;" x="0" y="37.90242842265538" dx="0em" dy="0.3em" fill="rgb(33, 33, 33)" stroke="none" stroke-width="1px">1.1e+3</text><text style="text-anchor: end; visibility: hidden; font-family: Roboto, sans-serif; font-size: 12px; font-weight: 200;" x="0" y="25.268285615103593" dx="0em" dy="0.3em" fill="rgb(33, 33, 33)" stroke="none" stroke-width="1px">1.2e+3</text><text style="text-anchor: end; visibility: inherit; font-family: Roboto, sans-serif; font-size: 12px; font-weight: 200;" x="0" y="12.634142807551788" dx="0em" dy="0.3em" fill="rgb(33, 33, 33)" stroke="none" stroke-width="1px">1.3e+3</text><text style="text-anchor: end; visibility: hidden; font-family: Roboto, sans-serif; font-size: 12px; font-weight: 200;" x="0" y="0" dx="0em" dy="0.3em" fill="rgb(33, 33, 33)" stroke="none" stroke-width="1px">1.4e+3</text></g><line x1="72.29800224304199" y1="0" x2="72.29800224304199" y2="176.8779993057251" fill="rgb(0, 0, 0)" stroke="rgb(204, 204, 204)" stroke-width="1px"></line></g></g><g transform="translate(72, 0)" clip-path="url(#clip_0)"><clipPath id="clip_0"><rect width="257" height="176"></rect></clipPath><g><g><g><line x1="0" y1="0" x2="0" y2="176.8779993057251" fill="rgb(0, 0, 0)" stroke="rgb(66, 66, 66)" stroke-width="1px" opacity="0.25"></line><line x1="32.21274971961975" y1="0" x2="32.21274971961975" y2="176.8779993057251" fill="rgb(0, 0, 0)" stroke="rgb(66, 66, 66)" stroke-width="1px" opacity="0.25"></line><line x1="64.4254994392395" y1="0" x2="64.4254994392395" y2="176.8779993057251" fill="rgb(0, 0, 0)" stroke="rgb(66, 66, 66)" stroke-width="1px" opacity="0.25"></line><line x1="96.63824915885925" y1="0" x2="96.63824915885925" y2="176.8779993057251" fill="rgb(0, 0, 0)" stroke="rgb(66, 66, 66)" stroke-width="1px" opacity="0.25"></line><line x1="128.850998878479" y1="0" x2="128.850998878479" y2="176.8779993057251" fill="rgb(0, 0, 0)" stroke="rgb(66, 66, 66)" stroke-width="1px" opacity="0.25"></line><line x1="161.06374859809875" y1="0" x2="161.06374859809875" y2="176.8779993057251" fill="rgb(0, 0, 0)" stroke="rgb(66, 66, 66)" stroke-width="1px" opacity="0.25"></line><line x1="193.2764983177185" y1="0" x2="193.2764983177185" y2="176.8779993057251" fill="rgb(0, 0, 0)" stroke="rgb(66, 66, 66)" stroke-width="1px" opacity="0.25"></line><line x1="225.48924803733826" y1="0" x2="225.48924803733826" y2="176.8779993057251" fill="rgb(0, 0, 0)" stroke="rgb(66, 66, 66)" stroke-width="1px" opacity="0.25"></line><line x1="257.701997756958" y1="0" x2="257.701997756958" y2="176.8779993057251" fill="rgb(0, 0, 0)" stroke="rgb(66, 66, 66)" stroke-width="1px" opacity="0.25"></line></g><g><line x1="0" y1="176.8779993057251" x2="257.701997756958" y2="176.8779993057251" fill="rgb(0, 0, 0)" stroke="rgb(66, 66, 66)" stroke-width="1px" opacity="0.25"></line><line x1="0" y1="164.2438564981733" x2="257.701997756958" y2="164.2438564981733" fill="rgb(0, 0, 0)" stroke="rgb(66, 66, 66)" stroke-width="1px" opacity="0.25"></line><line x1="0" y1="151.60971369062153" x2="257.701997756958" y2="151.60971369062153" fill="rgb(0, 0, 0)" stroke="rgb(66, 66, 66)" stroke-width="1px" opacity="0.25"></line><line x1="0" y1="138.9755708830697" x2="257.701997756958" y2="138.9755708830697" fill="rgb(0, 0, 0)" stroke="rgb(66, 66, 66)" stroke-width="1px" opacity="0.25"></line><line x1="0" y1="126.34142807551792" x2="257.701997756958" y2="126.34142807551792" fill="rgb(0, 0, 0)" stroke="rgb(66, 66, 66)" stroke-width="1px" opacity="0.25"></line><line x1="0" y1="113.70728526796613" x2="257.701997756958" y2="113.70728526796613" fill="rgb(0, 0, 0)" stroke="rgb(66, 66, 66)" stroke-width="1px" opacity="0.25"></line><line x1="0" y1="101.07314246041433" x2="257.701997756958" y2="101.07314246041433" fill="rgb(0, 0, 0)" stroke="rgb(66, 66, 66)" stroke-width="1px" opacity="0.25"></line><line x1="0" y1="88.43899965286255" x2="257.701997756958" y2="88.43899965286255" fill="rgb(0, 0, 0)" stroke="rgb(66, 66, 66)" stroke-width="1px" opacity="0.25"></line><line x1="0" y1="75.80485684531077" x2="257.701997756958" y2="75.80485684531077" fill="rgb(0, 0, 0)" stroke="rgb(66, 66, 66)" stroke-width="1px" opacity="0.25"></line><line x1="0" y1="63.170714037758955" x2="257.701997756958" y2="63.170714037758955" fill="rgb(0, 0, 0)" stroke="rgb(66, 66, 66)" stroke-width="1px" opacity="0.25"></line><line x1="0" y1="50.536571230207166" x2="257.701997756958" y2="50.536571230207166" fill="rgb(0, 0, 0)" stroke="rgb(66, 66, 66)" stroke-width="1px" opacity="0.25"></line><line x1="0" y1="37.90242842265538" x2="257.701997756958" y2="37.90242842265538" fill="rgb(0, 0, 0)" stroke="rgb(66, 66, 66)" stroke-width="1px" opacity="0.25"></line><line x1="0" y1="25.268285615103593" x2="257.701997756958" y2="25.268285615103593" fill="rgb(0, 0, 0)" stroke="rgb(66, 66, 66)" stroke-width="1px" opacity="0.25"></line><line x1="0" y1="12.634142807551788" x2="257.701997756958" y2="12.634142807551788" fill="rgb(0, 0, 0)" stroke="rgb(66, 66, 66)" stroke-width="1px" opacity="0.25"></line><line x1="0" y1="0" x2="257.701997756958" y2="0" fill="rgb(0, 0, 0)" stroke="rgb(66, 66, 66)" stroke-width="1px" opacity="0.25"></line></g></g></g><g><g><line x1="0" y1="176.8779993057251" x2="257.701997756958" y2="176.8779993057251" fill="rgb(0, 0, 0)" stroke="rgb(153, 153, 153)" stroke-width="1.5px"></line></g></g><g><g><line x1="32.21274971961975" y1="0" x2="32.21274971961975" y2="176.8779993057251" fill="rgb(0, 0, 0)" stroke="rgb(153, 153, 153)" stroke-width="1.5px"></line></g></g><g><g><g><g><g><path style="fill: none;" stroke="rgb(255, 112, 67)" stroke-width="2px" d="M35.20338140358925,180.22836928744536L35.224641818404194,176.40504658784536L35.41186231977463,170.0023698103978L35.48562951663256,165.62654402004387L35.568351857912546,161.3757999453332L35.58980554922581,158.86250562614126L35.687474606375694,156.24868990586583L35.74526427937269,154.01011848287214L35.79635370042801,151.79216919767833L35.89505356556892,150.23493662681884L35.911610918924815,149.30231052833497L35.99980942765713,149.06517309191398L36.05940301463842,149.85003498537029L36.14740824687243,151.10017583403064L36.14747267237186,151.85283436474268L36.165125259218215,152.1941591104032L36.20919230083465,152.5205490999258L36.27181388628959,153.5167487919059L36.28862894164324,155.16637743598156L36.343455041666026,157.08954047867834L36.372897494909765,158.5162174980754L36.3783736623621,159.4660586697114L36.40272650115013,160.64360248644468L36.528807203552724,163.29401279145947L36.54001724045515,164.96565565788632L36.553288893339634,165.80067799073686L36.58801423753738,165.30188452035682L36.694638439109326,165.2903170338754L36.72871952831269,164.88562158583645L36.74173347919941,164.58036270344064L36.752299261107446,164.4663608759421L36.859889845170976,163.06436562687114L36.90402131228686,161.5201486798471L36.95994264580011,160.72854643752083L37.24579858681202,157.77569147131445L37.33071139507293,155.0444020819747L37.33670296652078,153.35670199006682L37.88335332926274,148.1914472441121L37.887283284728525,144.5012857906525L37.9964200807786,143.03443708394374L38.1200526142025,142.45023700447408L38.139960093529226,141.51666946481814L38.28085866080284,141.20832654351696L38.44385517438411,139.59367931514666L38.56020762637138,137.239819093965L38.78382853492498,135.44273995078592L39.276361478137964,133.35379188534958L39.33737242610693,132.1791489315558L39.70305156092405,130.34347782868775L40.04057675248623,125.09860531912985L40.22799053035498,121.43446388094215L40.259430174081324,119.2942422806008L40.33487243392467,117.98643880967694L40.455927947371,116.24306711341912L40.676649708449844,117.14631713084248L40.68618468236684,117.70567918625464L40.71504730611562,118.7017249516648L40.849245621447565,118.71338851707529L41.023903150427344,120.0066047011823L41.3699325079155,122.31542823426037L41.46560437458277,125.19391548041347L41.55309420282125,128.11211045678314L41.880246888973716,127.5433235611549L42.07732449175835,126.2423254155473L42.14645305265665,124.52919970727551L42.77717869216681,118.72413311068632L42.979088207409376,114.46432470813248L43.10594201580524,111.40717018028647L43.96363868983984,110.98059734421408L43.99540046106339,110.5702740411258L44.05789319551945,109.92177082776746L44.26057581675529,109.71144387118379L44.32706293217659,111.47232780725814L44.453079209079746,111.34246404095632L44.475628133883475,111.1422913255655L44.60074245379448,111.65655676669955L44.89246111525536,113.04204098739285L45.091020504527094,114.72461703936432L45.09108493002653,115.92475130578542L45.143076308074,116.09365042086725L45.24622153267622,115.84627706110236L45.41701353168964,115.02056767947624L45.62407708688736,113.66602805085583L45.70003475072622,112.89259164598336L45.71105151113033,113.05858673191352L45.82721068661928,113.71955335658552L45.88454938112021,113.65916971111209L45.986985925228595,113.82291277320003L46.04509772572279,114.87240068074595L46.124147813534734,116.36987797556083L46.173175618608,117.38551857487283L46.44266748276234,114.29411543707565L46.534344968464374,111.10341652999514L46.54903398233652,109.24760899766802L46.7721394868946,108.0321352370775L47.00271834938764,104.06173992798048L47.05007109147549,102.09620428612243L47.2302047879076,101.56369487471736L47.41839167176962,100.1930291631875L47.43346723863841,98.47393872374575L47.92741754283905,95.11745980315625L48.0304339164424,92.59348435748528L48.50170644484043,92.85206167533894L48.61850987532377,93.01117782723114L48.61857430082321,92.81439659973123L48.661739385447504,92.70960049909574L48.73698836879253,91.5082773801878L48.8231252615428,89.8931182149903L48.92549738015175,89.04451283317924L49.00480516996145,89.47493994722376L49.118580601971146,89.71307905759606L49.57741900897741,89.09896885693864L49.762835596363544,87.42074373028036L50.013257512683865,88.06712627729502L50.09552887546778,88.24559177298296L50.504566371407506,87.32289589635462L50.7339211494112,88.12906191962311L50.764974240140916,90.80784822666317L50.9357018136549,92.9529625028818L50.93576623915433,94.618182437211L51.899507285265926,95.7973571018312L52.41594208877087,94.25094748007668L52.44589994601011,93.42962825878217L52.880321088728905,89.55317824266997L52.92251979086161,87.34248991286582L53.28542862920284,81.15756732931746L53.334520859775544,77.09340990742331L53.58513605259418,74.32755975555081L53.66096486543417,73.19443012647253L53.845028517332075,75.11082242836463L53.99571976052046,76.03063066109333L54.08430482224941,76.55213320164502L54.13017577785015,76.7374193962942L54.32892844362021,77.91201517967549L54.51080162853718,80.10100990842218L54.71870271522761,83.37650824762964L54.749691380457875,85.24909003956911L55.05545480079651,86.44217933680217L55.13321637861967,86.18588251061523L55.240484835186,85.96875788393659L55.3054901641202,86.71247214509596L55.473383015658854,86.86765891010474L55.66156989952087,86.17579773450281L55.74777121777058,85.61384304858659L55.75472917171002,86.36296592689963L56.24210807496786,86.01687113594436L56.38551923671961,85.83527834992682L56.42713810935736,85.40982753056305L56.99511331241369,89.8143780726213L57.11835929284096,93.75448619092931L57.2824510399127,94.93477876536083L57.48925689311266,94.82869367649708L57.6856902409029,93.03460305861228L57.73394493998289,91.25229307119749L57.75855548076868,89.73788050257966L57.84353271452903,88.91127160795497L57.96896916193724,87.24558390638676L58.5259920300889,85.64004705045052L59.17945987090111,77.65730500148075L59.21888827655792,73.19185693513302L59.49379188266516,71.51843982902972L59.575934394450194,70.15307035431387L59.84052992064714,66.81557653183829L60.82527367957592,60.924904282283755L60.88055075809479,59.10096214190163L61.10893915360689,56.22453189072057L61.215627780678275,54.449645492959654L61.234762154011726,54.315423700280235L61.71724471931219,53.731418799988624L61.96392995666504,55.18020909703168L62.01791852519512,56.94157837157452L62.12815055473566,61.42569186303308L62.1282149802351,64.19230102607338L62.466899830787185,64.40215008738106L62.47991378167391,63.61694535447185L62.75108070881367,64.1581023621062L62.8146686767602,64.46027349276574L62.880189409689905,65.27943381953665L62.93063457575083,66.0211514347482L63.173840836133955,68.09834915881068L63.210370094316005,69.2944520108002L63.3277533542943,69.97759191381465L63.665278545856474,67.72007394833383L63.7103119699645,65.76012369471981L63.89540642985344,64.77609627659149L65.79467015332223,59.175850470065L66.07131324791432,55.88586010972276L66.32804886317969,53.972932973425614L66.62885152006149,53.98062704013934L66.74778099202634,56.30944148907626L66.89808568221807,58.60028422681303L66.92475783898593,59.64921701606646L66.97700691903114,59.69499403558942L67.00528971328497,59.70765152669305L67.15288853250027,60.45977827784969L67.35995208769798,62.66789419298568L68.0142574600029,63.93613218397482L68.52057746009588,69.63563987244397L68.78343349780798,72.01825902865868L68.83948368232012,75.59052068620089L69.38375030158282,73.46818884911592L69.46937179033756,71.38487209993241L70.31540744897364,68.9729573206429L70.92519480116606,64.65608135942264L71.12304550994396,60.05195435717642L71.20666980821609,56.50112121647054L71.70848002334833,55.57110549035108L72.03479517800808,55.41985314603065L72.66854881599188,57.99565540715952L72.72157100203037,61.170376721134595L72.75249524176121,63.71525407372753L73.54190088639021,70.00568723929081L73.64214696351767,73.28448886448537L73.84386320226193,77.56401538186546L74.0048625253606,78.57230916274207L74.02882881115198,79.82679018004394L74.41396444679975,80.43219355627942L74.56581534897805,81.13427490225878L74.67553197452307,80.27491946867461L74.68732184092045,81.04348539391317L74.96022825654507,79.43244971168909L74.9957267067361,79.26934868068787L75.21251851234913,79.59423524042917L75.25168921600819,79.74649609922325L76.10867720954894,71.9849308876507L76.36012993386029,67.56800654446795L76.36019435935975,65.03135564632981L76.54780141372682,61.05531241639593L76.60997202068567,59.43618659749726L76.76710581381798,58.63034299104084L76.95033193422317,54.71330802622592L77.31704187703133,49.91293008928541L77.49620919097185,47.026867438890676L77.52410543222904,44.55006835262502L77.71905699353218,42.177544622327765L77.81685490168095,40.66247603189996L77.94499722006559,38.057276529669295L78.32710485723973,39.08471748424786L78.44519679771184,42.67481695551417L78.4781182279253,45.33972352044151L78.57108422361613,46.3428208034638L78.73723758666992,43.980368740995196L78.79715330114841,41.9112706135634L78.86873003102542,40.79944125019762L78.92619757652521,40.04400950578099L79.06265078433752,37.963851643041984L79.3061147467184,37.67656251126176L79.4569992664051,37.93660614161516L79.53405216373444,38.259849641576L79.62721143592357,38.81852024890995L79.9641567979908,37.443005389835434L80.00545354313135,36.70517310769693L80.10711698124646,36.81601328918471L80.18603821805954,38.71913804955976L80.21631820279597,39.95779858279049L80.49341227588415,39.983809889919016L80.53419361702919,39.73815271812063L80.54662773842097,38.90783611177908L80.70614527503251,38.520478672232194L80.83100189294576,37.92316696872541L80.90348057981491,36.11707251047904L81.13431714430571,34.12246206022852L81.27296081909896,34.00044308378095L81.75467027840614,39.29895089850725L82.30995365807294,42.47201612161617L82.48931424851179,45.63104932369225L82.86362640025376,47.70298944137113L82.89210247100591,49.01466350853571L83.26873394072771,51.567227716039426L83.9047424711919,52.92736632659386L83.97786541305541,53.75595408641819L84.21707729247332,57.882606644116905L84.63268618935585,58.59328825664043L84.67230787151098,59.8421256335938L84.84625671999693,60.57602094469652L84.91764017337562,60.888017942408815L85.13307904350042,60.128491332008096L85.42544195995569,59.520335919553794L85.67496191928387,57.410425724968626L86.19506897625685,50.17065528592777L86.50147665158987,45.48046451800326L86.84048362963914,42.84477647933001L87.60379694699526,43.28132250479008L87.63104893325806,42.85846477426071L87.81092492769241,44.64654605873229L87.98783734915257,45.5436580978924L88.00252636302471,45.40907701969079L88.03022932778359,46.07105310785672L88.22556744208336,48.16697575701817L88.23761501047849,51.62645130826136L88.26525354973793,53.70197316010866L88.28013584010839,54.93999449543649L88.42212964087248,55.45988068454084L88.4594320050478,54.24354070991037L88.87330141344547,56.579752623916406L89.49822875800609,57.19916538319628L89.58172420527936,57.258426455029415L89.91287127239704,54.4929942545966L90.02909487338543,52.433381280600024L90.14357898588896,51.49723021879836L90.4738240960145,48.49509573785062L90.55287418382645,45.91173199822233L90.59803645893335,44.673063943652934L90.7005374285412,45.26182748682151L90.92982778104543,45.50702914523385L91.35510050284385,49.85187184865803L91.41127953835488,53.04280429382469L92.11783399070501,54.441637187858355L92.81040810967684,57.364950501512794L93.10650770509959,56.6917703662107L93.29012037850141,57.21188820320775L93.4761167953825,56.610775031165325L93.56882508907556,56.327552942786554L93.6437519449234,56.55277286381511L93.67635124763966,56.60807159276401L93.86647089648486,55.274360575558624L94.05678382182838,57.088013498013986L94.2811134108758,57.23944031724563L94.4861797755909,58.7794443099394L94.67224061797143,58.96882805623491L94.7594083187127,58.299832379628775L95.31230795490026,54.10858694836233L95.47401595849276,49.8528418557902L95.87512911800145,45.44219431458195L95.8751935435009,42.75947029125519L95.89007583387136,41.23024281932635L96.02459627670049,40.553482993287574L96.08657360716104,40.16270157891015L96.31122532370567,37.35466154179442L96.9016850260663,31.37592544409413L97.15842064133167,31.314109318999396L97.2995124851036,30.943060014603276L97.50560965780973,30.507963384878234L97.75519404263734,29.585081135226933L97.8015804022336,29.49905566090224L97.96973095577002,30.465667154188516L98.20971594118119,30.850273681786476L98.50356064412355,32.44986800815093L98.85016983110665,32.969921887782554L98.88154504933358,32.7698272627726L98.94229829530478,32.66727815245795L99.27905038087368,33.74580734222951L99.8635829372859,29.69642902798678L99.93000562720775,28.060242247194505L99.9985543586111,26.32679868166982L100.03869144476175,25.432642086146117L100.11155668462753,26.8135520322991L100.18351996750117,28.103965987226516L100.24929840242862,28.989484884509046L100.6766327402091,27.899511210478426L100.96416374420643,26.159971598002375L101.18095554981947,28.253950768605335L101.28654894340038,30.996367628554957L101.83783794210196,35.297116044300374L101.87249886080026,37.76586890738357L101.88119630322457,39.3726785883986L102.02840856944323,40.64764574107196L102.07189578156472,42.076664980892616L102.29880239058973,42.05905109309128L102.3587181050682,40.35445272262622L102.74076131674289,38.20855665264908L102.80370502969504,36.88842810419195L102.80376945519447,36.158355745312384L102.87946941703558,37.234083748219724L102.90904072127819,38.220938518490044L103.43732981667995,37.308058470823L103.68208228904962,36.06323791140707L104.260623274014,32.950509799817816L104.30713848460913,30.190592766095936L104.56767520434141,29.19393752151161L104.74510302979708,31.976971773180775L104.84554238342285,32.62874444773743L105.33350111617564,36.16143448412717L105.50313345619917,40.29407214259083L105.60949995577336,42.96259933039838L105.76283264443875,44.340286256264584L105.96461330868244,48.39767636433038L106.02240298167943,51.33891969099193L106.33731482293844,53.33611108929215L106.46178488785506,55.010584438854465L106.5935350342083,56.9231253783431L106.82366291820526,58.04862964284118L107.00508512462616,56.649992625870595L107.7218188058877,50.77653325342431L107.75106798263312,46.26932020963861L107.9708877867198,43.73123500073922L108.18072163839341,40.13086318649784L108.34107670649766,37.14772433632537L108.49428054416418,35.35905632218533L109.29889060666083,35.749534529789244L109.936509774611,35.59809145077362L110.02316207135678,37.43646784669843L110.18164879997731,36.5528425869313L110.27873802763223,36.824324766861295L110.65150396738768,40.13648391611306L110.95539904824257,38.350890002713825L111.41533268873931,39.49979918265021L111.65795911962748,42.09373554983545L111.99915656465768,43.203102878179L112.34325315716266,43.997051126104445L112.4976166538191,42.71401698466743L113.01701503029823,35.91460119702147L113.07802597826719,31.890929366931804L113.15134219662905,29.369126308502352L113.18258856385708,28.382144245305426L113.22452956399202,29.557100211458213L113.77388579771042,28.629721565763038L114.59563304305792,27.284511776949856L114.6269438357854,27.74856697435596L114.76855108355284,29.0737585652534L114.910995862813,30.586286786158393L115.94785985078812,31.762964014031596L116.01975870816231,32.52394861281653L116.45669244535922,30.107493348347905L116.65795770560742,27.421738223047335L116.71690703759432,27.393063168370315L117.02724466839312,26.775242831001954L117.08658055337668,25.180167706001267L117.32134707333327,24.283313710772926L117.49130154085398,24.603385334262956L117.74397834965467,25.05366944706151L117.96759925820827,27.418652352807218L118.44119110458612,32.85465793149167L118.60663578714609,36.46291674099961L119.08035648452281,37.03389724389849L119.32787925336838,37.00919472802258L119.53642459505319,38.17812083899013L119.56870177027226,39.120031078147676L120.17211099802017,37.96102388340419L120.21199038217306,35.93662248688346L120.32802070666312,34.27052695912751L120.39933973454237,32.22129193014563L120.61606711465598,29.01094804169496L121.23455190927268,28.881029339757465L121.28003631187677,28.67979035296556L121.36507797113657,29.54715660733279L122.14275817486762,31.295136325279863L122.26742151628255,33.19851780992025L122.38622213724852,33.050543965115054L122.38628656274796,32.961975573758444L122.4341547088313,33.950528250048166L122.5710588951397,35.39444105839772L122.73373328122378,36.902076364146446L122.92114705909252,38.71669213965701L123.00509348486186,41.10041805963212L123.03466478910447,44.13225329701592L123.1936669217205,43.92612849106181L123.39686494695188,42.736336765831396L123.4236659547186,42.04948818559545L123.52313892585278,41.885108174525605L123.5932982947421,42.70713163483358L123.94525479817867,43.98667921344249L124.09671914736032,43.79927766858401L124.48861946044921,43.84099425857219L124.66778677438974,43.3871050677513L124.82492056752206,42.47497066514509L124.94816654794931,40.537983666870986L124.97799555418968,38.47623186338776L125.6109760861802,36.45285961690382L125.62373233506918,37.33543772144244L125.66225878373385,39.476701454234444L125.78144595769645,39.24288878197131L126.11433251329899,39.333556763783875L126.11497676829339,40.26253881548208L126.144548072536,40.736893104025576L126.17450592977524,41.94531567980348L126.20523689300775,42.39874132392292L126.40154138979912,43.1335160217061L127.23881518051148,43.458699470294356L127.50521462069274,43.45540167764241L127.85414312565565,40.97545303967945L128.31749131762265,36.56029238813189L128.43745159757853,32.204167844724026L128.64432187627793,27.763570158844157L128.72878370604278,25.046571341956437L128.8588587894106,23.197951905220197L129.49931267933607,22.778661195409207L129.78246274937152,19.91086301102775L129.81222733011245,18.148080572732116L130.48012648279905,19.716209179595925L130.99875175328492,24.90605097554357L131.2528459230733,30.685642974219757L131.40746712172745,33.54057438809376L131.69409616873264,31.979797347621886L131.72263666498424,31.018544020896996L131.89607010947466,31.667291539164523L131.92924924168585,31.54818236552722L132.02054017439127,32.41436396473753L132.71710867432833,37.59842818399667L132.75228499702214,42.56540403210002L132.8152287099743,45.601132267899445L133.04993080443143,45.018985230392786L133.07969538517239,44.560591807842734L133.1114571563959,43.442084834562635L133.11577366485832,42.771202735136086L133.8084122093296,46.87665962641701L134.0883410043931,47.080177283413455L134.12209996609926,47.09312098741484L134.24734313700915,45.54906530679685L134.3134436994338,44.34597008080388L134.42547964295863,44.322013616994404L134.5768151411414,42.46723131199008L134.7765986149025,39.90753666199634L135.07868978177308,35.68850061014095L135.44990950954198,32.84257025411822L135.55853090159653,30.40047358837944L135.6538162152672,28.89558583630153L135.72726128462793,27.478342400940694L136.27371837087153,23.530330309263096L136.43600620395898,20.955817247656018L136.96004321639776,20.763814015175765L136.9601076418972,21.379325738486262L137.03271517976523,23.280109263880334L137.0595806130314,24.59607551905295L137.1100257790923,25.48515531578103L137.26690187022686,25.953773014733596L137.76220510991573,31.612066891877408L137.93744246839046,37.13496475996473L138.50863894641876,38.86395754451519L138.73006938799145,39.24155238036318L138.76357064769982,40.30755183479913L139.12409574256182,40.69232183407478L139.2670559258175,38.35538684323092L139.61649983477594,37.47693821176381L139.78858034377814,35.13759131475985L139.8431487418032,33.05568763457705L139.91826887414933,31.6219561583582L139.97908654562,31.305195159863082L140.9898582063222,32.2671959509845L141.087076284976,33.61935426434265L141.12863073211432,34.50092667172454L141.30103336861373,34.396176552932324L141.42460147653816,33.84155727850913L141.49089531546116,32.63925070554954L142.06518421746253,27.72529309645016L142.5913472713828,22.244186222084295L143.39428227089405,20.42024984611001L144.31215236140488,23.62359404020757L144.50581541271924,25.910917289467655L144.83883081932066,27.28299661925657L145.24645095427275,28.595428602974845L145.82576504523038,28.27030593024587L146.14744156393053,26.045583194438468L146.35566477811815,23.323301055749276L146.62702498175622,21.658130499990413L146.91365402876139,19.520480919260212L146.9764044652152,18.954743056819737L147.03309890472173,18.50121057515483L147.03316333022119,17.497519930266247L147.35638606090785,17.457876532126583L147.56737957157137,16.896756944989214L147.7211632387328,16.549567022058884L148.8663264912653,15.310688260334091L149.70334257997987,14.456331070559822L149.94442279888153,15.401652419778411L149.97438065612076,15.969554666039501L149.98906966999294,17.255253400014496L151.79169514430285,13.235519445477875L151.94270851498842,10.549922861218812L152.00752056742428,9.774713209557694L152.22560088302612,9.005343934682687L152.56808683804513,7.995185890186467L152.71948676172732,10.469829316672552L152.86637690044878,13.162631898235485L152.99670968581438,15.96669399796345L153.17098066179753,16.25833915444236L153.19694413807153,16.349359784582855L153.8871345135641,22.9524186446364L154.03170533430577,30.486952656466563L154.6113415527606,33.426529832047684L154.6686802472615,35.35482844464663L154.69870253000022,36.54251696908882L155.3467586288595,32.65157046726752L155.43920922055483,31.087086882976237L155.48617540964602,30.50132608299717L155.90996634495735,27.94390385190291L156.03488738837004,24.97349505076048L156.0911308493805,24.08546700756674L156.15098213835952,22.707402585568133L156.70265769005775,20.966075311446748L157.60300404472113,20.21338797826317L157.71742373172523,20.320879580692495L157.96513977706908,18.128637797241428L158.0088202656889,18.243177878854556L158.09656779592513,19.236495395384658L158.23972125567914,21.751271668139488L158.38590271390677,24.915364364957732L158.57402517226936,28.124124947143798L159.21435021119595,28.76005715252071L159.25493827584268,28.85428226210069L159.4618729800415,29.432888732886497L159.67048274722578,28.63143136651833L159.6705471727252,28.13843483213843L159.7654459333992,27.995696343736146L160.08061547665596,26.919926336333408L160.37987192155123,26.373705276884493L160.47167825825215,25.7802299802186L160.5374566931796,24.821851525565297L160.8303350136304,22.510968492999226L161.03694759033203,23.506659353352852L161.06568136308195,24.03736830990777L161.20761073834657,22.879381820704523L161.26701104882954,22.214201199387766L161.33137212276938,21.199715069038298L162.17122293345926,21.106938118853776L162.59778416524648,20.558281280616775L163.10590807932377,19.90237614101052L163.21163032390353,19.4885925188915L163.32192677894355,21.26571485741059L163.632650962739,24.922721648860268L164.06687882895946,27.784844982408597L164.10778902110337,29.435987141279337L164.10785344660283,31.153949958021638L164.83940499273538,32.97856267278312L164.9105307441163,33.20664537828409L165.15869776795626,33.27255132859303L165.28522944885492,32.10526899301036L165.40493202681301,30.9719951300508L165.4380467335248,30.08427072366536L165.67358635947468,25.891417567624586L165.75991652872324,24.041552143624276L166.09679746529102,24.69426237428373L166.23118905712127,24.71381670840605L166.35952465200424,22.99393146243971L166.48773139588832,21.225987468139504L166.86455614210843,20.401062516643695L167.1248995853424,20.945364495908038L167.52047215189936,24.74051140534305L167.7272780050993,30.786010249033293L167.96082044056652,34.75524572103697L168.60919866692305,40.42299355694435L168.71653154898883,46.0703265933853L168.7881082788658,51.09276586625092L168.84834612084148,53.28942407774249L168.90587809184075,54.58521363499107L169.0898128927398,51.969260250684506L169.12621329992297,51.96525160412706L169.44621475563764,50.24184852914898L169.6421971249318,48.27031072163798L169.6681606012058,46.31879662197025L169.90872541611196,45.431335896338815L170.05013938738108,47.836491987689605L170.34250230383634,48.45785433176065L170.74735214231254,45.738363497306786L170.98398700175284,46.668923127027824L171.08945154433488,46.27181110856187L171.18628306999207,45.21766081300345L171.21714288422345,45.48679686022645L171.3027643729782,46.90811474059061L171.5319258744836,45.37246025273775L171.7172780363703,44.524139543207376L171.95578123529435,41.408892487303405L172.96436242901564,29.784921358247246L172.99438471175432,22.333945254670876L173.083807304976,18.760093788154226L173.37075847947835,15.293923378974073L173.52653933712244,11.230296740792824L173.98125451216458,10.165207788069235L174.3652949143219,9.749380225757001L174.68452326404332,9.402740208491457L174.815307027905,10.960729289344945L174.87573814637898,11.891796652771218L174.93500960586312,12.599375601004098L175.252691743598,14.305492661969815L175.3561590956974,17.11501872524482L175.57932902575493,20.21778179458965L175.6078050965071,21.19108913201048L175.98785111769914,20.147619507020075L176.18074106302024,18.755142486219878L176.21218070674658,17.850483108065426L176.97246602562905,16.873450512313582L177.59610486020088,15.225204170177854L177.77288843066216,12.82888811811868L177.8270058501911,11.42207928042787L177.9144956784296,11.62705966189319L178.7341168822956,16.007544270405877L178.9242365311408,22.5991249187432L178.96147446981666,25.767912537742667L178.9936872195363,28.66140948861824L179.12640374838114,29.027313897013446L179.19533903278113,29.24348825983723L179.59683874528645,30.935384894837163L180.0370581829548,31.622855641841433L180.55806719691992,31.50374172578017L180.64826289613484,30.748111100857294L180.9596313349247,29.400200868644674L181.2427169794607,24.611847801299316L181.68641539409876,20.383540370090227L181.8711877264905,18.119362094585245L181.99159898494244,17.58487514460252L182.4749190817356,20.77801075985795L182.53831377318383,23.374957558745802L182.59545919118642,24.084300013271346L182.92267630283834,22.08927034942225L182.95340726607085,22.484037333578488L183.01370953354598,23.74021621761588L183.11215169668912,24.03739792782969L183.19989922692537,25.570095699548595L183.4051588681388,29.641229725349216L183.58245784259557,32.410516304237944L184.20867369714497,32.56028474913467L184.37431165620328,32.37422428025564L184.60933587815762,32.5317668013036L184.6099157076526,33.4916508990541L184.67273056960582,33.24271001830822L184.7492036374402,34.26930781336985L185.14155492902515,35.668293400768015L185.26119308148384,34.979934346884946L185.3492627392173,34.551934377016295L185.40995155968903,33.1857234058671L185.72492782644747,31.616004988370342L186.21597898317336,31.71936548050523L186.49951560620545,28.72651020267656L186.7169516668129,25.572558825002083L186.83884471175193,23.66566613698676L187.11870908131598,21.08008463830366L187.30296600971224,20.53013344393825L187.3597893002176,19.399992124154036L187.53728155117273,16.717378429367525L187.70878223068,14.760278750062342L188.03374444985153,13.625383427467014L188.23707132608175,11.463753074333939L188.40992494107724,10.07155611526926L188.51783765263798,10.773451615228009L188.5764004316282,10.245751218523012L188.62330219522,9.72871201979116L188.68972488514186,9.473207663981226L189.43048927769422,8.450678492941723L189.43055370319365,8.70489464623121L189.5476792611742,9.769254113643681L189.57596205542802,10.272873237910686L189.8883613022089,11.815016736063608L189.91625754346612,13.559807131264352L189.91632196896552,14.702813129795947L190.39358606881143,21.321759481505264L191.04795586661578,28.18356993869097L191.13718518333914,33.99030008109127L191.16894695456264,37.475467096284255L191.22738088255406,39.795857256509L191.9165404500556,37.77673090725889L191.91660487555504,36.51798810445124L192.0040302782941,35.772686875015566L192.00409470379353,35.254062774144096L192.59584291614294,34.16726422131133L192.62393243389843,34.36027229130291L193.010356579535,30.881342715767154L193.32990705675363,26.509166869062412L193.73546557572365,23.073031939006864L193.84640628575804,21.807801668067754L194.05991239089968,20.571360642631657L194.19849164019348,19.31537648272229L194.22677443444726,18.471231014964125L194.35266186035156,17.228163338204894L194.45078189599752,17.45154285453085L194.7587357833171,14.085838978454051L195.06997537110806,11.204302969598716L195.24057409362314,9.917082841346417L195.45743032473564,12.918220054759326L195.50587830031395,15.31875889851895L195.52739641712665,16.687601827474364L195.73761682179688,18.541131857860723L195.7747259094739,19.736679635530695L195.8103532106638,21.336627791344L195.96639177030562,22.193598809678246L196.41356916191341,26.40977033374275L196.99546027284862,28.63436610219713L197.9459296660757,27.049877785875037L197.99044768618822,26.161689256494903L198.0180217999482,26.347466391347222L198.08160976789475,26.46824788497314L198.3922051006913,23.70392605881538L198.60139469737052,21.5034343437355L198.77721188534022,20.25144264924088L198.83313321885348,19.24486891681939L199.13458013072966,17.640458493793492L199.13464455622912,17.134344029201614L199.27489886850836,18.401010467608543L199.45799613791465,19.987837247817446L199.96579792449472,25.334548392931474L200.18568215408087,27.510153398505473L200.521145729661,27.25954275170728L200.55007277890923,28.005417038054155L200.6746716948247,28.437815184977442L201.0066562934351,28.226212760527176L201.03532564068556,27.66492797078728L201.0777176193166,26.569288049489558L201.44906619808435,26.92782366296599L201.47805767283202,27.210335351378863L201.62011589909554,25.549557291393125L201.7629472313523,24.553904765387312L201.79123002560615,23.592337784765164L202.1685701758218,20.373510735319208L202.17952251072646,18.441523575966862L202.45191352235554,18.807577066570037L202.48225793259144,19.812203987091795L202.96821947486163,23.850967292840465L203.4300214548421,27.069417484315164L203.61356970274448,28.113629996654282L203.6541577673912,29.576071380380423L203.68224728514673,31.17225113915669L203.80130560811043,31.2856614266566L203.87919603693246,30.851259830969724L203.98865496047975,30.017955376154163L204.95864528003693,32.64476882275782L205.03879060133934,33.538298559345016L205.24772249602077,31.720628711736133L205.30718723200323,31.858222177046937L205.48970467191458,32.068427515497994L205.55355034185885,31.67649534232362L205.6943200581336,33.93789324311455L205.92966640758516,35.595002621779955L206.25817202922582,36.260601634546575L206.3023034963417,38.89403282584819L206.76236598783734,36.74248518634497L207.15626349140882,37.863715512538754L207.16264161585332,37.891699101062L207.21321563291312,39.642728932008865L207.92131629724977,35.14592791254959L208.21413019220114,32.440086679950255L208.6194954346728,29.798688289321856L208.88557274735692,26.174237163480782L209.09895000149965,22.947490324555485L209.30562700370072,20.474207377187412L209.44813620846034,18.469295133481506L209.47622572621583,16.77645396468314L209.64295891876458,13.580064135942427L210.44376787679434,14.382901590881668L210.54491591091394,14.314839950280469L210.76557324649335,16.182776417342158L210.79514455073596,17.937349072086317L210.7952089762354,19.859035447794376L210.981720797112,21.807097593898746L211.60806550266028,27.90729128135956L211.70960008977653,31.294971451518116L212.39669804129602,32.0081321092248L212.5044174763584,33.2248419503201L212.82151978459834,31.642671664834253L212.97105136879682,30.093950977898928L213.11652414653062,28.601345604988698L213.54263439982174,28.661301121214077L213.7505999120116,27.227938428067166L213.82391613037348,25.72581888145437L214.22464273688553,26.407454723305875L214.25498714712143,27.561677921641152L214.4364737790418,27.062062021660964L214.62775308687688,28.223047384630565L214.6961085417819,29.105924349658242L214.75016153581143,30.026284899211852L214.8817828311658,32.35418434983411L215.03949645379305,35.00931055370279L215.10359982573507,36.51123907876739L215.32374175731897,36.45547708741991L216.0391225030923,36.23643124406534L216.1492901071334,36.69739574556272L216.34243775445222,35.37763693089392L216.5864815463281,33.10458262328323L216.72422326412917,31.484846956713497L216.90487236455678,28.163690403116405L217.1492382839298,25.608659904736292L217.2978034856367,22.511296602152647L217.35952311409952,21.31198235678491L217.8599803937435,18.699875712779534L218.51447904254672,15.37003776245207L218.60493244375942,12.80613403109833L218.85174653211118,11.400487305855629L219.01364781220198,8.44317522404102L219.04495860492946,7.0987744924469185L219.15828305844306,5.1437287201772905L219.48962340205907,4.704733849707168L219.89247605005264,4.422095769506779L220.1856120725012,5.084953642240172L220.48551277239085,7.118086591743287L220.72485350280763,7.263342448043269L220.85447760767937,8.559166403089055L220.97546869562626,9.37171311958944L221.92336106887578,15.209202234028721L222.044545433321,18.260370562164688L222.88974356046438,15.31980726862251L223.00268146098136,16.615491993167474L223.03186621222736,18.242999269800404L223.09203962870362,18.370721194078307L223.09210405420302,17.942118185658863L223.667359338696,16.72162766759156L223.70627234035732,16.54017087893335L223.76676788433073,18.125888223891565L223.93292124738454,18.609016360941272L223.95411723670006,19.439810989164528L224.06673300971985,18.364152535670073L224.18952801165105,16.277835943978122L224.39607616285326,14.520822164006901L224.4211376821351,13.924058699474125L224.48536990507603,13.565648986897015L224.64540284568312,16.638293360173734L224.968367874372,21.10778292723669L225.06101174256563,24.643533617037857L225.08774832483292,25.983980557491392L225.93500806795834,25.643674346791855L226.1982506586671,23.902893846478868L226.2583596496439,22.234411167671784L226.43552977310182,20.86294623525093L226.60831896259785,20.998540973975402L226.6359575018573,21.862628614849275L226.713654654181,22.029231426410362L226.7142989091754,22.92503306795197L226.7831053425765,23.460317883521736L226.85751679442882,23.711945466286675L227.06213218064786,23.56039351824917L227.19375347600223,24.457115488755882L227.35301331061603,27.74634430967511L227.47819205602647,29.917370280790177L227.50814991326573,30.388162044109865L227.64672916255952,29.953057272329026L227.76321046554565,28.960552802686774L227.9708538502383,29.878482243309165L228.13507444830896,31.65752781678439L228.21406011062146,34.16947321623469L228.32223052417993,37.32774648702169L228.511448216033,39.754794165946095L228.8813794338131,40.75782225220015L228.94683574124338,43.02230586925949L229.00919962470053,43.61059710292643L229.29969420167208,42.531657085493734L229.32965205891134,41.0578301297569L229.47003522218944,40.00413280324089L229.6307768432903,40.08643440564276L229.69075698326824,39.19579936191477L230.0398787647295,38.05493629781021L230.07228479094744,36.70126539766036L230.10114741469621,35.824312875681755L230.13967386336088,34.7474889107637L230.83115274884224,27.799548257162474L230.86697332653046,23.977649073810458L231.16597206942797,21.36623157069863L231.35100210381745,20.492432894794256L231.57520284186603,20.339676451186172L231.81087131881478,20.10710994341482L231.9629799229908,19.265030267653604L232.4967451858449,18.77964669063451L232.67468841529606,18.58973644748518L232.83613871689082,17.637902340459185L233.0497092475319,19.99285207723049L233.8242326017904,18.493442255641135L234.14797073647262,18.760246065000736L234.23146618374588,18.976108584633046L234.26168174298286,19.09009868554984L234.3282332839036,19.993771213873202L234.46520189571143,23.565763088812993L234.59611451057194,25.036418362831302L234.68843625126837,24.940300868206446L234.85342995533227,28.091745827654933L234.88081079259393,30.67784229159685L235.03124433378457,31.001773641229125L235.64064513298035,29.13378137009685L235.69811267848013,28.086829117479223L236.03306085006474,26.60159033700433L236.04162944149016,25.688528558272502L236.11172438488006,24.469440964231804L236.2309759843421,23.772818666738775L236.29308216580154,23.211057885626502L236.3808941215372,26.266756112975173L236.78271596153976,27.399831447641155L236.87149429976702,28.086258987491384L237.05317420818568,24.966712202299657L237.32472768832207,23.308882389761898L237.38219523382188,23.224459685887222" fill="none"></path></g></g></g></g><g opacity="0.2"><g><g><g><path style="fill: none;" stroke="rgb(255, 112, 67)" stroke-width="2px" d="M34.91713890958071,187.9791168135299L35.144109944105146,176.54714990821796L35.20338140358925,172.9250961642056L35.224641818404194,170.67006259759845L35.41186231977463,160.39835470366233L35.48562951663256,159.06280535888538L35.568351857912546,154.99968384747262L35.58980554922581,155.09256415239284L35.687474606375694,152.32796632859728L35.74526427937269,150.6522613499975L35.79635370042801,148.46524527084824L35.89505356556892,147.89908777093427L35.911610918924815,147.90337138075458L35.99980942765713,148.70946693730468L36.05940301463842,151.0273278255107L36.14740824687243,152.97538710697907L36.14747267237186,152.98182216079553L36.165125259218215,152.70614622888985L36.20919230083465,153.01013408420735L36.27181388628959,155.0110483298717L36.28862894164324,157.64082040209075L36.343455041666026,159.9742850427205L36.372897494909765,160.6562330271697L36.3783736623621,160.89082042716487L36.40272650115013,162.4099182115442L36.528807203552724,167.26962824898106L36.54001724045515,167.4731199575264L36.553288893339634,167.05321149001261L36.58801423753738,164.5536943147868L36.694638439109326,165.27296580415324L36.72871952831269,164.27857841377798L36.74173347919941,164.122474379847L36.752299261107446,164.29535813469428L36.859889845170976,160.9613727532647L36.90402131228686,159.20382325931106L36.95994264580011,159.54114307403142L37.24579858681202,153.34640902200485L37.33071139507293,150.9474679979651L37.33670296652078,150.82515185220498L37.88335332926274,140.4435651251801L37.887283284728525,138.96604361046306L37.9964200807786,140.83416402388062L38.1200526142025,141.57393688526957L38.139960093529226,140.11631815533423L38.28085866080284,140.74581216156523L38.44385517438411,137.17170847259123L38.56020762637138,133.7090287621925L38.78382853492498,132.74712123601734L39.276361478137964,130.220369787195L39.33737242610693,130.41718450086512L39.70305156092405,127.58997117438567L40.04057675248623,117.23129655479299L40.22799053035498,115.9382517236606L40.259430174081324,116.08390988008874L40.33487243392467,116.02473360329117L40.455927947371,113.6280095690324L40.676649708449844,118.50119215697747L40.68618468236684,118.54472226937288L40.71504730611562,120.19579359978005L40.849245621447565,118.73088386519106L41.023903150427344,121.94642897734282L41.3699325079155,125.77866353387748L41.46560437458277,129.5116463496431L41.55309420282125,132.48940292133764L41.880246888973716,126.69014321771257L42.07732449175835,124.29082819713585L42.14645305265665,121.95951114486785L42.77717869216681,110.01653321580254L42.979088207409376,108.0746121043017L43.10594201580524,106.82143838851749L43.96363868983984,110.34073809010546L43.99540046106339,109.95478908649342L44.05789319551945,108.9490160077299L44.26057581675529,109.3959534363083L44.32706293217659,114.1136537113697L44.453079209079746,111.14766839150357L44.475628133883475,110.84203225247933L44.60074245379448,112.42795492840067L44.89246111525536,115.1202673184328L45.091020504527094,117.24848111732148L45.09108493002653,117.72495270541704L45.143076308074,116.34699909349L45.24622153267622,115.47521702145501L45.41701353168964,113.78200360703704L45.62407708688736,111.63421860792523L45.70003475072622,111.73243703867463L45.71105151113033,113.30757936080877L45.82721068661928,114.71100329359355L45.88454938112021,113.5685942429019L45.986985925228595,114.06852736633198L46.04509772572279,116.44663254206482L46.124147813534734,118.61609391778309L46.173175618608,118.90897947384083L46.44266748276234,109.65701073037988L46.534344968464374,106.3173681693744L46.54903398233652,106.46389769917732L46.7721394868946,106.20892459619166L47.00271834938764,98.10614696433498L47.05007109147549,99.14790082333533L47.2302047879076,100.76493075760975L47.41839167176962,98.13703059589275L47.43346723863841,95.89530306458306L47.92741754283905,90.08274142227205L48.0304339164424,88.80752118897882L48.50170644484043,93.23992765211942L48.61850987532377,93.24985205506944L48.61857430082321,92.51922475848134L48.661739385447504,92.55240634814254L48.73698836879253,89.70629270182586L48.8231252615428,87.47037946719398L48.92549738015175,87.77160476046265L49.00480516996145,90.12058061829053L49.118580601971146,90.07028772315451L49.57741900897741,88.17780355595252L49.762835596363544,84.90340604029294L50.013257512683865,89.03670009781698L50.09552887546778,88.51329001651487L50.504566371407506,85.93885208141208L50.7339211494112,89.33831095452582L50.764974240140916,94.82602768722325L50.9357018136549,96.17063391720981L50.93576623915433,97.11601233870482L51.899507285265926,97.56611909876145L52.41594208877087,91.93133304744491L52.44589994601011,92.1976494268404L52.880321088728905,83.73850321850165L52.92251979086161,84.02645741815961L53.28542862920284,71.8801834539949L53.334520859775544,70.9971737745821L53.58513605259418,70.17878452774207L53.66096486543417,71.49473568285508L53.845028517332075,77.98541088120277L53.99571976052046,77.41034301018641L54.08430482224941,77.33438701247256L54.13017577785015,77.01534868826795L54.32892844362021,79.67390885474742L54.51080162853718,83.38450200154226L54.71870271522761,88.28975575644083L54.749691380457875,88.0579627274783L55.05545480079651,88.2318132826518L55.13321637861967,85.80143727133482L55.240484835186,85.64307094391864L55.3054901641202,87.828043536835L55.473383015658854,87.10043905761788L55.66156989952087,85.1380059710999L55.74777121777058,84.77091101971226L55.75472917171002,87.48665024436923L56.24210807496786,85.49772894951144L56.38551923671961,85.5628891709005L56.42713810935736,84.7716513015174L56.99511331241369,96.42120388570869L57.11835929284096,99.6646483683913L57.2824510399127,96.70521762700808L57.48925689311266,94.6695660432015L57.6856902409029,90.34346713178509L57.73394493998289,88.57882809007528L57.75855548076868,87.46626164965294L57.84353271452903,87.67135826601798L57.96896916193724,84.74705235403444L58.5259920300889,83.23174176654615L59.17945987090111,65.68319192802612L59.21888827655792,66.49368483561142L59.49379188266516,69.00831416987474L59.575934394450194,68.10501614224007L59.84052992064714,61.80933579812492L60.82527367957592,52.088895907951944L60.88055075809479,56.365048931328474L61.10893915360689,51.90988651394893L61.215627780678275,51.7873158963183L61.234762154011726,54.11409101126109L61.71724471931219,52.85541144955121L61.96392995666504,57.353394542596234L62.01791852519512,59.58363228338877L62.12815055473566,68.15186210022095L62.1282149802351,68.3422147706338L62.466899830787185,64.7169236793426L62.47991378167391,62.439138255108055L62.75108070881367,64.96983787355775L62.8146686767602,64.91353018875505L62.880189409689905,66.50817430969306L62.93063457575083,67.13372785756552L63.173840836133955,71.2141457449044L63.210370094316005,71.08860628878445L63.3277533542943,71.00230176833637L63.665278545856474,64.33379700011261L63.7103119699645,62.82019831429872L63.89540642985344,63.30005514939902L65.79467015332223,50.77548176027528L66.07131324791432,50.95087456920946L66.32804886317969,51.1035422689799L66.62885152006149,53.99216814020993L66.74778099202634,59.80266316248163L66.89808568221807,62.036548333418196L66.92475783898593,61.222616199946586L66.97700691903114,59.763659564873834L67.00528971328497,59.72663776334852L67.15288853250027,61.58796840458463L67.35995208769798,65.98006806568966L68.0142574600029,65.83848917045856L68.52057746009588,78.18490140514767L68.78343349780798,75.59218776298076L68.83948368232012,80.94891317251417L69.38375030158282,70.28469109348849L69.46937179033756,68.25989697615711L70.31540744897364,65.35508515170866L70.92519480116606,58.18076741759224L71.12304550994396,53.14576385380705L71.20666980821609,51.174871505411694L71.70848002334833,54.176081901171926L72.03479517800808,55.19297462955L72.66854881599188,61.85935879885281L72.72157100203037,65.93245869209724L72.75249524176121,67.5325701026169L73.54190088639021,79.44133698763575L73.64214696351767,78.20269130227722L73.84386320226193,83.98330515793558L74.0048625253606,80.08474983405696L74.02882881115198,81.70851170599677L74.41396444679975,81.34029862063262L74.56581534897805,82.18739692122783L74.67553197452307,78.98588631829833L74.68732184092045,82.19633428177103L74.96022825654507,77.015896188353L74.9957267067361,79.02469713418604L75.21251851234913,80.08156508004114L75.25168921600819,79.97488738741438L76.10867720954894,60.342583070291894L76.36012993386029,60.942620029693764L76.36019435935975,61.226379299122655L76.54780141372682,55.09124757149507L76.60997202068567,57.007497869149255L76.76710581381798,57.421577581356225L76.95033193422317,48.83775557900351L77.31704187703133,42.71236318387466L77.49620919097185,42.69777346329855L77.52410543222904,40.83486972322655L77.71905699353218,38.61875902688188L77.81685490168095,38.38987314625825L77.94499722006559,34.14947727632326L78.32710485723973,40.62587891611579L78.44519679771184,48.05996616241361L78.4781182279253,49.337083367832484L78.57108422361613,47.847466727997286L78.73723758666992,40.43669064729226L78.79715330114841,38.80762342241568L78.86873003102542,39.13169720514893L78.92619757652521,38.910861889156095L79.06265078433752,34.84361484893349L79.3061147467184,37.245628813591395L79.4569992664051,38.32667158714528L79.53405216373444,38.74471489151724L79.62721143592357,39.65652615991088L79.9641567979908,35.37973310122367L80.00545354313135,35.59842468448915L80.10711698124646,36.98227356141641L80.18603821805954,41.573825190122335L80.21631820279597,41.815789382636595L80.49341227588415,40.022826850611764L80.53419361702919,39.369666960423025L80.54662773842097,37.66236120226677L80.70614527503251,37.939442512911874L80.83100189294576,37.02719941346523L80.90348057981491,33.40793082310952L81.13431714430571,31.130546384852753L81.27296081909896,33.817414619109655L81.75467027840614,47.24671262059668L82.30995365807294,47.231613956279546L82.48931424851179,50.36959912680634L82.86362640025376,50.81089961788945L82.89210247100591,50.98217460928261L83.26873394072771,55.39607402729495L83.9047424711919,54.96757424242553L83.97786541305541,54.99883572615466L84.21707729247332,64.07258548066498L84.63268618935585,59.659310675425715L84.67230787151098,61.71538169902383L84.84625671999693,61.676863911350665L84.91764017337562,61.356013438977236L85.13307904350042,58.98920141640702L85.42544195995569,58.60810280087233L85.67496191928387,54.24556043309089L86.19506897625685,39.310999627366456L86.50147665158987,38.445178366116515L86.84048362963914,38.89124442132016L87.60379694699526,43.93614154298017L87.63104893325806,42.22417817846665L87.81092492769241,47.32866798543962L87.98783734915257,46.88932615663257L88.00252636302471,45.207205402388354L88.03022932778359,47.064017240105635L88.22556744208336,51.31085973076032L88.23761501047849,56.81566463512613L88.26525354973793,56.81525593787955L88.28013584010839,56.79702649842823L88.42212964087248,56.239709968197396L88.4594320050478,52.419030747964705L88.87330141344547,60.08407049492547L89.49822875800609,58.12828452211605L89.58172420527936,57.347318062779124L89.91287127239704,50.3448459539473L90.02909487338543,49.343961819605155L90.14357898588896,50.09300362609584L90.4738240960145,43.991894016429015L90.55287418382645,42.03668638877987L90.59803645893335,42.81506186179884L90.7005374285412,46.14497280157437L90.92982778104543,45.87483163285235L91.35510050284385,56.369135903794295L91.41127953835488,57.82920296157472L92.11783399070501,56.5398865289088L92.81040810967684,61.749920471994436L93.10650770509959,55.68200016325759L93.29012037850141,57.99206495870333L93.4761167953825,55.70910527310167L93.56882508907556,55.90271981021838L93.6437519449234,56.89060274535794L93.67635124763966,56.691019686187374L93.86647089648486,53.27379404975051L94.05678382182838,59.80849288169702L94.2811134108758,57.4665805460931L94.4861797755909,61.08945029898001L94.67224061797143,59.25290367567817L94.7594083187127,57.2963388647196L95.31230795490026,47.8217188014626L95.47401595849276,43.469224216932034L95.87512911800145,38.82622300276957L95.8751935435009,38.735384256265085L95.89007583387136,38.93640161143308L96.02459627670049,39.538343254229396L96.08657360716104,39.57652945734402L96.31122532370567,33.14260148612083L96.9016850260663,22.407821297543713L97.15842064133167,31.221385131357238L97.2995124851036,30.386486058009066L97.50560965780973,29.855318440290695L97.75519404263734,28.200757760749955L97.8015804022336,29.370017449415176L97.96973095577002,31.91558439411788L98.20971594118119,31.427183473183373L98.50356064412355,34.849259497697595L98.85016983110665,33.75000270722999L98.88154504933358,32.46968532525768L98.94229829530478,32.513454486986L99.27905038087368,35.36360112688686L99.8635829372859,23.622361556622696L99.93000562720775,25.60596207600611L99.9985543586111,23.726633333382782L100.03869144476175,24.091407192860583L100.11155668462753,28.884916951528538L100.18351996750117,30.039586919617637L100.24929840242862,30.31776323043284L100.6766327402091,26.26455069943248L100.96416374420643,23.55066217928833L101.18095554981947,31.394919524509785L101.28654894340038,35.10999291847943L101.83783794210196,41.748238667918486L101.87249886080026,41.46899820200842L101.88119630322457,41.782893109921126L102.02840856944323,42.56009647008198L102.07189578156472,44.220193840623594L102.29880239058973,42.032630261389265L102.3587181050682,37.797555166928625L102.74076131674289,34.9897125476834L102.80370502969504,34.90823528150628L102.80376945519447,35.06324720699299L102.87946941703558,38.84767575258073L102.90904072127819,39.7012206738956L103.43732981667995,35.93873839932244L103.68208228904962,34.1960070722832L104.260623274014,28.281417632433914L104.30713848460913,26.05071721551317L104.56767520434141,27.698954654635084L104.74510302979708,36.1515231506845L104.84554238342285,33.60640345957238L105.33350111617564,41.460469538711806L105.50313345619917,46.49302863028632L105.60949995577336,46.965390112109674L105.76283264443875,46.406816645063884L105.96461330868244,54.48376152642908L106.02240298167943,55.75078468098425L106.33731482293844,56.3318981867425L106.46178488785506,57.52229446319792L106.5935350342083,59.791936787576034L106.82366291820526,59.736886039588306L107.00508512462616,54.5520371004147L107.7218188058877,41.9663441947549L107.75106798263312,39.5085006439601L107.9708877867198,39.924107187390156L108.18072163839341,34.73030546513578L108.34107670649766,32.67301606106671L108.49428054416418,32.67605430097527L109.29889060666083,36.33525184119519L109.936509774611,35.37092683225014L110.02316207135678,40.19403244058568L110.18164879997731,35.22740469728056L110.27873802763223,37.23154803675633L110.65150396738768,45.10472263999067L110.95539904824257,35.672499132614966L111.41533268873931,41.22316295255482L111.65795911962748,45.984640100613305L111.99915656465768,44.86715387069438L112.34325315716266,45.18797349799258L112.4976166538191,40.78946577251191L113.01701503029823,25.715477515552518L113.07802597826719,25.855421621797312L113.15134219662905,25.58642172085821L113.18258856385708,26.90167115051009L113.22452956399202,31.319534160687382L113.77388579771042,27.238653597220292L114.59563304305792,25.266697093730073L114.6269438357854,28.444649770465087L114.76855108355284,31.061545951599587L114.910995862813,32.85507911751587L115.94785985078812,33.52797985584142L116.01975870816231,33.66542551099389L116.45669244535922,26.48281045164498L116.65795770560742,23.393105535096502L116.71690703759432,27.35005058635475L117.02724466839312,25.84851232494942L117.08658055337668,22.78755501850018L117.32134707333327,22.938032717930447L117.49130154085398,25.083492769498015L117.74397834965467,25.729095616259404L117.96759925820827,30.966126711425844L118.44119110458612,41.00866629951841L118.60663578714609,41.875304955261534L119.08035648452281,37.8903679982468L119.32787925336838,36.97214095420868L119.53642459505319,39.93151000544147L119.56870177027226,40.53289643688393L120.17211099802017,36.222513091288945L120.21199038217306,32.900020392102306L120.32802070666312,31.7713836674936L120.39933973454237,29.147439386672755L120.61606711465598,24.19543220901895L121.23455190927268,28.686151286851125L121.28003631187677,28.377931872777744L121.36507797113657,30.848205988883695L122.14275817486762,33.91710590220048L122.26742151628255,36.053590036880834L122.38622213724852,32.82858319790726L122.38628656274796,32.829122986723505L122.4341547088313,35.43335726448276L122.5710588951397,37.56031027092207L122.73373328122378,39.16352932276952L122.92114705909252,41.43861580292287L123.00509348486186,44.676006939594764L123.03466478910447,48.68000615309158L123.1936669217205,43.61694128213067L123.39686494695188,40.95164917798579L123.4236659547186,41.019215315241524L123.52313892585278,41.63853815792078L123.5932982947421,43.940166825295556L123.94525479817867,45.90600058135585L124.09671914736032,43.51817535129626L124.48861946044921,43.90356914355445L124.66778677438974,42.70627128151993L124.82492056752206,41.10676906123574L124.94816654794931,37.63250316945985L124.97799555418968,35.38360415816299L125.6109760861802,33.41780124717791L125.62373233506918,38.65930487825036L125.66225878373385,42.68859705342246L125.78144595769645,38.89216977357656L126.11433251329899,39.469558736502734L126.11497676829339,41.65601189302938L126.144548072536,41.44842453684085L126.17450592977524,43.75794954347033L126.20523689300775,43.07887979010204L126.40154138979912,44.23567806838089L127.23881518051148,43.946474643176764L127.50521462069274,43.45045498866446L127.85414312565565,37.25553008273501L128.31749131762265,29.937551410810556L128.43745159757853,25.669981029612252L128.64432187627793,21.10267363002432L128.72878370604278,20.971073116624854L128.8588587894106,20.425022750115847L129.49931267933607,22.149725130692648L129.78246274937152,15.609165734455534L129.81222733011245,15.503906915288614L130.48012648279905,22.068402089891606L130.99875175328492,32.69081366946505L131.2528459230733,39.35503097223409L131.40746712172745,37.82297150890476L131.69409616873264,29.638631786914114L131.72263666498424,29.576664030809695L131.89607010947466,32.64041281656579L131.92924924168585,31.369518605071274L132.02054017439127,33.71363636355298L132.71710867432833,45.374524512885344L132.75228499702214,50.01586780425506L132.8152287099743,50.15472462159857L133.04993080443143,44.145764674132806L133.07969538517239,43.87300167401761L133.1114571563959,41.764324374642456L133.11577366485832,41.764879585996304L133.8084122093296,53.0348449633384L134.0883410043931,47.38545376890812L134.12209996609926,47.11253654341688L134.24734313700915,43.23298178586993L134.3134436994338,42.54132724181441L134.42547964295863,44.28607892128015L134.5768151411414,39.685057854483595L134.7765986149025,36.06799468700565L135.07868978177308,29.359946532357878L135.44990950954198,28.5736747200842L135.55853090159653,26.737328589771217L135.6538162152672,26.638254208184655L135.72726128462793,25.35247724789952L136.27371837087153,17.608312171746682L136.43600620395898,17.094047655245447L136.96004321639776,20.47580916645529L136.9601076418972,22.302593323452008L137.03271517976523,26.13128455197148L137.0595806130314,26.570024901811845L137.1100257790923,26.81877501087313L137.26690187022686,26.656699563162476L137.76220510991573,40.099507707593155L137.93744246839046,45.41931156209569L138.50863894641876,41.45744672134085L138.73006938799145,39.80794463413519L138.76357064769982,41.90655101645305L139.12409574256182,41.269476832988275L139.2670559258175,34.84998435696513L139.61649983477594,36.15926526456314L139.78858034377814,31.628570969253953L139.8431487418032,29.93283211430285L139.91826887414933,29.471358944029937L139.97908654562,30.83005366212039L140.9898582063222,33.71019713766665L141.087076284976,35.64759173437986L141.12863073211432,35.82328528279737L141.30103336861373,34.239051374744L141.42460147653816,33.00962836687436L141.49089531546116,30.835790846110147L142.06518421746253,20.35435668280115L142.5913472713828,14.022525910535471L143.39428227089405,17.68434528214857L144.31215236140488,28.428610331353934L144.50581541271924,29.341902163357844L144.83883081932066,29.34111561393989L145.24645095427275,30.56407657855224L145.82576504523038,27.78262192115238L146.14744156393053,22.708499090727337L146.35566477811815,19.23987784771556L146.62702498175622,19.16037466635212L146.91365402876139,16.31400654816492L146.9764044652152,18.106136263158984L147.03309890472173,17.820911852657442L147.03316333022119,15.991983962933388L147.35638606090785,17.398411434917108L147.56737957157137,16.05507756428311L147.7211632387328,16.028782137663377L148.8663264912653,13.452370117746922L149.70334257997987,13.174795285898387L149.94442279888153,16.819634443606315L149.97438065612076,16.821408035431098L149.98906966999294,19.183801500976962L151.79169514430285,7.205918513672908L151.94270851498842,6.521527984830226L152.00752056742428,8.61189873206603L152.22560088302612,7.851290022370196L152.56808683804513,6.479948823442096L152.71948676172732,14.18179445640167L152.86637690044878,17.201835770579883L152.99670968581438,20.172787147555407L153.17098066179753,16.695806889160725L153.19694413807153,16.485890729793553L153.8871345135641,32.857006934716736L154.03170533430577,41.78875367421175L154.6113415527606,37.83589559541932L154.6686802472615,38.24727636354509L154.69870253000022,38.32404975575211L155.3467586288595,26.815150714535505L155.43920922055483,28.740361506539287L155.48617540964602,29.622684883028594L155.90996634495735,24.107770505261467L156.03488738837004,20.517881849046855L156.0911308493805,22.753424942776153L156.15098213835952,20.64030595257021L156.70265769005775,18.354084400264718L157.60300404472113,19.084356978487833L157.71742373172523,20.482116984336496L157.96513977706908,14.840275122064789L158.0088202656889,18.414988001274253L158.09656779592513,20.726471670179823L158.23972125567914,25.523436077271715L158.38590271390677,29.66150341018511L158.57402517226936,32.937265820422915L159.21435021119595,29.71395546058608L159.25493827584268,28.99561992647068L159.4618729800415,30.300798439065268L159.67048274722578,27.42924531696606L159.6705471727252,27.39894003056854L159.7654459333992,27.78158861113271L160.08061547665596,25.306271325229318L160.37987192155123,25.55437368771112L160.47167825825215,24.89001703521976L160.5374566931796,23.384283843585376L160.8303350136304,19.04464394415014L161.03694759033203,25.000195643883288L161.06568136308195,24.833431744740146L161.20761073834657,21.142402086899633L161.26701104882954,21.216430267412633L161.33137212276938,19.677985873514064L162.17122293345926,20.967772693576983L162.59778416524648,19.735296023261192L163.10590807932377,18.91851843160111L163.21163032390353,18.867917085712953L163.32192677894355,23.93139836518925L163.632650962739,30.40823183603476L164.06687882895946,32.0780299827311L164.10778902110337,31.91270037958539L164.10785344660283,33.73089418313507L164.83940499273538,35.71548174492531L164.9105307441163,33.548769436535494L165.15869776795626,33.37141025405642L165.28522944885492,30.354345489636348L165.40493202681301,29.272084335611513L165.4380467335248,28.752684114087184L165.67358635947468,19.60213783356344L165.75991652872324,21.266754007623856L166.09679746529102,25.673327720272937L166.23118905712127,24.743148209589492L166.35952465200424,20.414103593490186L166.48773139588832,18.574071476689166L166.86455614210843,19.16367508939999L167.1248995853424,21.76181746480454L167.52047215189936,30.433231769495503L167.7272780050993,39.85425851456863L167.96082044056652,40.70909892904248L168.60919866692305,48.92461531080543L168.71653154898883,54.54132614804672L168.7881082788658,58.6264247755493L168.84834612084148,56.58441139497985L168.90587809184075,56.52889797086391L169.0898128927398,48.045330174224674L169.12621329992297,51.95923863429094L169.44621475563764,47.65674391668187L169.6421971249318,45.31300401037152L169.6681606012058,43.391525472468594L169.90872541611196,44.100144807891674L170.05013938738108,51.44422612471577L170.34250230383634,49.389897847867225L170.74735214231254,41.65912724562597L170.98398700175284,48.06476257160933L171.08945154433488,45.676143080862985L171.18628306999207,43.636435369665776L171.21714288422345,45.89050093106093L171.3027643729782,49.04009156113689L171.5319258744836,43.06897852095841L171.7172780363703,43.25165847891186L171.95578123529435,36.73602190344745L172.96436242901564,12.34896466466308L172.99438471175432,11.157481099306352L173.083807304976,13.399316588379278L173.37075847947835,10.094667765203788L173.52653933712244,5.134856783520911L173.98125451216458,8.56757435898388L174.3652949143219,9.125638882288651L174.68452326404332,8.88278018259319L174.815307027905,13.297712910625178L174.87573814637898,13.288397697910636L174.93500960586312,13.66074402335341L175.252691743598,16.864668253418383L175.3561590956974,21.329307820157346L175.57932902575493,24.871926398606906L175.6078050965071,22.65105013814172L175.98785111769914,18.582415069534495L176.18074106302024,16.666426955019624L176.21218070674658,16.493494040833745L176.97246602562905,15.40790161868582L177.59610486020088,12.752834656974308L177.77288843066216,9.234414040029923L177.8270058501911,9.311866023891664L177.9144956784296,11.93453023409114L178.7341168822956,22.578271183174888L178.9242365311408,32.48649589124916L178.96147446981666,30.52109396624187L178.9936872195363,33.0016549149316L179.12640374838114,29.576170509606257L179.19533903278113,29.567749804072918L179.59683874528645,33.473229847337024L180.0370581829548,32.65406176234787L180.55806719691992,31.325070851688256L180.64826289613484,29.61466516347302L180.9596313349247,27.37833552032577L181.2427169794607,17.429318200281294L181.68641539409876,14.041079223276544L181.8711877264905,14.723094681327755L181.99159898494244,16.78314471962846L182.4749190817356,25.56771418274105L182.53831377318383,27.270377757077647L182.59545919118642,25.148313695059706L182.92267630283834,19.096725853648547L182.95340726607085,23.07618780981284L183.01370953354598,25.624484543671965L183.11215169668912,24.483170493150414L183.19989922692537,27.869142357126943L183.4051588681388,35.74793076405019L183.58245784259557,36.56444617257095L184.20867369714497,32.784937416479806L184.37431165620328,32.095133576937116L184.60933587815762,32.768080582875484L184.6099157076526,34.931477045679834L184.67273056960582,32.86929869718942L184.7492036374402,35.809204505962306L185.14155492902515,37.76677178186531L185.26119308148384,33.94739576606038L185.3492627392173,33.90993442221329L185.40995155968903,31.136406949143357L185.72492782644747,29.26142736212517L186.21597898317336,31.874406218707534L186.49951560620545,24.23722728593358L186.7169516668129,20.841631758490355L186.83884471175193,20.805327104963784L187.11870908131598,17.201712390279035L187.30296600971224,19.705206652390192L187.3597893002176,17.704780144477674L187.53728155117273,12.69345788718784L187.70878223068,11.824629231104549L188.03374444985153,11.92304044357401L188.23707132608175,8.221307544634335L188.40992494107724,7.983260676672212L188.51783765263798,11.826294865166082L188.5764004316282,9.454200623465509L188.62330219522,8.953153221693352L188.68972488514186,9.089951130266344L189.43048927769422,6.91688473638246L189.43055370319365,9.086218876165471L189.5476792611742,11.365793314762406L189.57596205542802,11.02830192431117L189.8883613022089,14.128231983292993L189.91625754346612,16.176992724065446L189.91632196896552,16.41732212759339L190.39358606881143,31.25017900906927L191.04795586661578,38.47628562446959L191.13718518333914,42.700395294691724L191.16894695456264,42.703217619073776L191.22738088255406,43.2764424968461L191.9165404500556,34.74804138338368L191.91660487555504,34.629873900239815L192.0040302782941,34.65473503086209L192.00409470379353,34.47612662283687L192.59584291614294,32.53706639206212L192.62393243389843,34.649784396290286L193.010356579535,25.66294835246351L193.32990705675363,19.950903099005306L193.73546557572365,17.918829543923486L193.84640628575804,19.909956261659058L194.05991239089968,18.716699104477545L194.19849164019348,17.431400242858214L194.22677443444726,17.205012813326906L194.35266186035156,15.363561823066053L194.45078189599752,17.78661212901975L194.7587357833171,9.037283164338866L195.06997537110806,6.881998956315723L195.24057409362314,7.986252648967949L195.45743032473564,17.4199258748787L195.50587830031395,18.91956716415838L195.52739641712665,18.740866220907524L195.73761682179688,21.321426903440237L195.7747259094739,21.530001302035608L195.8103532106638,23.736550025063995L195.96639177030562,23.479055337179616L196.41356916191341,32.734027619839516L196.99546027284862,31.97125975487869L197.9459296660757,24.673145311391895L197.99044768618822,24.82940646242476L198.0180217999482,26.62613209362566L198.08160976789475,26.649420125412036L198.3922051006913,19.557443319578724L198.60139469737052,18.202696771115626L198.77721188534022,18.373455107498938L198.83313321885348,17.735008318187163L199.13458013072966,15.23384285925464L199.13464455622912,16.37517233231379L199.27489886850836,20.301010125218973L199.45799613791465,22.36807741813078L199.96579792449472,33.35461511060254L200.18568215408087,30.773560906866408L200.521145729661,26.883626781510035L200.55007277890923,29.12422846757441L200.6746716948247,29.08641240536235L201.0066562934351,27.908809123851825L201.03532564068556,26.823000786177417L201.0777176193166,24.925828167542935L201.44906619808435,27.465627083180667L201.47805767283202,27.634102883998178L201.62011589909554,23.058390201414504L201.7629472313523,23.060425976378603L201.79123002560615,22.149987313831964L202.1685701758218,15.545270161150262L202.17952251072646,15.543542836938293L202.45191352235554,19.35665730247481L202.48225793259144,21.31914436787442L202.96821947486163,29.909112251463473L203.4300214548421,31.89709277152724L203.61356970274448,29.67994876516293L203.6541577673912,31.769733455969664L203.68224728514673,33.566520777320996L203.80130560811043,31.45577685790652L203.87919603693246,30.199657437439388L203.98865496047975,28.76799869393082L204.95864528003693,36.584988992663305L205.03879060133934,34.87859316422588L205.24772249602077,28.99412394032281L205.30718723200323,32.06461237501312L205.48970467191458,32.383735523174565L205.55355034185885,31.088597082562053L205.6943200581336,37.32999009430101L205.92966640758516,38.080666689778035L206.25817202922582,37.25900015369656L206.3023034963417,42.8441796128006L206.76236598783734,33.515163727090105L207.15626349140882,39.54556100182943L207.16264161585332,37.9336744838469L207.21321563291312,42.26927367842915L207.92131629724977,28.400726383360702L208.21413019220114,28.381324831051245L208.6194954346728,25.836590703379308L208.88557274735692,20.73756047471917L209.09895000149965,18.107370066167537L209.30562700370072,16.764282956135233L209.44813620846034,15.461926767922698L209.47622572621583,14.237192211485567L209.64295891876458,8.78547939283141L210.44376787679434,15.587157773290524L210.54491591091394,14.212747489378673L210.76557324649335,18.984681117934603L210.79514455073596,20.56920805420253L210.7952089762354,22.741565011356474L210.981720797112,24.729190813055276L211.60806550266028,37.05758181255079L211.70960008977653,36.37649170675597L212.39669804129602,33.07787309578479L212.5044174763584,35.04990671196304L212.82151978459834,29.269416236605526L212.97105136879682,27.77086994749593L213.11652414653062,26.362437545623308L213.54263439982174,28.751234395552153L213.7505999120116,25.077894388346706L213.82391613037348,23.47263956153516L214.22464273688553,27.429908486083143L214.25498714712143,29.293012719144055L214.4364737790418,26.31263817169072L214.62775308687688,29.964525429084986L214.6961085417819,30.430239797199786L214.75016153581143,31.406825723542298L214.8817828311658,35.84603352576752L215.03949645379305,38.99199985950585L215.10359982573507,38.7641318663643L215.32374175731897,36.3718341003987L216.0391225030923,35.90786247903349L216.1492901071334,37.388842497808845L216.34243775445222,33.39799870889069L216.5864815463281,29.695001161867246L216.72422326412917,29.055243456858868L216.90487236455678,23.181955572720778L217.1492382839298,21.776114157166123L217.2978034856367,17.86525164827721L217.35952311409952,19.513010988733324L217.8599803937435,14.78171574677149L218.51447904254672,10.375280836960876L218.60493244375942,8.960278434067726L218.85174653211118,9.292017217991607L219.01364781220198,4.007207101319058L219.04495860492946,5.082173395055835L219.15828305844306,2.2111600617728397L219.48962340205907,4.046241544002052L219.89247605005264,3.9981386492062145L220.1856120725012,6.079240451340291L220.48551277239085,10.16778601599799L220.72485350280763,7.4812262324932215L220.85447760767937,10.502902335657772L220.97546869562626,10.59053319434004L221.92336106887578,23.96543590568762L222.044545433321,22.837123054368668L222.88974356046438,10.908962328309167L223.00268146098136,18.559019079984868L223.03186621222736,20.68426018474981L223.09203962870362,18.56230408049512L223.09210405420302,17.299213673029698L223.667359338696,14.890891890490565L223.70627234035732,16.26798569594602L223.76676788433073,20.504464241328872L223.93292124738454,19.333708566515785L223.95411723670006,20.686002931499395L224.06673300971985,16.75066485542837L224.18952801165105,13.148361056440208L224.39607616285326,11.885301494049981L224.4211376821351,13.028913502674973L224.48536990507603,13.028034418031371L224.64540284568312,21.24725992008877L224.968367874372,27.812017277831078L225.06101174256563,29.947159651739632L225.08774832483292,27.994650968171687L225.93500806795834,25.13321503074257L226.1982506586671,21.291723096009385L226.2583596496439,19.731687149461187L226.43552977310182,18.80574883661965L226.60831896259785,21.20193308206217L226.6359575018573,23.158760076160053L226.713654654181,22.27913564375195L226.7142989091754,24.26873553026442L226.7831053425765,24.26324510687638L226.85751679442882,24.08938684043408L227.06213218064786,23.333065596192952L227.19375347600223,25.802198444515987L227.35301331061603,32.68018754105392L227.47819205602647,33.1739092374628L227.50814991326573,31.09434968908941L227.64672916255952,29.300400114657744L227.76321046554565,27.471796098223425L227.9708538502383,31.255376404242792L228.13507444830896,34.3260961769972L228.21406011062146,37.937391315410174L228.32223052417993,42.065156393202145L228.511448216033,43.395365684332695L228.8813794338131,42.26236438158126L228.94683574124338,46.41903129484854L229.00919962470053,44.4930339534268L229.29969420167208,40.913247059344684L229.32965205891134,38.84708969615168L229.47003522218944,38.42358681346689L229.6307768432903,40.209886809245546L229.69075698326824,37.8598467963228L230.0398787647295,36.34364170165333L230.07228479094744,34.670759047435624L230.10114741469621,34.50888409271387L230.13967386336088,33.13225296338662L230.83115274884224,17.37763727676065L230.86697332653046,18.24480029878239L231.16597206942797,17.44910531603092L231.35100210381745,19.181734880937643L231.57520284186603,20.11054178577407L231.81087131881478,19.758260181757837L231.9629799229908,18.001910754011732L232.4967451858449,18.051571325105872L232.67468841529606,18.304871082761178L232.83613871689082,16.21015117992024L233.0497092475319,23.525276682387418L233.8242326017904,16.244327523257077L234.14797073647262,19.16045177904015L234.23146618374588,19.29990236408151L234.26168174298286,19.26108383692502L234.3282332839036,21.349280006358253L234.46520189571143,28.92375090122265L234.59611451057194,27.24240127385876L234.68843625126837,24.796124626269123L234.85342995533227,32.81891326682774L234.88081079259393,34.55698698750971L235.03124433378457,31.48767066567754L235.64064513298035,26.331792963398456L235.69811267848013,26.51640073855275L236.03306085006474,24.37373216629202L236.04162944149016,24.31893589017481L236.11172438488006,22.64080957317076L236.2309759843421,22.727885220499175L236.29308216580154,22.36841671395813L236.3808941215372,30.850303453998233L236.78271596153976,29.099444449640167L236.87149429976702,29.115900297266702L237.05317420818568,20.28739202451211L237.32472768832207,20.822137670955268L237.38219523382188,23.09782563007528" fill="none"></path></g></g></g></g></g></g><g transform="translate(72, 176)" clip-path="url(#clip_1)"><clipPath id="clip_1"><rect width="257" height="23"></rect></clipPath><g><g><line x1="0" y1="0" x2="0" y2="5" style="visibility: inherit;" fill="rgb(0, 0, 0)" stroke="rgb(204, 204, 204)" stroke-width="1px"></line><line x1="32.21274971961975" y1="0" x2="32.21274971961975" y2="5" style="visibility: inherit;" fill="rgb(0, 0, 0)" stroke="rgb(204, 204, 204)" stroke-width="1px"></line><line x1="64.4254994392395" y1="0" x2="64.4254994392395" y2="5" style="visibility: inherit;" fill="rgb(0, 0, 0)" stroke="rgb(204, 204, 204)" stroke-width="1px"></line><line x1="96.63824915885925" y1="0" x2="96.63824915885925" y2="5" style="visibility: inherit;" fill="rgb(0, 0, 0)" stroke="rgb(204, 204, 204)" stroke-width="1px"></line><line x1="128.850998878479" y1="0" x2="128.850998878479" y2="5" style="visibility: inherit;" fill="rgb(0, 0, 0)" stroke="rgb(204, 204, 204)" stroke-width="1px"></line><line x1="161.06374859809875" y1="0" x2="161.06374859809875" y2="5" style="visibility: inherit;" fill="rgb(0, 0, 0)" stroke="rgb(204, 204, 204)" stroke-width="1px"></line><line x1="193.2764983177185" y1="0" x2="193.2764983177185" y2="5" style="visibility: inherit;" fill="rgb(0, 0, 0)" stroke="rgb(204, 204, 204)" stroke-width="1px"></line><line x1="225.48924803733826" y1="0" x2="225.48924803733826" y2="5" style="visibility: inherit;" fill="rgb(0, 0, 0)" stroke="rgb(204, 204, 204)" stroke-width="1px"></line><line x1="257.701997756958" y1="0" x2="257.701997756958" y2="5" style="visibility: inherit;" fill="rgb(0, 0, 0)" stroke="rgb(204, 204, 204)" stroke-width="1px"></line></g><g transform="translate(0, 8)"><text style="text-anchor: middle; visibility: hidden; font-family: Roboto, sans-serif; font-size: 12px; font-weight: 200;" x="0" y="0" dx="0em" dy="0.95em" fill="rgb(33, 33, 33)" stroke="none" stroke-width="1px">-500k</text><text style="text-anchor: middle; visibility: inherit; font-family: Roboto, sans-serif; font-size: 12px; font-weight: 200;" x="32.21274971961975" y="0" dx="0em" dy="0.95em" fill="rgb(33, 33, 33)" stroke="none" stroke-width="1px">0</text><text style="text-anchor: middle; visibility: inherit; font-family: Roboto, sans-serif; font-size: 12px; font-weight: 200;" x="64.4254994392395" y="0" dx="0em" dy="0.95em" fill="rgb(33, 33, 33)" stroke="none" stroke-width="1px">500k</text><text style="text-anchor: middle; visibility: inherit; font-family: Roboto, sans-serif; font-size: 12px; font-weight: 200;" x="96.63824915885925" y="0" dx="0em" dy="0.95em" fill="rgb(33, 33, 33)" stroke="none" stroke-width="1px">1M</text><text style="text-anchor: middle; visibility: inherit; font-family: Roboto, sans-serif; font-size: 12px; font-weight: 200;" x="128.850998878479" y="0" dx="0em" dy="0.95em" fill="rgb(33, 33, 33)" stroke="none" stroke-width="1px">1.5M</text><text style="text-anchor: middle; visibility: inherit; font-family: Roboto, sans-serif; font-size: 12px; font-weight: 200;" x="161.06374859809875" y="0" dx="0em" dy="0.95em" fill="rgb(33, 33, 33)" stroke="none" stroke-width="1px">2M</text><text style="text-anchor: middle; visibility: inherit; font-family: Roboto, sans-serif; font-size: 12px; font-weight: 200;" x="193.2764983177185" y="0" dx="0em" dy="0.95em" fill="rgb(33, 33, 33)" stroke="none" stroke-width="1px">2.5M</text><text style="text-anchor: middle; visibility: inherit; font-family: Roboto, sans-serif; font-size: 12px; font-weight: 200;" x="225.48924803733826" y="0" dx="0em" dy="0.95em" fill="rgb(33, 33, 33)" stroke="none" stroke-width="1px">3M</text><text style="text-anchor: middle; visibility: hidden; font-family: Roboto, sans-serif; font-size: 12px; font-weight: 200;" x="257.701997756958" y="0" dx="0em" dy="0.95em" fill="rgb(33, 33, 33)" stroke="none" stroke-width="1px">3.5M</text></g><line x1="0" y1="0" x2="257.701997756958" y2="0" fill="rgb(0, 0, 0)" stroke="rgb(204, 204, 204)" stroke-width="1px"></line></g></g></g></g></svg>