<svg viewBox="0 0 330 200" xmlns="http://www.w3.org/2000/svg"><g><g><g><g><g><line x1="30.766000747680664" y1="176.8779993057251" x2="25.766000747680664" y2="176.8779993057251" style="visibility: inherit;" fill="rgb(0, 0, 0)" stroke="rgb(204, 204, 204)" stroke-width="1px"></line><line x1="30.766000747680664" y1="164.2438564981733" x2="25.766000747680664" y2="164.2438564981733" style="visibility: inherit;" fill="rgb(0, 0, 0)" stroke="rgb(204, 204, 204)" stroke-width="1px"></line><line x1="30.766000747680664" y1="151.60971369062153" x2="25.766000747680664" y2="151.60971369062153" style="visibility: inherit;" fill="rgb(0, 0, 0)" stroke="rgb(204, 204, 204)" stroke-width="1px"></line><line x1="30.766000747680664" y1="138.9755708830697" x2="25.766000747680664" y2="138.9755708830697" style="visibility: inherit;" fill="rgb(0, 0, 0)" stroke="rgb(204, 204, 204)" stroke-width="1px"></line><line x1="30.766000747680664" y1="126.34142807551792" x2="25.766000747680664" y2="126.34142807551792" style="visibility: inherit;" fill="rgb(0, 0, 0)" stroke="rgb(204, 204, 204)" stroke-width="1px"></line><line x1="30.766000747680664" y1="113.70728526796613" x2="25.766000747680664" y2="113.70728526796613" style="visibility: inherit;" fill="rgb(0, 0, 0)" stroke="rgb(204, 204, 204)" stroke-width="1px"></line><line x1="30.766000747680664" y1="101.07314246041433" x2="25.766000747680664" y2="101.07314246041433" style="visibility: inherit;" fill="rgb(0, 0, 0)" stroke="rgb(204, 204, 204)" stroke-width="1px"></line><line x1="30.766000747680664" y1="88.43899965286255" x2="25.766000747680664" y2="88.43899965286255" style="visibility: inherit;" fill="rgb(0, 0, 0)" stroke="rgb(204, 204, 204)" stroke-width="1px"></line><line x1="30.766000747680664" y1="75.80485684531077" x2="25.766000747680664" y2="75.80485684531077" style="visibility: inherit;" fill="rgb(0, 0, 0)" stroke="rgb(204, 204, 204)" stroke-width="1px"></line><line x1="30.766000747680664" y1="63.170714037758955" x2="25.766000747680664" y2="63.170714037758955" style="visibility: inherit;" fill="rgb(0, 0, 0)" stroke="rgb(204, 204, 204)" stroke-width="1px"></line><line x1="30.766000747680664" y1="50.536571230207166" x2="25.766000747680664" y2="50.536571230207166" style="visibility: inherit;" fill="rgb(0, 0, 0)" stroke="rgb(204, 204, 204)" stroke-width="1px"></line><line x1="30.766000747680664" y1="37.90242842265538" x2="25.766000747680664" y2="37.90242842265538" style="visibility: inherit;" fill="rgb(0, 0, 0)" stroke="rgb(204, 204, 204)" stroke-width="1px"></line><line x1="30.766000747680664" y1="25.268285615103593" x2="25.766000747680664" y2="25.268285615103593" style="visibility: inherit;" fill="rgb(0, 0, 0)" stroke="rgb(204, 204, 204)" stroke-width="1px"></line><line x1="30.766000747680664" y1="12.634142807551788" x2="25.766000747680664" y2="12.634142807551788" style="visibility: inherit;" fill="rgb(0, 0, 0)" stroke="rgb(204, 204, 204)" stroke-width="1px"></line><line x1="30.766000747680664" y1="0" x2="25.766000747680664" y2="0" style="visibility: inherit;" fill="rgb(0, 0, 0)" stroke="rgb(204, 204, 204)" stroke-width="1px"></line></g><g transform="translate(20.766000747680664, 0)"><text style="text-anchor: end; visibility: hidden; font-family: Roboto, sans-serif; font-size: 12px; font-weight: 200;" x="0" y="176.8779993057251" dx="0em" dy="0.3em" fill="rgb(33, 33, 33)" stroke="none" stroke-width="1px">0</text><text style="text-anchor: end; visibility: inherit; font-family: Roboto, sans-serif; font-size: 12px; font-weight: 200;" x="0" y="164.2438564981733" dx="0em" dy="0.3em" fill="rgb(33, 33, 33)" stroke="none" stroke-width="1px">5</text><text style="text-anchor: end; visibility: hidden; font-family: Roboto, sans-serif; font-size: 12px; font-weight: 200;" x="0" y="151.60971369062153" dx="0em" dy="0.3em" fill="rgb(33, 33, 33)" stroke="none" stroke-width="1px">10</text><text style="text-anchor: end; visibility: inherit; font-family: Roboto, sans-serif; font-size: 12px; font-weight: 200;" x="0" y="138.9755708830697" dx="0em" dy="0.3em" fill="rgb(33, 33, 33)" stroke="none" stroke-width="1px">15</text><text style="text-anchor: end; visibility: hidden; font-family: Roboto, sans-serif; font-size: 12px; font-weight: 200;" x="0" y="126.34142807551792" dx="0em" dy="0.3em" fill="rgb(33, 33, 33)" stroke="none" stroke-width="1px">20</text><text style="text-anchor: end; visibility: inherit; font-family: Roboto, sans-serif; font-size: 12px; font-weight: 200;" x="0" y="113.70728526796613" dx="0em" dy="0.3em" fill="rgb(33, 33, 33)" stroke="none" stroke-width="1px">25</text><text style="text-anchor: end; visibility: hidden; font-family: Roboto, sans-serif; font-size: 12px; font-weight: 200;" x="0" y="101.07314246041433" dx="0em" dy="0.3em" fill="rgb(33, 33, 33)" stroke="none" stroke-width="1px">30</text><text style="text-anchor: end; visibility: inherit; font-family: Roboto, sans-serif; font-size: 12px; font-weight: 200;" x="0" y="88.43899965286255" dx="0em" dy="0.3em" fill="rgb(33, 33, 33)" stroke="none" stroke-width="1px">35</text><text style="text-anchor: end; visibility: hidden; font-family: Roboto, sans-serif; font-size: 12px; font-weight: 200;" x="0" y="75.80485684531077" dx="0em" dy="0.3em" fill="rgb(33, 33, 33)" stroke="none" stroke-width="1px">40</text><text style="text-anchor: end; visibility: inherit; font-family: Roboto, sans-serif; font-size: 12px; font-weight: 200;" x="0" y="63.170714037758955" dx="0em" dy="0.3em" fill="rgb(33, 33, 33)" stroke="none" stroke-width="1px">45</text><text style="text-anchor: end; visibility: hidden; font-family: Roboto, sans-serif; font-size: 12px; font-weight: 200;" x="0" y="50.536571230207166" dx="0em" dy="0.3em" fill="rgb(33, 33, 33)" stroke="none" stroke-width="1px">50</text><text style="text-anchor: end; visibility: inherit; font-family: Roboto, sans-serif; font-size: 12px; font-weight: 200;" x="0" y="37.90242842265538" dx="0em" dy="0.3em" fill="rgb(33, 33, 33)" stroke="none" stroke-width="1px">55</text><text style="text-anchor: end; visibility: hidden; font-family: Roboto, sans-serif; font-size: 12px; font-weight: 200;" x="0" y="25.268285615103593" dx="0em" dy="0.3em" fill="rgb(33, 33, 33)" stroke="none" stroke-width="1px">60</text><text style="text-anchor: end; visibility: inherit; font-family: Roboto, sans-serif; font-size: 12px; font-weight: 200;" x="0" y="12.634142807551788" dx="0em" dy="0.3em" fill="rgb(33, 33, 33)" stroke="none" stroke-width="1px">65</text><text style="text-anchor: end; visibility: hidden; font-family: Roboto, sans-serif; font-size: 12px; font-weight: 200;" x="0" y="0" dx="0em" dy="0.3em" fill="rgb(33, 33, 33)" stroke="none" stroke-width="1px">70</text></g><line x1="30.766000747680664" y1="0" x2="30.766000747680664" y2="176.8779993057251" fill="rgb(0, 0, 0)" stroke="rgb(204, 204, 204)" stroke-width="1px"></line></g></g><g transform="translate(30, 0)" clip-path="url(#clip_0)"><clipPath id="clip_0"><rect width="299" height="176"></rect></clipPath><g><g><g><line x1="0" y1="0" x2="0" y2="176.8779993057251" fill="rgb(0, 0, 0)" stroke="rgb(66, 66, 66)" stroke-width="1px" opacity="0.25"></line><line x1="37.40424990653992" y1="0" x2="37.40424990653992" y2="176.8779993057251" fill="rgb(0, 0, 0)" stroke="rgb(66, 66, 66)" stroke-width="1px" opacity="0.25"></line><line x1="74.80849981307983" y1="0" x2="74.80849981307983" y2="176.8779993057251" fill="rgb(0, 0, 0)" stroke="rgb(66, 66, 66)" stroke-width="1px" opacity="0.25"></line><line x1="112.21274971961975" y1="0" x2="112.21274971961975" y2="176.8779993057251" fill="rgb(0, 0, 0)" stroke="rgb(66, 66, 66)" stroke-width="1px" opacity="0.25"></line><line x1="149.61699962615967" y1="0" x2="149.61699962615967" y2="176.8779993057251" fill="rgb(0, 0, 0)" stroke="rgb(66, 66, 66)" stroke-width="1px" opacity="0.25"></line><line x1="187.02124953269958" y1="0" x2="187.02124953269958" y2="176.8779993057251" fill="rgb(0, 0, 0)" stroke="rgb(66, 66, 66)" stroke-width="1px" opacity="0.25"></line><line x1="224.4254994392395" y1="0" x2="224.4254994392395" y2="176.8779993057251" fill="rgb(0, 0, 0)" stroke="rgb(66, 66, 66)" stroke-width="1px" opacity="0.25"></line><line x1="261.8297493457794" y1="0" x2="261.8297493457794" y2="176.8779993057251" fill="rgb(0, 0, 0)" stroke="rgb(66, 66, 66)" stroke-width="1px" opacity="0.25"></line><line x1="299.23399925231934" y1="0" x2="299.23399925231934" y2="176.8779993057251" fill="rgb(0, 0, 0)" stroke="rgb(66, 66, 66)" stroke-width="1px" opacity="0.25"></line></g><g><line x1="0" y1="176.8779993057251" x2="299.23399925231934" y2="176.8779993057251" fill="rgb(0, 0, 0)" stroke="rgb(66, 66, 66)" stroke-width="1px" opacity="0.25"></line><line x1="0" y1="164.2438564981733" x2="299.23399925231934" y2="164.2438564981733" fill="rgb(0, 0, 0)" stroke="rgb(66, 66, 66)" stroke-width="1px" opacity="0.25"></line><line x1="0" y1="151.60971369062153" x2="299.23399925231934" y2="151.60971369062153" fill="rgb(0, 0, 0)" stroke="rgb(66, 66, 66)" stroke-width="1px" opacity="0.25"></line><line x1="0" y1="138.9755708830697" x2="299.23399925231934" y2="138.9755708830697" fill="rgb(0, 0, 0)" stroke="rgb(66, 66, 66)" stroke-width="1px" opacity="0.25"></line><line x1="0" y1="126.34142807551792" x2="299.23399925231934" y2="126.34142807551792" fill="rgb(0, 0, 0)" stroke="rgb(66, 66, 66)" stroke-width="1px" opacity="0.25"></line><line x1="0" y1="113.70728526796613" x2="299.23399925231934" y2="113.70728526796613" fill="rgb(0, 0, 0)" stroke="rgb(66, 66, 66)" stroke-width="1px" opacity="0.25"></line><line x1="0" y1="101.07314246041433" x2="299.23399925231934" y2="101.07314246041433" fill="rgb(0, 0, 0)" stroke="rgb(66, 66, 66)" stroke-width="1px" opacity="0.25"></line><line x1="0" y1="88.43899965286255" x2="299.23399925231934" y2="88.43899965286255" fill="rgb(0, 0, 0)" stroke="rgb(66, 66, 66)" stroke-width="1px" opacity="0.25"></line><line x1="0" y1="75.80485684531077" x2="299.23399925231934" y2="75.80485684531077" fill="rgb(0, 0, 0)" stroke="rgb(66, 66, 66)" stroke-width="1px" opacity="0.25"></line><line x1="0" y1="63.170714037758955" x2="299.23399925231934" y2="63.170714037758955" fill="rgb(0, 0, 0)" stroke="rgb(66, 66, 66)" stroke-width="1px" opacity="0.25"></line><line x1="0" y1="50.536571230207166" x2="299.23399925231934" y2="50.536571230207166" fill="rgb(0, 0, 0)" stroke="rgb(66, 66, 66)" stroke-width="1px" opacity="0.25"></line><line x1="0" y1="37.90242842265538" x2="299.23399925231934" y2="37.90242842265538" fill="rgb(0, 0, 0)" stroke="rgb(66, 66, 66)" stroke-width="1px" opacity="0.25"></line><line x1="0" y1="25.268285615103593" x2="299.23399925231934" y2="25.268285615103593" fill="rgb(0, 0, 0)" stroke="rgb(66, 66, 66)" stroke-width="1px" opacity="0.25"></line><line x1="0" y1="12.634142807551788" x2="299.23399925231934" y2="12.634142807551788" fill="rgb(0, 0, 0)" stroke="rgb(66, 66, 66)" stroke-width="1px" opacity="0.25"></line><line x1="0" y1="0" x2="299.23399925231934" y2="0" fill="rgb(0, 0, 0)" stroke="rgb(66, 66, 66)" stroke-width="1px" opacity="0.25"></line></g></g></g><g><g><line x1="0" y1="176.8779993057251" x2="299.23399925231934" y2="176.8779993057251" fill="rgb(0, 0, 0)" stroke="rgb(153, 153, 153)" stroke-width="1.5px"></line></g></g><g><g><line x1="37.40424990653992" y1="0" x2="37.40424990653992" y2="176.8779993057251" fill="rgb(0, 0, 0)" stroke="rgb(153, 153, 153)" stroke-width="1.5px"></line></g></g><g><g><g><g><g><path style="fill: none;" stroke="rgb(255, 112, 67)" stroke-width="2px" d="M37.449359431927206,176.8779993057251L37.551772268171305,176.8779993057251L37.71552807426214,176.8779993057251L37.76295666314363,176.8779993057251L37.772083300120826,176.8779993057251L37.872625923869606,176.8779993057251L37.881228901348116,176.8779993057251L37.949155019178384,176.8779993057251L37.99007526857615,176.8779993057251L38.02673143348456,176.8779993057251L38.06697840638399,176.8779993057251L38.12203746224642,176.8779993057251L38.15697303165913,176.8779993057251L38.1779942201066,176.8779993057251L38.2649216968894,176.8779993057251L38.31564185976267,176.8779993057251L38.32708756023407,176.8779993057251L38.575302162613866,176.8779993057251L38.604178243541725,176.8779993057251L38.624077304492,176.8779993057251L38.645622152438165,176.8779993057251L38.85957446190357,174.85650984932815L39.27962418835401,163.53623913703805L39.45258143992186,156.74413392567857L39.479138457355496,152.66889139641557L39.85026342492819,150.22375329393083L40.01244825252295,138.64934851106554L40.02172450649977,130.69398117768895L40.11209317427397,116.82417773115112L40.22161281800031,101.42717739754391L40.25333162192106,94.21044249320396L40.36210318064928,89.88040216324588L40.397786835060124,88.29310965869206L40.54448630319357,83.2978083902183L40.80803664803505,71.2040447429176L40.87686046786308,62.937055252564186L40.901547272801395,56.96613018206521L41.11894077325821,51.362112306700745L41.20459650554418,45.97823874108779L41.300650619304186,42.74791460939668L41.32556184974193,39.79898870773083L41.43897153545857,36.00817031806396L41.50607475979089,31.712216435639412L41.56539790014267,27.113181257420067L41.680004521856304,21.321565876870746L41.69923030630827,15.82513379959209L41.80164314255238,8.484348854876433L41.87084100487947,2.058415038969094L41.97302941562415,-1.7971452504828844L42.44432296444655,-0.09925381257748316L42.48464474584579,0.9511791370576499L42.60845281303644,-0.4400239423695499L43.98874444308758,-0.7259290672032118L43.993307761576176,1.5859054088863762L44.120033360259534,-0.059188179272322006L44.77468254212379,-3.171021879820097L45.034342844974994,0.11884972131620965L45.606253826045986,3.103504106602165L45.677097475368974,5.90502816237787L46.10171052030802,9.607405445051585L46.493632250828746,15.871757513072385L46.71125017678499,16.598174480072434L46.74775672469377,17.034024660272465L46.835357477974895,17.295534768392486L46.97592264912367,18.463172257868614L47.232216569483285,18.15302332695017L47.243288227455615,17.9669339683991L47.27680243537187,16.844548928664306L47.43262854048252,19.20331217863587L47.63543438347578,19.60783870401468L48.03723083597183,18.839823194637813L48.14832145819425,20.400476738219982L48.24991140094041,20.326137439765123L48.629788962991235,21.292265285296388L48.85862816391945,23.893404841823408L48.93889768421889,25.454088575739622L49.67127289738893,28.411961665297646L49.905722735803124,32.20814836824073L50.05302067193508,34.4858603900066L51.04894622994661,28.777367630837112L51.08582682035446,26.363003399939558L51.15839106517315,25.925116286005178L51.39373860558509,25.662384017644552L51.470940977392196,23.483281807419875L51.61726640302658,24.19728333049335L51.64344937796116,25.6364156689416L51.78872748459816,25.48916364740638L52.12746037175179,27.422275283693544L52.3580201681757,27.571410840861706L52.35809497667552,27.660892175162598L52.41846543602467,29.736043824951413L52.53823384422541,28.959671965616433L52.73655117722988,28.49384885001544L52.97698569562912,33.26801210367556L53.065184916908734,35.12177863126749L53.077977170376776,36.23403854782264L53.21285689553976,35.8906630731516L53.279436460373404,35.684637788348965L53.3983819750762,35.56102261746737L53.465859241907594,33.46539066573015L53.55764927117824,34.2294743438961L53.614578539536,34.68792455079566L53.927502494254114,36.98445752414369L54.03395498948812,39.37310873275665L54.05101132744551,39.79556803332028L54.3100731622982,38.027580764450185L54.57781278312921,36.9667884031281L54.63279703049183,35.31958156173072L54.8419615959692,34.33125745689231L55.06047722392321,33.73826299398925L55.07798241287947,33.38246631624741L55.65153918094635,37.21191400801888L55.77115797214747,40.5203140476859L56.31838214828014,38.46242837306954L56.454009958441254,38.23842839290386L56.45408476694107,38.10402840480449L56.50420646181584,39.03411983654899L56.59158278959751,41.613637544803986L56.6916017538476,45.182811018965275L56.81047246005058,47.324315103462034L56.90256172332048,47.598486129555944L57.034673533990386,50.795183019024726L57.56745966965914,57.76685827572673L57.782758532121186,64.98205770356036L58.07353917089462,67.28971451105224L58.16906962515592,67.66357717094321L58.64402879046917,69.90935761608608L58.91034704980373,71.25682588317181L58.94640474671364,70.04384399421495L59.144647271218304,70.326786285445L59.14472207971811,70.496551660183L60.263782428421976,69.58767946042167L60.86344736292362,71.06381898977315L60.898233315336704,71.94950270738406L61.40266702957631,73.49164436255475L61.45166659695387,74.41692935565715L61.873062876400944,78.00429462533103L61.93006695325852,80.15671378713535L62.22107201753139,80.43743385961379L62.309121621811386,79.59513447849672L62.52284950577736,76.05756057601404L62.69782658684016,74.94574765912857L62.800688274083136,75.28939133360147L62.85395192595005,73.4741146890769L63.0847361478734,71.374217277758L63.29592054284573,68.09281598175839L63.53732757174254,65.11324377955447L63.573310460152626,62.31476903362797L63.9283516002655,59.62495276146792L64.0186454595399,59.021794422776054L64.14320161172867,57.6491679949568L64.21868338804006,54.804129289056945L64.41363433855295,56.12930033932947L64.63214996650696,55.91367154488882L64.73224373925686,56.795025692828574L64.74032305723668,56.3131067569883L65.30624935832262,57.03468682008826L65.47277307890654,56.45690343334411L65.52109936978579,55.09950197669348L66.1806111041379,54.28506110270309L66.32371976428033,55.81785942751716L66.51425701330423,55.726806997801454L66.75439229770423,57.69363838918031L66.9824834136343,60.89520007321592L67.0385149799943,62.81613708363726L67.06709182692289,65.99016213909837L67.16576423817634,64.86238289856261L67.3114163873124,65.1964467788453L67.9582106766963,66.40761653161907L68.71699329030038,74.20943835551232L68.76277609218597,77.87980002524412L69.0819839608884,77.04982275327077L69.17736479815007,76.55183639008676L69.48460330688238,78.27450742138463L70.6280512265253,87.39396143699653L70.69223691936493,89.8334395725512L70.95743305120229,94.32932072769647L71.08131592689276,96.01611799617947L71.10353405133725,97.02819635726927L71.6637749064374,99.65690622313144L71.95021665222168,101.23413214264873L72.01290617506504,103.19119911896327L72.14090351824522,101.33324503093955L72.14097832674504,101.22920400272946L72.5342466102624,101.16677938580341L72.54935792722463,102.14005604025193L72.86422690293789,101.7132906083169L72.9380628922534,103.47869419836417L73.0141431365633,102.51647350318423L73.07271819191695,101.93914108607628L73.35512027871133,102.60347306041564L73.39753669810533,103.00207224501926L73.53383778476477,102.2305003311773L73.92575951528549,103.7890200320804L73.97805065665483,105.73486327722642L74.19297547661782,107.91310064891816L76.39833005110741,108.20931164732907L76.71955774930478,108.38703824637561L77.0176696210599,105.4614799319911L77.36695050668716,101.68468209415211L77.5050469973421,98.4078719668446L77.67957522740602,95.43105446585594L77.71054594632865,94.65569538986686L77.77121563967705,95.20121136887757L77.80405657109499,95.52852095628397L77.97544284416676,94.71417528412371L78.21587736256599,93.2148364562234L78.97563248666764,93.32596458408734L79.56355248669863,91.37117861159743L79.86877116593598,92.21976987731179L79.93385456077337,91.71819321213623L80.56583676719427,95.46017291144747L80.66525726344585,96.69462930643009L81.64764248299122,97.43530314341963L82.35570493372201,99.90117029482165L82.58544183664799,102.39142201026701L82.68254326940537,104.89630446413837L83.26522667444945,103.36703966264876L83.64413172600268,99.41728650794256L84.38002293866396,96.03670319051469L84.44159033401013,94.00835320005797L84.47749841392042,92.79134320578395L85.39412696213006,90.03967436001128L85.51052898783922,89.39940447715178L85.74475440075398,91.03670539664438L85.93170084178686,94.04054879754823L85.95952960371733,93.82139198888224L86.40673481559992,94.7006293282868L86.58305844965935,94.21744030732538L86.71045732484103,92.9167954701444L86.72414728030681,92.13640856783582L87.04103608551503,93.68963927565895L87.08225556891203,93.61084627574867L87.33398617078305,92.55283905119836L87.3794697386694,92.92876614107232L88.37457240318298,98.20797951801742L88.66654997795342,101.37550754418449L88.66662478645326,103.2760243598847L88.88446713790894,108.45926014772141L88.95665734022856,111.56920162042344L89.13911527127266,115.45662935325295L89.35187064474106,118.79981741755479L89.7776806256771,120.8057302561359L89.98572306365729,125.04147223309701L90.01811514407635,128.5936488438778L90.24448566451072,130.72495481034628L90.35804496722699,133.0144698148315L90.5068390733552,135.3989102421268L90.95052828574657,133.79738022469155L91.08765226590396,131.82573078962625L91.12587940930842,129.6320097039829L91.2338280745387,128.31577705259693L91.42675919555663,127.52603746176531L91.4963311003828,128.06292513187051L91.57944334367514,129.39578915853775L91.6461725255084,130.1955075745381L91.80461692811251,130.6753386241383L92.08731824890614,126.92031155548187L92.26251975546838,121.63510104047558L92.35199072124482,119.47470615607595L92.46016381197451,120.19993207464444L92.85141226599693,120.63506762578555L92.89936451437713,120.89614895647021L93.01741232708216,120.04206633027687L93.10905273935317,118.5188853299567L93.14421273426532,117.60497672976462L93.46596409196138,118.0673629942535L93.51331787234305,118.34479475294687L93.527755912807,118.51125380816286L93.71298175834417,117.60039781668829L93.85796063098192,116.04315279719943L93.94212019327163,115.1088057855061L94.21015904810191,119.60185470151085L94.37114693969966,119.26548977730124L94.93049009280205,117.04220797356719L95.57526455269098,114.69750746672264L95.7835314161706,112.27995573801174L96.21816880008458,111.84015612538936L96.25123415700197,112.58700778242006L96.68856464690924,114.04585020124263L97.42707415706397,118.96408135095275L97.5119818043518,121.91502004077883L97.78974576415777,120.65338898086203L98.27233539645195,118.88567892030781L98.318342623837,116.81432145937114L98.52032557333231,113.55004413360085L98.60321339112521,110.58074631353453L98.85337301450014,106.77770477228646L99.1928539866519,103.48514842293346L99.48258730642796,100.49888318871753L100.08651632541896,103.76078117120869L100.44230555052997,108.7501142345158L100.83594787654637,112.75444549710423L101.72227898233176,120.21070137767798L101.7539229777527,125.69518633062638L101.9627883092308,126.96441445318716L102.16821244971753,127.7259513267236L102.1852687876749,128.18287345084548L102.21743644259452,127.44629530071447L102.4442558140278,123.97215413682342L102.45824500349283,121.88766943848879L102.49033784991265,120.636978619488L102.50761861336946,119.88656412808754L102.67249654695749,119.43631543324727L102.71581066834928,120.17689764094726L103.1963804711485,116.57832126715067L103.92202291933536,113.40844401826855L104.01897473509312,113.52798051814759L104.40349042413234,114.61043384267914L104.53844495779514,116.27063726200224L104.67137966196299,117.26675931359608L105.05484803200484,119.88589539376068L105.14663806127548,119.43591419265115L105.19907881964446,118.15519404738129L105.31809914284707,116.37603053561521L105.58434259368181,116.31926385315974L106.07815350094795,114.26374099447816L106.14338651278496,113.0304272792692L106.963811330235,116.33336474856041L107.76800270322562,120.33659007934342L108.11182256836653,120.71706242860495L108.32502679283381,120.94534583816186L108.54099893179416,121.082315883896L108.64864836302517,123.18596076054476L108.7356506483078,125.45887911113819L108.77350374921322,125.81189869689008L108.99426363216162,127.03444187294537L109.21524794060946,125.74650492937023L109.4757311369586,125.9844741878293L109.71384659186363,124.10579289369649L109.92989353932381,123.98931554182091L110.0311094395709,125.94089197990385L110.67311598496676,130.14403211656605L110.86088531949758,134.68737904777169L111.32664303933382,131.34899865887016L111.32671784783363,129.34597042552926L111.34399861129044,129.15488491012889L111.50019875890017,126.00803932707622L111.57216453572035,124.11993197724462L111.83302177456855,121.9763361427415L112.51864167535544,123.72237291585208L112.81675354711055,123.75926355511426L112.9805841617012,124.79212936327572L113.21989655260325,127.43331169738089L113.50970468087911,129.018021097844L113.56356680074454,127.94738388891358L113.75881698525667,128.31573298815945L114.0374786470604,132.57966814612354L114.37868021470786,138.17022351471445L114.78114994370222,140.51382531126487L114.8175816831112,141.9199863891951L114.88812609843492,142.76368303595322L115.2791501269579,142.25916959940395L115.95788764576197,141.9564615374744L116.03501520906924,140.76410527571252L116.11461145287036,140.0486915186554L116.16121714825391,138.60871183981698L116.2458255615425,137.74472403251394L116.32938665583372,137.2263313481321L116.40576613414287,138.9367585867113L116.90197091340303,140.97374635446295L117.23584124806881,142.19593901511394L117.48757184993983,141.9185231869004L117.61018298113346,139.73061084076397L118.25031931403399,139.42859485768628L118.29056628693343,139.24738526783966L118.30066543440819,139.13865951393169L118.47160285648108,139.07342406158688L118.5220985938549,138.02355136557588L118.78557413019658,139.41509059717757L118.85514603502273,140.2500141361386L119.2987604389143,142.77243110872345L119.37184834323168,144.2858812922744L119.37192315173148,145.19395140240493L119.45982313901186,144.72806204387913L119.49416024042607,144.44852842876367L120.10758993889331,146.30227110890266L120.3917874296832,149.43597956619433L121.06356775800465,151.31620464056937L121.11757949486972,152.44433968519436L121.4201050681138,152.11048928736523L121.62612767659903,150.89944762406358L121.74275412780761,150.17282262608262L122.30935370539187,147.71538477808573L122.50632448539973,144.21945922007933L122.62983331859112,142.1219038852755L122.80787754814624,140.86337068439317L123.04217776956082,135.05459364084308L123.10928099389315,131.56932741471303L123.47494494097948,129.47816767903498L123.61947496261836,129.23420326223228L123.77245834473611,127.0663617629424L124.03967430606842,125.76565686336846L124.25033504154204,125.99596534822827L125.08257960196256,127.14488186374825L125.1165426608777,128.8449631976644L125.37178926223993,129.8650119980141L125.61544054613114,134.5199669766405L125.80163890216589,137.31293996381632L125.9795335147214,139.99945518072596L126.91381686888694,140.60063288626762L127.654196591537,136.918413811176L127.7548140237856,132.68761951691278L127.93884293332577,131.15987436495897L128.05157934254407,130.24322727378672L128.48442132246257,123.62885047145848L128.83729301608085,120.67095581466567L129.37135089624644,119.90695044519416L129.65307970654248,120.45927864811539L130.04926552155257,122.8121384190764L130.44881771905423,124.22385428165302L130.62805888460636,126.08161522380311L131.2311650100994,135.28212318592634L131.3020086594224,140.80242796320024L131.38714073220967,144.1146108295646L131.42342285461902,146.10192054938324L131.47212318799734,146.28357495667026L132.11001526590348,146.3925676010425L133.06419768101932,147.46869461226996L133.10055461192846,149.12510224361057L133.2649836945176,150.11894682241496L133.43038528760434,149.70452214509345L134.63435328359603,145.41294164028395L134.71783956938745,144.85945618660654L135.22519081511973,147.55955918821252L135.45889256853582,150.19035241378026L135.52734234586478,151.7688283491209L135.88769488946437,153.72664533492943L135.95659351779224,154.90133552641456L136.2291956911111,156.61688106590975L136.426540513618,157.6462083896069L136.7199394498849,159.2745362084293L136.97959975273608,158.23007005051448L137.52951703486204,155.5819275065573L137.72162526238202,152.98231055557883L138.2716921615076,150.41180896038762L138.55910641778945,148.8695080032729L138.8012615316844,144.9119331551916L138.83874059009077,143.548119670947L139.53939699934006,143.74056300500436L139.58570346072435,145.87749185464708L139.7204335688877,146.14891773982856L139.8032465781808,146.31177327093746L140.054902371552,148.43094943881107L140.77306396975757,148.6917237149311L140.8258787706256,147.837456855999L140.92462599037884,147.3248967406397L141.82763939162254,142.97443497300756L141.97239383876084,139.35342648782415L142.1103407124162,137.1808213967141L142.11041552091598,135.87725834204804L142.1659982362771,135.09512050924843L142.3249662983799,134.62583780956865L142.51385776040792,134.34426818976078L142.73147568636418,134.17532641787608L142.82895116162064,132.05249850553696L142.86328826303483,129.76807033352935L143.0479156405735,130.41887627953307L143.28386164898396,132.83082269634357L143.3149819849062,134.2779905464299L143.4304863086176,136.15702268108583L143.51195276491404,138.29517338648353L143.9206315993929,136.5458695359097L144.09650638245344,138.52848149937788L144.5515664868164,143.76097437587532L144.75960892479657,146.9004701017738L144.9420668558407,148.78416753731287L145.0851755159831,148.90365457403217L145.11981185139655,148.97534679606377L145.85480536206006,150.02909355388687L145.86961744502307,149.65061018397657L145.91435292791127,148.41278873742627L146.0527486525655,147.6700958694961L146.43928417109967,149.24594299794626L146.4400322560978,150.19145127501636L146.474369357512,150.75875624125842L146.5091553099251,151.09913922100367L146.54483896433592,151.3033690088508L146.77278046326637,152.43663830616322L147.74499172683716,155.13806273375897L148.05432487356424,157.76964881492057L148.45948770855188,160.35933188822167L148.99751043920756,161.91314173220232L149.13680386585952,162.84542763859073L149.3770139587593,163.40479918242374L149.47508790201425,162.72969068411942L149.62612626313688,162.32462558513683L150.3697975597787,160.06012367653898L150.69858091645716,157.69069110677614L150.7331424433708,156.26903156491844L151.50868216093303,153.39457299059552L152.11089058442832,153.69136069521005L152.4059353076911,152.85870189337464L152.58547570724247,153.36983803687755L152.9182987229109,155.69798257218756L152.95143888832808,157.09486929337356L153.1528233698249,157.93300132608516L153.19134974722863,159.44661197031627L153.29735339146376,159.34404693225082L154.10618289144278,157.26104506020323L154.1470283323407,155.00051251237053L154.2201162366581,153.64419298367093L154.49264360147714,154.85186411565945L154.5272051283908,155.57646679485256L154.56408571879862,156.01122840236843L154.5690978882861,156.27208536687795L155.37336406977653,151.37494242256295L155.69840700146437,149.4473880805781L155.73760665536642,148.29085547538716L155.88303437900305,149.6183987614809L155.95978789981126,150.41492473313716L156.08987988098622,151.90357174073503L156.26560504704713,152.79675994529376L156.4975862049675,152.32194144342486L156.84836326059101,150.01558749309524L157.279409836514,147.6210436982933L157.40553696719883,147.1950488460163L157.5161787384224,146.9394519346501L157.60146042820932,146.7860937878304L158.23598612362383,148.71554174894683L158.424428734653,150.88394195022084L159.03292107213258,151.17425064638113L159.0329958806324,151.3484358640773L159.11730505992173,150.44221557009084L159.1485002043438,150.9092148183031L159.20707525969743,152.20014579183461L159.3892339567423,153.98543580055767L159.96436170330523,153.0351469565832L160.16784082279682,152.46497365019854L160.83109298213958,153.13360109097187L161.08820979599716,153.53477755543585L161.12711021589993,152.76475200951012L161.54573858085396,153.31346810655882L161.71173864193915,153.64269776478804L162.1174999449253,152.82950413512143L162.31731344792604,153.3523193819256L162.38067624726773,152.65527710540397L162.4679029580498,152.237051739491L162.53852218187333,150.97538509533905L163.7121927354407,150.21838510884788L163.82507876165866,148.75345369234907L163.8733302440381,147.87449484244974L164.0735177895379,147.34711953251016L164.21700049217938,148.04142577115056L164.29397843848707,148.4580095143348L164.96082140582084,149.7186911848495L165.57178242379425,149.46436876255416L166.5041207569647,150.3225067337811L167.56991745380162,150.83738951651725L167.79479180423974,152.15705061076312L168.18147693977355,154.9703101165189L168.65479031809093,156.65826581997237L169.32746834841012,156.66030781744033L169.70098718797684,157.67226444052523L169.9427682593727,158.27943841437616L170.2578616605854,158.64374279868673L170.5906846762538,158.86232542927308L170.66354815507174,158.99347500762488L170.72937963490725,159.07216475463596L170.72945444340706,160.13011002744676L171.1047686869693,161.77560861573735L171.3497665238571,163.7736391933159L171.52833441291094,162.9509946906547L172.85805549708843,162.457407989058L173.82996752665994,161.15052454349583L174.10990093296053,159.3556630515544L174.14468688537357,158.27874615638953L174.161743223331,156.62186459468646L176.25488504810096,154.61700423306047L176.4302361716628,154.42481944068905L176.50549352247475,154.30950856526619L176.75872029434206,153.2295906154083L177.15640227934838,152.58163984549358L177.33220225390912,150.17140653433646L177.5027656334829,147.71453512303805L177.6541032286048,146.240412276259L177.85646022059916,147.37740141739985L177.88660804602384,148.05959490208437L178.68803150452135,146.4474481436868L178.85590177810192,145.48016008864823L179.52895385092017,141.86759298181272L179.59553341575383,138.6893212931072L179.63039417666675,136.78235827988394L180.3828928762865,141.7025690195748L180.4902430735183,143.6439640387852L180.544778469882,144.80880105031144L181.03686878165246,146.51843468183134L181.18192246279003,148.55494628534743L181.24723028312684,149.77685324745704L181.31672737945317,150.50999742472283L181.9573125633526,153.98207820489472L183.0027613482404,157.07605809760202L183.13562124390842,159.94317745783053L183.42325992568968,163.68491192317595L183.47398008856297,165.92995260238317L183.57586926530837,167.2769770099075L183.74209375189304,167.074460229818L183.91183423796895,164.93148731255596L184.13027505742312,163.64570356219875L184.8737967370653,161.8635018873803L184.92092609194756,161.80491230709333L185.16121099334717,159.7482957097129L185.40344091574192,158.51432575128464L185.40351572424174,157.77394377622767L185.5137086444664,157.3297145911935L185.87967182555198,158.07390850477714L186.22715730718375,158.5204248529273L186.3337594194174,158.78833466181743L186.41013889772654,159.95981197175564L186.7502183378768,161.6734297823227L186.99012919677733,162.70160046866295L187.02349378769398,163.3185028804671L187.1882969127822,163.68864432754958L187.25727034960985,163.91072919579906L187.33200404092312,164.04398011674877L188.30720764448643,163.11319924471445L188.80251472174882,160.53326787228553L189.39252935977458,155.9531147750158L189.51529010796784,153.20502291665395L189.64336225964786,150.54543637703267L190.00416365424636,147.9389530286558L190.50837294298648,146.37506301962964L190.55587634036777,145.43672901421397L190.55595114886762,143.86299718636042L191.40540166424512,146.96168378806485L191.48799024803876,148.8208957490875L191.77615258931874,150.94715435030525L191.92307648295164,153.23364093564004L192.06207067560433,154.60553288684093L192.10052224450826,156.43939948216558L192.3740221198249,158.55045086396453L192.47426550957442,160.82781311764805L192.86543915509702,163.2049618944623L193.02148968570708,164.63125116055085L193.17050821733474,166.4977561448081L193.31937713196277,167.6176591353625L193.75693204736947,167.27886950509094L194.05923319511413,165.05413287771975L194.51855738396645,160.6870966274846L194.75869266836642,157.05614345273938L195.02987348018883,153.86684012328809L195.7827462223077,152.96398955022147L195.90737718299627,151.41154778177733L195.99048942628858,149.4693512961067L196.0604353736138,149.31476482930847L196.1272393639469,149.22201294922954L196.34081763091328,150.17709324578635L196.38308443330766,149.73940999911628L196.7546582518792,151.49826290032252L196.9822257083106,153.5643060656504L197.01237353373529,155.81466338945128L197.29170847203733,157.1648777837318L197.45591312912703,156.96427499569597L197.79539410127876,157.85464474747863L198.2654907141042,159.39959802315235L198.5402623339176,158.3051071393483L198.66272384811163,157.64841260906587L198.7751610233307,159.2758587401047L198.81099429474114,160.252326418728L198.91041479099275,159.82747560129783L199.17650862482787,159.57256511083975L199.3917326787901,159.41961881656488L199.66867374509812,159.32785103999996L200.83980080967186,160.28352179866516L200.87466157058478,160.85692425386426L200.97849576832533,161.20096572698372L201.3116928264928,164.43958488466785L201.49257977904082,167.39348780388246L202.02057817072154,167.14436670620296L202.4665116381073,166.99489404759524L202.83718775468108,164.8837476032223L202.98904900930168,162.60632831199442L203.05921938212632,162.25060816186183L203.12804320195437,162.03717607178228L203.4969239145327,161.90911681773454L203.61706636523246,160.82154984070175L203.87620300858498,160.1690096544821L203.90926836550236,159.7774855427503L204.3505637058997,159.5425710757112L204.5745403543401,161.42308524469604L204.61104690224886,162.55139374608697L205.49386200854303,161.20691599771322L206.21800828673364,162.42169219789724L206.4232828102207,163.15055791800768L206.4861219500637,163.58787735007394L206.58771189280986,162.83953758470955L207.53942562743185,161.37980230088675L207.76018551038027,160.5039611305931L207.80342482327222,160.98918785302104L207.84082907317878,161.2803238864778L207.99493458279372,161.45500550655186L208.07497967759372,160.54908305399215L208.5411862484288,160.00552958245632L209.05235272765162,160.69012892413897L209.65732906563997,162.11161995375272L209.76206096537828,161.9537831469168L210.1236104449749,161.85908106281525L210.45231899315357,161.80225981235432L210.96752513136627,161.76816706207777L211.18207590883017,160.7369799873077L211.32189299498083,161.1289991670498L211.88310636057852,160.35347925029092L211.9567179243946,158.87743587563145L212.0230730637288,157.99180985083578L212.40302543427944,159.48189708516662L212.4387090886903,160.37594942576516L212.50872984451533,160.91238083012428L212.6230372322297,161.23423967273976L212.7249264089751,160.41662355370488L212.96326628937962,158.91532245767982L213.16913928086518,157.00381037546063L213.89627789904833,156.86763455073327L214.08861055206776,156.78592905589684L214.3615119593859,157.74763718359915L214.3621852358842,158.32466206022053L214.43512352320195,158.67087698619335L214.52392121248005,158.87860594177707L214.9795049763417,155.97104904131484L215.11842436049463,155.23724632564165L215.2206875797391,154.79696469623772L215.291157186563,155.54352714319953L215.65689594214916,155.9914646113766L216.22708632772444,158.28168994149115L216.55631853540183,158.64509371495572L216.80879722227098,160.88459882824276L216.9503349039173,162.228301896215L217.27530302710534,161.01306088779L217.48925533657075,160.28391628273505L217.55523643340587,159.84642951970207L217.7613338503909,161.60540031109056L217.96047407689332,162.66078278592366L218.33780814995052,163.29401227082352L218.57390377536058,163.67394996176344L218.77461498035908,163.9019125763274L218.899919217546,164.03869014506577L218.96792014387606,164.12075668630877L219.02238073174,163.15926518645045L219.0995082950473,162.58237028653542L219.9596564258981,161.2255019219823L219.95973123439788,160.4113809032504L220.09573308705805,160.9336397166154L220.128574018476,160.23626358003028L220.49132043406965,159.8178378980792L220.52371251448872,159.56678248890856L220.5237873229885,159.41614924340615L221.0779686896038,154.27211217308403L221.83779862220527,153.207152780099L221.9414083944464,152.568177144308L221.9782889848542,152.1847917628334L222.04614029418468,151.95476053394864L222.8463668166852,153.83820464582607L222.846441625185,154.96827111295255L222.94795675943138,155.6463109932284L222.94803156793117,156.05313492139393L223.6351476387143,160.34015497670984L223.6677641446328,162.91236700989938L224.11646552651166,163.44496280520895L224.48751568558455,163.76452028239467L224.95843519190788,162.94552334410199L225.08725542858602,161.44339375652223L225.33517079696657,160.54211600397437L225.4960838800645,160.00134935244566L225.52892481148243,159.67688936152842L225.67510062011718,159.4822133669781L225.78903396533252,158.35467634564375L226.14661859443905,159.69961698205142L226.50801845703603,160.50658136389603L226.70611136454104,160.9907599930028L226.9579167749119,161.28126717046686L227.0141727667713,160.44484005234116L227.03915880570887,159.94298378146573L227.28325894059896,158.63113859433633L227.3263486364913,157.84403148205868L227.36771773688793,157.3717672146921L227.5489039234352,157.08840865427217L228.06814972063782,155.90766209341604L228.74382009094953,156.20994558150653L229.84746988869188,160.43424137277736L229.89916256206274,162.9688188475399L229.93118059998272,164.4895653323974L230.00501658929826,165.4020132233119L230.3656683668971,164.93875053325647L230.60857156579019,165.67152434382734L230.81272396178008,166.11118863016986L230.87765773961783,165.36425577737123L231.2276867102432,165.9268274902962L231.22776151874305,165.25363909344705L231.3906196228361,162.82826320612926L231.6032253793049,162.38376909834275L232.19286597483156,162.11707263367083L232.44818738469363,160.94632333026354L232.83771524322032,161.2546051728233L232.87130425963642,161.43957427835915L233.0159838982749,161.55055574168065L233.4014720978117,161.61714461967358L233.4347618802285,161.65709794646932L233.48398587310552,162.69180136715093L233.91518206602814,164.32335484416402L233.948845890944,165.30228693037188L234.11379863303185,165.88964618209658L234.27964907711743,165.23133030852728L234.31249000853538,164.83634078438567L234.7506433919406,162.57788422069245L234.76336083690882,161.2228102824765L235.0796511741185,158.38830307033865L235.11488597753046,155.6768673184518L235.67916649162055,155.06073729192383L236.21539381828072,156.71252212521532L236.42852323424816,156.6928616005861L236.47565258913042,156.68106528580856L236.50826909504892,155.66325607233787L236.64651520270348,155.05257054425547L236.7369586789775,154.68615922740602L236.86405832015993,154.46631243729638L237.99037509334565,158.37733006164714L238.0834368671131,160.72394063625762L238.32604083200692,160.1104441318156L238.3950890773344,158.73161480454624L238.60702155730485,157.90431720818464L238.6811567806196,156.39720722576354L238.84461335271118,155.49294123631088L239.1178888025284,156.97184449184755L239.49933734307527,158.8699178697737L239.55058116544723,158.99803047192526L240.08478866261245,159.07489803321621L240.5421678304696,158.1102871453866L240.5495738719511,158.542252037293L240.60829854430438,156.77996812322854L241.43051876574992,158.75479204860233L241.77052339740038,159.93968640382656L242.24121847822425,160.65062301696113L242.5501775824523,162.087916409446L242.79794333383322,162.9502924449369L243.03792900123358,163.46771806623147L243.2034054028201,163.7781734390082L243.23602190873862,163.96444666267425L243.42962630625485,166.09767344608215L244.35949595893143,167.3776095161269L244.476945303638,167.1348397335496L244.73316441549778,167.99990928860737L244.76750151691198,168.51895102164204L244.7675763254118,168.83037606146283L244.98414693237066,169.0172310853553L245.71143516755342,169.1293440996908L245.82933336325885,169.19661190829208L246.62716601376533,168.2262411688487L246.7522458254528,166.63328730057856L247.12045326153276,166.6882464042206L247.29408378959894,165.71049044180168L247.46300138217688,164.1131054397462L247.95778479994058,163.15467443851287L248.1992666373372,161.56888441316877L248.2843987101245,160.6174103979623L248.48675570211887,161.05725741344256L248.74970757896185,161.32116562273072L248.7849423823738,160.46877912369948L248.99567792634727,161.978810073489L249.2177843622923,162.88482864336274L249.29715618059396,162.4177083606828L249.35992051193713,162.13743619107487L249.51275427705525,160.95854146470595L249.69588548459768,160.2512046288846L249.77031994191168,158.81607110278767L250.025940585773,157.9549909871295L250.85661416769744,156.42761149313043L250.98453670237782,154.50045237212686L251.20881258481742,153.34415689952473L251.49218718210938,150.62891676675517L251.65212775470974,150.01050411169754L251.8618907881856,150.65018794326713L252.1456394279766,150.02326681760474L252.31814782854556,149.6471141422073L252.3898143713665,150.432153961573L252.9709267979145,152.9246407024007L253.73090634751557,156.4415955961056L253.83593748125313,159.56249995693267L254.12252884403708,162.44577399803308L254.31052260406733,165.18646984729745L254.3468795349765,166.8308873568561L254.4784676861477,167.81753786259125L254.86320780068635,166.38806531682408L255.33098535001756,165.53038178936376L255.67136402416705,165.01577167288758L256.01959759079693,162.68554275379358L256.2975111676026,161.28740540233719L256.44802586922646,160.44852299146334L256.5885162318754,159.94519354493906L257.68917368962525,159.64319587702445L257.82988847777364,160.47272870087986L258.8113011868215,160.97044839519307L258.9424404869938,159.24761736257275L258.9763287374091,158.21391874300053L259.04619987623454,157.59369957125722L259.0462746847343,157.2215680682112L259.71423977956533,158.00902059098777L259.75942411345244,158.4814921046537L259.8296692947769,158.76497501285326L260.02260041579484,157.92433333316885L260.04721241223336,157.41994832535818L260.1779776699066,157.11731732067182L260.3205626705504,157.94647014246414L260.56039872095107,157.43323041093535L260.5894992273784,157.1252865720181L260.664083301692,157.9512516932719L260.8499076152277,157.43609934142003L261.2249226247907,156.11627650570477L261.33249724752187,155.32438280427561L261.36354277494434,154.8492465834181L262.3473493559861,156.5856277001119L262.65301688622236,158.63818779473232L262.72281321654793,160.88045527610873L262.92853659103395,162.22581576493457L263.1291729875326,164.04376348283418L263.1612658339524,165.13453211357398L263.251484884727,166.799724716622L263.2522329697251,167.79884027845083L263.3321284475255,168.3983096155481L263.4185322648096,168.75799121780645L263.656124060216,167.96306875455736L263.80895782533406,165.46465242739959L263.993884436872,161.94413978189664L264.1392373520088,159.83183219459488L264.1740233044219,158.56444764221382L264.33493638751986,157.80401691078518L264.4701901551819,157.347758471928L264.7112979500794,157.0740034086137L264.901984816103,155.89901894602096L264.9937000368738,153.17256541925704L265.11930350805994,150.52596187859453L265.339016072011,146.91653690498876L265.7685664779377,143.74015049622113L265.8445719137478,140.82358722635644L265.9169865415668,140.08438068904175L266.254298067224,142.67305104046537L266.28908401963713,145.23698467592368L266.4520917407298,146.77534485719866L266.63873894776344,146.6876295413595L266.7083856610894,146.63500035185604L267.1137729215765,147.61415426275806L267.15140159698245,147.19091518469514L267.1849158048987,146.93697173785742L267.22965128778696,146.78460566975477L268.03257091628075,150.73611172730975L268.0741644421768,152.0962839372386L268.4213506898093,152.9123872631959L268.63620070127246,155.42351210797858L268.896534280622,155.91945559024404L269.1701837729383,154.19555883039502L269.34680664099693,154.17195219908976L269.9665950619483,155.16851964491076L270.173216138432,154.7557286877992L270.36068623896364,155.5187855381364L270.60867641584395,155.97661964833873L271.5080242005968,157.2620515390643L271.88393691215754,160.0547735227079L271.98088872791527,161.73040671289405L272.0159739143276,162.73578662700575L272.0932510946345,162.32828315086863L272.25229396523713,159.05158679137392L272.4043048368573,157.08556897567712L272.51150541708944,156.91668971086315L272.70308998511075,156.8153621519748L272.7348835975313,155.74383419203764L272.90956144459483,154.09018599147117L273.61717504432676,151.07653422192303L273.68390422616005,149.26834316019412L274.07283361668823,149.19415994776094L274.0827831471634,149.14965002030104L274.16417479496005,148.11221263922093L274.302645328114,147.48975021057288L274.37476072193385,147.11627275338404L274.4767247071791,146.89218627907076L274.9433053205133,146.75773439448275L275.0463914332557,146.67706326372996L275.25735140272855,146.6286605852783L275.5726692294407,148.6210818274156" fill="none"></path></g></g></g></g><g opacity="0.2"><g><g><g><path style="fill: none;" stroke="rgb(255, 112, 67)" stroke-width="2px" d="M37.449359431927206,176.8779993057251L37.551772268171305,176.8779993057251L37.71552807426214,176.8779993057251L37.76295666314363,176.8779993057251L37.772083300120826,176.8779993057251L37.872625923869606,176.8779993057251L37.881228901348116,176.8779993057251L37.949155019178384,176.8779993057251L37.99007526857615,176.8779993057251L38.02673143348456,176.8779993057251L38.06697840638399,176.8779993057251L38.12203746224642,176.8779993057251L38.15697303165913,176.8779993057251L38.1779942201066,176.8779993057251L38.2649216968894,176.8779993057251L38.31564185976267,176.8779993057251L38.32708756023407,176.8779993057251L38.575302162613866,176.8779993057251L38.604178243541725,176.8779993057251L38.624077304492,176.8779993057251L38.645622152438165,176.8779993057251L38.85957446190357,171.82434218270438L39.27962418835401,146.5560565676008L39.45258143992186,146.5560565676008L39.479138457355496,146.5560565676008L39.85026342492819,146.5560565676008L40.01244825252295,121.28777095249721L40.02172450649977,118.76094239098686L40.11209317427397,96.01948533739363L40.22161281800031,78.33168540682111L40.25333162192106,83.38534252984184L40.36210318064928,83.38534252984184L40.397786835060124,85.91217109135219L40.54448630319357,75.80485684531077L40.80803664803505,53.063399791717536L40.87686046786308,50.536571230207166L40.901547272801395,48.009742668696816L41.11894077325821,42.956085545676096L41.20459650554418,37.90242842265538L41.300650619304186,37.90242842265538L41.32556184974193,35.37559986114501L41.43897153545857,30.321942738124292L41.50607475979089,25.268285615103593L41.56539790014267,20.214628492082873L41.680004521856304,12.634142807551788L41.69923030630827,7.580485684531069L41.80164314255238,-2.5268285615103494L42.41589573451757,-2.5268285615103494L42.42891241348505,2.5268285615103494L42.44432296444655,2.5268285615103494L42.48464474584579,2.5268285615103494L42.60845281303644,-2.5268285615103494L42.648026509437564,0L42.663137826399804,-5.053657123020699L42.9165142152667,-2.5268285615103494L43.24843952893734,2.5268285615103494L43.347037131690975,-2.5268285615103494L43.35399432217359,-5.053657123020699L43.98874444308758,2.5268285615103494L43.993307761576176,5.053657123020718L44.120033360259534,-2.5268285615103494L44.63957839146137,-7.580485684531088L44.77468254212379,2.5268285615103494L45.034342844974994,5.053657123020718L45.606253826045986,7.580485684531069L45.677097475368974,10.107314246041437L46.10171052030802,15.160971369062157L46.493632250828746,25.268285615103593L46.71125017678499,17.687799930572506L46.74775672469377,17.687799930572506L46.835357477974895,17.687799930572506L46.97592264912367,20.214628492082873L47.232216569483285,17.687799930572506L47.243288227455615,17.687799930572506L47.27680243537187,15.160971369062157L47.43262854048252,22.741457053593226L47.63543438347578,20.214628492082873L48.03723083597183,17.687799930572506L48.14832145819425,22.741457053593226L48.24991140094041,20.214628492082873L48.629788962991235,22.741457053593226L48.85862816391945,27.795114176613943L48.93889768421889,27.795114176613943L49.67127289738893,32.84877129963466L49.905722735803124,37.90242842265538L50.05302067193508,37.90242842265538L51.04894622994661,20.214628492082873L51.08582682035446,22.741457053593226L51.15839106517315,25.268285615103593L51.39373860558509,25.268285615103593L51.470940977392196,20.214628492082873L51.61726640302658,25.268285615103593L51.64344937796116,27.795114176613943L51.78872748459816,25.268285615103593L52.12746037175179,30.321942738124292L52.3580201681757,27.795114176613943L52.35809497667552,27.795114176613943L52.41846543602467,32.84877129963466L52.53823384422541,27.795114176613943L52.73655117722988,27.795114176613943L52.97698569562912,40.42925698416573L53.065184916908734,37.90242842265538L53.077977170376776,37.90242842265538L53.21285689553976,35.37559986114501L53.279436460373404,35.37559986114501L53.3983819750762,35.37559986114501L53.465859241907594,30.321942738124292L53.55764927117824,35.37559986114501L53.614578539536,35.37559986114501L53.927502494254114,40.42925698416573L54.03395498948812,42.956085545676096L54.05101132744551,40.42925698416573L54.3100731622982,35.37559986114501L54.57781278312921,35.37559986114501L54.63279703049183,32.84877129963466L54.8419615959692,32.84877129963466L55.06047722392321,32.84877129963466L55.07798241287947,32.84877129963466L55.65153918094635,42.956085545676096L55.77115797214747,45.48291410718645L56.31838214828014,35.37559986114501L56.454009958441254,37.90242842265538L56.45408476694107,37.90242842265538L56.50420646181584,40.42925698416573L56.59158278959751,45.48291410718645L56.6916017538476,50.536571230207166L56.81047246005058,50.536571230207166L56.90256172332048,48.009742668696816L57.034673533990386,55.590228353227886L57.56745966965914,68.22437116077967L57.782758532121186,75.80485684531077L58.07353917089462,70.75119972229004L58.16906962515592,68.22437116077967L58.64402879046917,73.2780282838004L58.91034704980373,73.2780282838004L58.94640474671364,68.22437116077967L59.144647271218304,70.75119972229004L59.14472207971811,70.75119972229004L60.263782428421976,68.22437116077967L60.86344736292362,73.2780282838004L60.898233315336704,73.2780282838004L61.40266702957631,75.80485684531077L61.45166659695387,75.80485684531077L61.873062876400944,83.38534252984184L61.93006695325852,83.38534252984184L62.22107201753139,80.85851396833148L62.309121621811386,78.33168540682111L62.52284950577736,70.75119972229004L62.69782658684016,73.2780282838004L62.800688274083136,75.80485684531077L62.85395192595005,70.75119972229004L63.0847361478734,68.22437116077967L63.29592054284573,63.170714037758955L63.53732757174254,60.643885476248606L63.573310460152626,58.11705691473826L63.9283516002655,55.590228353227886L64.0186454595399,58.11705691473826L64.14320161172867,55.590228353227886L64.21868338804006,50.536571230207166L64.41363433855295,58.11705691473826L64.63214996650696,55.590228353227886L64.73224373925686,58.11705691473826L64.74032305723668,55.590228353227886L65.30624935832262,58.11705691473826L65.47277307890654,55.590228353227886L65.52109936978579,53.063399791717536L66.1806111041379,53.063399791717536L66.32371976428033,58.11705691473826L66.51425701330423,55.590228353227886L66.75439229770423,60.643885476248606L66.9824834136343,65.69754259926933L67.0385149799943,65.69754259926933L67.06709182692289,70.75119972229004L67.16576423817634,63.170714037758955L67.3114163873124,65.69754259926933L67.9582106766963,68.22437116077967L68.71699329030038,85.91217109135219L68.76277609218597,83.38534252984184L69.0819839608884,75.80485684531077L69.17736479815007,75.80485684531077L69.48460330688238,80.85851396833148L70.6280512265253,101.07314246041433L70.69223691936493,93.49265677588326L70.95743305120229,101.07314246041433L71.08131592689276,98.54631389890399L71.10353405133725,98.54631389890399L71.6637749064374,103.59997102192469L71.95021665222168,103.59997102192469L72.01290617506504,106.12679958343506L72.14090351824522,98.54631389890399L72.14097832674504,101.07314246041433L72.5342466102624,101.07314246041433L72.54935792722463,103.59997102192469L72.86422690293789,101.07314246041433L72.9380628922534,106.12679958343506L73.0141431365633,101.07314246041433L73.07271819191695,101.07314246041433L73.35512027871133,103.59997102192469L73.39753669810533,103.59997102192469L73.53383778476477,101.07314246041433L73.92575951528549,106.12679958343506L73.97805065665483,108.65362814494543L74.19297547661782,111.18045670645577L76.39833005110741,108.65362814494543L76.71955774930478,108.65362814494543L77.0176696210599,101.07314246041433L77.36695050668716,96.01948533739363L77.5050469973421,93.49265677588326L77.67957522740602,90.9658282143729L77.71054594632865,93.49265677588326L77.77121563967705,96.01948533739363L77.80405657109499,96.01948533739363L77.97544284416676,93.49265677588326L78.21587736256599,90.9658282143729L78.97563248666764,93.49265677588326L79.56355248669863,88.43899965286255L79.86877116593598,93.49265677588326L79.93385456077337,90.9658282143729L80.56583676719427,101.07314246041433L80.66525726344585,98.54631389890399L81.64764248299122,98.54631389890399L82.35570493372201,103.59997102192469L82.58544183664799,106.12679958343506L82.68254326940537,108.65362814494543L83.26522667444945,101.07314246041433L83.64413172600268,93.49265677588326L84.38002293866396,90.9658282143729L84.44159033401013,90.9658282143729L84.47749841392042,90.9658282143729L85.39412696213006,85.91217109135219L85.51052898783922,88.43899965286255L85.74475440075398,93.49265677588326L85.93170084178686,98.54631389890399L85.95952960371733,93.49265677588326L86.40673481559992,96.01948533739363L86.58305844965935,93.49265677588326L86.71045732484103,90.9658282143729L86.72414728030681,90.9658282143729L87.04103608551503,96.01948533739363L87.08225556891203,93.49265677588326L87.33398617078305,90.9658282143729L87.3794697386694,93.49265677588326L88.37457240318298,106.12679958343506L88.66654997795342,106.12679958343506L88.66662478645326,106.12679958343506L88.88446713790894,116.2341138294765L88.95665734022856,116.2341138294765L89.13911527127266,121.28777095249721L89.35187064474106,123.81459951400755L89.7776806256771,123.81459951400755L89.98572306365729,131.39508519853865L90.01811514407635,133.921913760049L90.24448566451072,133.921913760049L90.35804496722699,136.44874232155937L90.5068390733552,138.9755708830697L90.95052828574657,131.39508519853865L91.08765226590396,128.8682566370283L91.12587940930842,126.34142807551792L91.2338280745387,126.34142807551792L91.42675919555663,126.34142807551792L91.4963311003828,128.8682566370283L91.57944334367514,131.39508519853865L91.6461725255084,131.39508519853865L91.80461692811251,131.39508519853865L92.08731824890614,121.28777095249721L92.26251975546838,113.70728526796613L92.35199072124482,116.2341138294765L92.46016381197451,121.28777095249721L92.85141226599693,121.28777095249721L92.89936451437713,121.28777095249721L93.01741232708216,118.76094239098686L93.10905273935317,116.2341138294765L93.14421273426532,116.2341138294765L93.46596409196138,118.76094239098686L93.51331787234305,118.76094239098686L93.527755912807,118.76094239098686L93.71298175834417,116.2341138294765L93.85796063098192,113.70728526796613L93.94212019327163,113.70728526796613L94.21015904810191,126.34142807551792L94.37114693969966,118.76094239098686L94.93049009280205,113.70728526796613L95.57526455269098,111.18045670645577L95.7835314161706,108.65362814494543L96.21816880008458,111.18045670645577L96.25123415700197,113.70728526796613L96.68856464690924,116.2341138294765L97.42707415706397,126.34142807551792L97.5119818043518,126.34142807551792L97.78974576415777,118.76094239098686L98.27233539645195,116.2341138294765L98.318342623837,113.70728526796613L98.52032557333231,108.65362814494543L98.60321339112521,106.12679958343506L98.85337301450014,101.07314246041433L99.1928539866519,98.54631389890399L99.48258730642796,96.01948533739363L100.08651632541896,108.65362814494543L100.44230555052997,116.2341138294765L100.83594787654637,118.76094239098686L101.72227898233176,131.39508519853865L101.7539229777527,133.921913760049L101.9627883092308,128.8682566370283L102.16821244971753,128.8682566370283L102.1852687876749,128.8682566370283L102.21743644259452,126.34142807551792L102.4442558140278,118.76094239098686L102.45824500349283,118.76094239098686L102.49033784991265,118.76094239098686L102.50761861336946,118.76094239098686L102.67249654695749,118.76094239098686L102.71581066834928,121.28777095249721L103.1963804711485,111.18045670645577L103.92202291933536,108.65362814494543L104.01897473509312,113.70728526796613L104.40349042413234,116.2341138294765L104.53844495779514,118.76094239098686L104.67137966196299,118.76094239098686L105.05484803200484,123.81459951400755L105.14663806127548,118.76094239098686L105.19907881964446,116.2341138294765L105.31809914284707,113.70728526796613L105.58434259368181,116.2341138294765L106.07815350094795,111.18045670645577L106.14338651278496,111.18045670645577L106.963811330235,121.28777095249721L107.76800270322562,126.34142807551792L108.11182256836653,121.28777095249721L108.32502679283381,121.28777095249721L108.54099893179416,121.28777095249721L108.64864836302517,126.34142807551792L108.7356506483078,128.8682566370283L108.77350374921322,126.34142807551792L108.99426363216162,128.8682566370283L109.21524794060946,123.81459951400755L109.4757311369586,126.34142807551792L109.71384659186363,121.28777095249721L109.92989353932381,123.81459951400755L110.0311094395709,128.8682566370283L110.67311598496676,136.44874232155937L110.86088531949758,141.50239944458008L111.32664303933382,126.34142807551792L111.32671784783363,126.34142807551792L111.34399861129044,128.8682566370283L111.50019875890017,121.28777095249721L111.57216453572035,121.28777095249721L111.83302177456855,118.76094239098686L112.51864167535544,126.34142807551792L112.81675354711055,123.81459951400755L112.9805841617012,126.34142807551792L113.21989655260325,131.39508519853865L113.50970468087911,131.39508519853865L113.56356680074454,126.34142807551792L113.75881698525667,128.8682566370283L114.0374786470604,138.9755708830697L114.37868021470786,146.5560565676008L114.78114994370222,144.02922800609045L114.8175816831112,144.02922800609045L114.88812609843492,144.02922800609045L115.2791501269579,141.50239944458008L115.95788764576197,141.50239944458008L116.03501520906924,138.9755708830697L116.11461145287036,138.9755708830697L116.16121714825391,136.44874232155937L116.2458255615425,136.44874232155937L116.32938665583372,136.44874232155937L116.40576613414287,141.50239944458008L116.90197091340303,144.02922800609045L117.23584124806881,144.02922800609045L117.48757184993983,141.50239944458008L117.61018298113346,136.44874232155937L118.25031931403399,138.9755708830697L118.29056628693343,138.9755708830697L118.30066543440819,138.9755708830697L118.47160285648108,138.9755708830697L118.5220985938549,136.44874232155937L118.78557413019658,141.50239944458008L118.85514603502273,141.50239944458008L119.2987604389143,146.5560565676008L119.37184834323168,146.5560565676008L119.37192315173148,146.5560565676008L119.45982313901186,144.02922800609045L119.49416024042607,144.02922800609045L120.10758993889331,149.08288512911116L120.3917874296832,154.13654225213187L121.06356775800465,154.13654225213187L121.11757949486972,154.13654225213187L121.4201050681138,151.60971369062153L121.62612767659903,149.08288512911116L121.74275412780761,149.08288512911116L122.30935370539187,144.02922800609045L122.50632448539973,138.9755708830697L122.62983331859112,138.9755708830697L122.80787754814624,138.9755708830697L123.04217776956082,126.34142807551792L123.10928099389315,126.34142807551792L123.47494494097948,126.34142807551792L123.61947496261836,128.8682566370283L123.77245834473611,123.81459951400755L124.03967430606842,123.81459951400755L124.25033504154204,126.34142807551792L125.08257960196256,128.8682566370283L125.1165426608777,131.39508519853865L125.37178926223993,131.39508519853865L125.61544054613114,141.50239944458008L125.80163890216589,141.50239944458008L125.9795335147214,144.02922800609045L126.91381686888694,141.50239944458008L127.654196591537,131.39508519853865L127.7548140237856,126.34142807551792L127.93884293332577,128.8682566370283L128.05157934254407,128.8682566370283L128.48442132246257,113.70728526796613L128.83729301608085,116.2341138294765L129.37135089624644,118.76094239098686L129.65307970654248,121.28777095249721L130.04926552155257,126.34142807551792L130.44881771905423,126.34142807551792L130.62805888460636,128.8682566370283L131.2311650100994,149.08288512911116L131.3020086594224,149.08288512911116L131.38714073220967,149.08288512911116L131.42342285461902,149.08288512911116L131.47212318799734,146.5560565676008L132.11001526590348,146.5560565676008L133.06419768101932,149.08288512911116L133.10055461192846,151.60971369062153L133.2649836945176,151.60971369062153L133.43038528760434,149.08288512911116L134.63435328359603,138.9755708830697L134.71783956938745,144.02922800609045L135.22519081511973,151.60971369062153L135.45889256853582,154.13654225213187L135.52734234586478,154.13654225213187L135.88769488946437,156.66337081364222L135.95659351779224,156.66337081364222L136.2291956911111,159.1901993751526L136.426540513618,159.1901993751526L136.7199394498849,161.71702793666293L136.97959975273608,156.66337081364222L137.52951703486204,151.60971369062153L137.72162526238202,149.08288512911116L138.2716921615076,146.5560565676008L138.55910641778945,146.5560565676008L138.8012615316844,138.9755708830697L138.83874059009077,141.50239944458008L139.53939699934006,144.02922800609045L139.58570346072435,149.08288512911116L139.7204335688877,146.5560565676008L139.8032465781808,146.5560565676008L140.054902371552,151.60971369062153L140.77306396975757,149.08288512911116L140.8258787706256,146.5560565676008L140.92462599037884,146.5560565676008L141.82763939162254,136.44874232155937L141.97239383876084,133.921913760049L142.1103407124162,133.921913760049L142.11041552091598,133.921913760049L142.1659982362771,133.921913760049L142.3249662983799,133.921913760049L142.51385776040792,133.921913760049L142.73147568636418,133.921913760049L142.82895116162064,128.8682566370283L142.86328826303483,126.34142807551792L143.0479156405735,131.39508519853865L143.28386164898396,136.44874232155937L143.3149819849062,136.44874232155937L143.4304863086176,138.9755708830697L143.51195276491404,141.50239944458008L143.9206315993929,133.921913760049L144.09650638245344,141.50239944458008L144.5515664868164,151.60971369062153L144.75960892479657,151.60971369062153L144.9420668558407,151.60971369062153L145.0851755159831,149.08288512911116L145.11981185139655,149.08288512911116L145.85480536206006,151.60971369062153L145.86961744502307,149.08288512911116L145.91435292791127,146.5560565676008L146.0527486525655,146.5560565676008L146.43928417109967,151.60971369062153L146.4400322560978,151.60971369062153L146.474369357512,151.60971369062153L146.5091553099251,151.60971369062153L146.54483896433592,151.60971369062153L146.77278046326637,154.13654225213187L147.74499172683716,159.1901993751526L148.05432487356424,161.71702793666293L148.45948770855188,164.2438564981733L148.99751043920756,164.2438564981733L149.13680386585952,164.2438564981733L149.3770139587593,164.2438564981733L149.47508790201425,161.71702793666293L149.62612626313688,161.71702793666293L150.3697975597787,156.66337081364222L150.69858091645716,154.13654225213187L150.7331424433708,154.13654225213187L151.50868216093303,149.08288512911116L152.11089058442832,154.13654225213187L152.4059353076911,151.60971369062153L152.58547570724247,154.13654225213187L152.9182987229109,159.1901993751526L152.95143888832808,159.1901993751526L153.1528233698249,159.1901993751526L153.19134974722863,161.71702793666293L153.29735339146376,159.1901993751526L154.10618289144278,154.13654225213187L154.1470283323407,151.60971369062153L154.2201162366581,151.60971369062153L154.49264360147714,156.66337081364222L154.5272051283908,156.66337081364222L154.56408571879862,156.66337081364222L154.5690978882861,156.66337081364222L155.37336406977653,144.02922800609045L155.69840700146437,146.5560565676008L155.73760665536642,146.5560565676008L155.88303437900305,151.60971369062153L155.95978789981126,151.60971369062153L156.08987988098622,154.13654225213187L156.26560504704713,154.13654225213187L156.4975862049675,151.60971369062153L156.84836326059101,146.5560565676008L157.279409836514,144.02922800609045L157.40553696719883,146.5560565676008L157.5161787384224,146.5560565676008L157.60146042820932,146.5560565676008L158.23598612362383,151.60971369062153L158.424428734653,154.13654225213187L159.03292107213258,151.60971369062153L159.0329958806324,151.60971369062153L159.11730505992173,149.08288512911116L159.1485002043438,151.60971369062153L159.20707525969743,154.13654225213187L159.3892339567423,156.66337081364222L159.96436170330523,151.60971369062153L160.16784082279682,151.60971369062153L160.83109298213958,154.13654225213187L161.08820979599716,154.13654225213187L161.12711021589993,151.60971369062153L161.54573858085396,154.13654225213187L161.71173864193915,154.13654225213187L162.1174999449253,151.60971369062153L162.31731344792604,154.13654225213187L162.38067624726773,151.60971369062153L162.4679029580498,151.60971369062153L162.53852218187333,149.08288512911116L163.7121927354407,149.08288512911116L163.82507876165866,146.5560565676008L163.8733302440381,146.5560565676008L164.0735177895379,146.5560565676008L164.21700049217938,149.08288512911116L164.29397843848707,149.08288512911116L164.96082140582084,151.60971369062153L165.57178242379425,149.08288512911116L166.5041207569647,151.60971369062153L167.56991745380162,151.60971369062153L167.79479180423974,154.13654225213187L168.18147693977355,159.1901993751526L168.65479031809093,159.1901993751526L169.32746834841012,156.66337081364222L169.70098718797684,159.1901993751526L169.9427682593727,159.1901993751526L170.2578616605854,159.1901993751526L170.5906846762538,159.1901993751526L170.66354815507174,159.1901993751526L170.72937963490725,159.1901993751526L170.72945444340706,161.71702793666293L171.1047686869693,164.2438564981733L171.3497665238571,166.77068505968367L171.52833441291094,161.71702793666293L172.85805549708843,161.71702793666293L173.82996752665994,159.1901993751526L174.10990093296053,156.66337081364222L174.14468688537357,156.66337081364222L174.161743223331,154.13654225213187L176.25488504810096,151.60971369062153L176.4302361716628,154.13654225213187L176.50549352247475,154.13654225213187L176.75872029434206,151.60971369062153L177.15640227934838,151.60971369062153L177.33220225390912,146.5560565676008L177.5027656334829,144.02922800609045L177.6541032286048,144.02922800609045L177.85646022059916,149.08288512911116L177.88660804602384,149.08288512911116L178.68803150452135,144.02922800609045L178.85590177810192,144.02922800609045L179.52895385092017,136.44874232155937L179.59553341575383,133.921913760049L179.63039417666675,133.921913760049L180.3828928762865,149.08288512911116L180.4902430735183,146.5560565676008L180.544778469882,146.5560565676008L181.03686878165246,149.08288512911116L181.18192246279003,151.60971369062153L181.24723028312684,151.60971369062153L181.31672737945317,151.60971369062153L181.9573125633526,159.1901993751526L183.0027613482404,161.71702793666293L183.13562124390842,164.2438564981733L183.42325992568968,169.29751362119404L183.47398008856297,169.29751362119404L183.57586926530837,169.29751362119404L183.74209375189304,166.77068505968367L183.91183423796895,161.71702793666293L184.13027505742312,161.71702793666293L184.8737967370653,159.1901993751526L184.92092609194756,161.71702793666293L185.16121099334717,156.66337081364222L185.40344091574192,156.66337081364222L185.40351572424174,156.66337081364222L185.5137086444664,156.66337081364222L185.87967182555198,159.1901993751526L186.22715730718375,159.1901993751526L186.3337594194174,159.1901993751526L186.41013889772654,161.71702793666293L186.7502183378768,164.2438564981733L186.99012919677733,164.2438564981733L187.02349378769398,164.2438564981733L187.1882969127822,164.2438564981733L187.25727034960985,164.2438564981733L187.33200404092312,164.2438564981733L188.30720764448643,161.71702793666293L188.80251472174882,156.66337081364222L189.39252935977458,149.08288512911116L189.51529010796784,149.08288512911116L189.64336225964786,146.5560565676008L190.00416365424636,144.02922800609045L190.50837294298648,144.02922800609045L190.55587634036777,144.02922800609045L190.55595114886762,141.50239944458008L191.40540166424512,151.60971369062153L191.48799024803876,151.60971369062153L191.77615258931874,154.13654225213187L191.92307648295164,156.66337081364222L192.06207067560433,156.66337081364222L192.10052224450826,159.1901993751526L192.3740221198249,161.71702793666293L192.47426550957442,164.2438564981733L192.86543915509702,166.77068505968367L193.02148968570708,166.77068505968367L193.17050821733474,169.29751362119404L193.31937713196277,169.29751362119404L193.75693204736947,166.77068505968367L194.05923319511413,161.71702793666293L194.51855738396645,154.13654225213187L194.75869266836642,151.60971369062153L195.02987348018883,149.08288512911116L195.7827462223077,151.60971369062153L195.90737718299627,149.08288512911116L195.99048942628858,146.5560565676008L196.0604353736138,149.08288512911116L196.1272393639469,149.08288512911116L196.34081763091328,151.60971369062153L196.38308443330766,149.08288512911116L196.7546582518792,154.13654225213187L196.9822257083106,156.66337081364222L197.01237353373529,159.1901993751526L197.29170847203733,159.1901993751526L197.45591312912703,156.66337081364222L197.79539410127876,159.1901993751526L198.2654907141042,161.71702793666293L198.5402623339176,156.66337081364222L198.66272384811163,156.66337081364222L198.7751610233307,161.71702793666293L198.81099429474114,161.71702793666293L198.91041479099275,159.1901993751526L199.17650862482787,159.1901993751526L199.3917326787901,159.1901993751526L199.66867374509812,159.1901993751526L200.83980080967186,161.71702793666293L200.87466157058478,161.71702793666293L200.97849576832533,161.71702793666293L201.3116928264928,169.29751362119404L201.49257977904082,171.82434218270438L202.02057817072154,166.77068505968367L202.4665116381073,166.77068505968367L202.83718775468108,161.71702793666293L202.98904900930168,159.1901993751526L203.05921938212632,161.71702793666293L203.12804320195437,161.71702793666293L203.4969239145327,161.71702793666293L203.61706636523246,159.1901993751526L203.87620300858498,159.1901993751526L203.90926836550236,159.1901993751526L204.3505637058997,159.1901993751526L204.5745403543401,164.2438564981733L204.61104690224886,164.2438564981733L205.49386200854303,159.1901993751526L206.21800828673364,164.2438564981733L206.4232828102207,164.2438564981733L206.4861219500637,164.2438564981733L206.58771189280986,161.71702793666293L207.53942562743185,159.1901993751526L207.76018551038027,159.1901993751526L207.80342482327222,161.71702793666293L207.84082907317878,161.71702793666293L207.99493458279372,161.71702793666293L208.07497967759372,159.1901993751526L208.5411862484288,159.1901993751526L209.05235272765162,161.71702793666293L209.65732906563997,164.2438564981733L209.76206096537828,161.71702793666293L210.1236104449749,161.71702793666293L210.45231899315357,161.71702793666293L210.96752513136627,161.71702793666293L211.18207590883017,159.1901993751526L211.32189299498083,161.71702793666293L211.88310636057852,159.1901993751526L211.9567179243946,156.66337081364222L212.0230730637288,156.66337081364222L212.40302543427944,161.71702793666293L212.4387090886903,161.71702793666293L212.50872984451533,161.71702793666293L212.6230372322297,161.71702793666293L212.7249264089751,159.1901993751526L212.96326628937962,156.66337081364222L213.16913928086518,154.13654225213187L213.89627789904833,156.66337081364222L214.08861055206776,156.66337081364222L214.3615119593859,159.1901993751526L214.3621852358842,159.1901993751526L214.43512352320195,159.1901993751526L214.52392121248005,159.1901993751526L214.9795049763417,151.60971369062153L215.11842436049463,154.13654225213187L215.2206875797391,154.13654225213187L215.291157186563,156.66337081364222L215.65689594214916,156.66337081364222L216.22708632772444,161.71702793666293L216.55631853540183,159.1901993751526L216.80879722227098,164.2438564981733L216.9503349039173,164.2438564981733L217.27530302710534,159.1901993751526L217.48925533657075,159.1901993751526L217.55523643340587,159.1901993751526L217.7613338503909,164.2438564981733L217.96047407689332,164.2438564981733L218.33780814995052,164.2438564981733L218.57390377536058,164.2438564981733L218.77461498035908,164.2438564981733L218.899919217546,164.2438564981733L218.96792014387606,164.2438564981733L219.02238073174,161.71702793666293L219.0995082950473,161.71702793666293L219.9596564258981,159.1901993751526L219.95973123439788,159.1901993751526L220.09573308705805,161.71702793666293L220.128574018476,159.1901993751526L220.49132043406965,159.1901993751526L220.52371251448872,159.1901993751526L220.5237873229885,159.1901993751526L221.0779686896038,146.5560565676008L221.83779862220527,151.60971369062153L221.9414083944464,151.60971369062153L221.9782889848542,151.60971369062153L222.04614029418468,151.60971369062153L222.8463668166852,156.66337081364222L222.846441625185,156.66337081364222L222.94795675943138,156.66337081364222L222.94803156793117,156.66337081364222L223.6351476387143,166.77068505968367L223.6677641446328,166.77068505968367L224.11646552651166,164.2438564981733L224.48751568558455,164.2438564981733L224.95843519190788,161.71702793666293L225.08725542858602,159.1901993751526L225.33517079696657,159.1901993751526L225.4960838800645,159.1901993751526L225.52892481148243,159.1901993751526L225.67510062011718,159.1901993751526L225.78903396533252,156.66337081364222L226.14661859443905,161.71702793666293L226.50801845703603,161.71702793666293L226.70611136454104,161.71702793666293L226.9579167749119,161.71702793666293L227.0141727667713,159.1901993751526L227.03915880570887,159.1901993751526L227.28325894059896,156.66337081364222L227.3263486364913,156.66337081364222L227.36771773688793,156.66337081364222L227.5489039234352,156.66337081364222L228.06814972063782,154.13654225213187L228.74382009094953,156.66337081364222L229.84746988869188,166.77068505968367L229.89916256206274,166.77068505968367L229.93118059998272,166.77068505968367L230.00501658929826,166.77068505968367L230.3656683668971,164.2438564981733L230.60857156579019,166.77068505968367L230.81272396178008,166.77068505968367L230.87765773961783,164.2438564981733L231.2276867102432,166.77068505968367L231.22776151874305,164.2438564981733L231.3906196228361,159.1901993751526L231.6032253793049,161.71702793666293L232.19286597483156,161.71702793666293L232.44818738469363,159.1901993751526L232.83771524322032,161.71702793666293L232.87130425963642,161.71702793666293L233.0159838982749,161.71702793666293L233.4014720978117,161.71702793666293L233.4347618802285,161.71702793666293L233.48398587310552,164.2438564981733L233.91518206602814,166.77068505968367L233.948845890944,166.77068505968367L234.11379863303185,166.77068505968367L234.27964907711743,164.2438564981733L234.31249000853538,164.2438564981733L234.7506433919406,159.1901993751526L234.76336083690882,159.1901993751526L235.0796511741185,154.13654225213187L235.11488597753046,151.60971369062153L235.67916649162055,154.13654225213187L236.21539381828072,159.1901993751526L236.42852323424816,156.66337081364222L236.47565258913042,156.66337081364222L236.50826909504892,154.13654225213187L236.64651520270348,154.13654225213187L236.7369586789775,154.13654225213187L236.86405832015993,154.13654225213187L237.99037509334565,164.2438564981733L238.0834368671131,164.2438564981733L238.32604083200692,159.1901993751526L238.3950890773344,156.66337081364222L238.60702155730485,156.66337081364222L238.6811567806196,154.13654225213187L238.84461335271118,154.13654225213187L239.1178888025284,159.1901993751526L239.49933734307527,161.71702793666293L239.55058116544723,159.1901993751526L240.08478866261245,159.1901993751526L240.5421678304696,156.66337081364222L240.5495738719511,159.1901993751526L240.60829854430438,154.13654225213187L241.43051876574992,161.71702793666293L241.77052339740038,161.71702793666293L242.24121847822425,161.71702793666293L242.5501775824523,164.2438564981733L242.79794333383322,164.2438564981733L243.03792900123358,164.2438564981733L243.2034054028201,164.2438564981733L243.23602190873862,164.2438564981733L243.42962630625485,169.29751362119404L244.35949595893143,169.29751362119404L244.476945303638,166.77068505968367L244.73316441549778,169.29751362119404L244.76750151691198,169.29751362119404L244.7675763254118,169.29751362119404L244.98414693237066,169.29751362119404L245.71143516755342,169.29751362119404L245.82933336325885,169.29751362119404L246.62716601376533,166.77068505968367L246.7522458254528,164.2438564981733L247.12045326153276,166.77068505968367L247.29408378959894,164.2438564981733L247.46300138217688,161.71702793666293L247.95778479994058,161.71702793666293L248.1992666373372,159.1901993751526L248.2843987101245,159.1901993751526L248.48675570211887,161.71702793666293L248.74970757896185,161.71702793666293L248.7849423823738,159.1901993751526L248.99567792634727,164.2438564981733L249.2177843622923,164.2438564981733L249.29715618059396,161.71702793666293L249.35992051193713,161.71702793666293L249.51275427705525,159.1901993751526L249.69588548459768,159.1901993751526L249.77031994191168,156.66337081364222L250.025940585773,156.66337081364222L250.85661416769744,154.13654225213187L250.98453670237782,151.60971369062153L251.20881258481742,151.60971369062153L251.49218718210938,146.5560565676008L251.65212775470974,149.08288512911116L251.8618907881856,151.60971369062153L252.1456394279766,149.08288512911116L252.31814782854556,149.08288512911116L252.3898143713665,151.60971369062153L252.9709267979145,156.66337081364222L253.73090634751557,161.71702793666293L253.83593748125313,164.2438564981733L254.12252884403708,166.77068505968367L254.31052260406733,169.29751362119404L254.3468795349765,169.29751362119404L254.4784676861477,169.29751362119404L254.86320780068635,164.2438564981733L255.33098535001756,164.2438564981733L255.67136402416705,164.2438564981733L256.01959759079693,159.1901993751526L256.2975111676026,159.1901993751526L256.44802586922646,159.1901993751526L256.5885162318754,159.1901993751526L257.68917368962525,159.1901993751526L257.82988847777364,161.71702793666293L258.8113011868215,161.71702793666293L258.9424404869938,156.66337081364222L258.9763287374091,156.66337081364222L259.04619987623454,156.66337081364222L259.0462746847343,156.66337081364222L259.71423977956533,159.1901993751526L259.75942411345244,159.1901993751526L259.8296692947769,159.1901993751526L260.02260041579484,156.66337081364222L260.04721241223336,156.66337081364222L260.1779776699066,156.66337081364222L260.3205626705504,159.1901993751526L260.56039872095107,156.66337081364222L260.5894992273784,156.66337081364222L260.664083301692,159.1901993751526L260.8499076152277,156.66337081364222L261.2249226247907,154.13654225213187L261.33249724752187,154.13654225213187L261.36354277494434,154.13654225213187L262.3473493559861,159.1901993751526L262.65301688622236,161.71702793666293L262.72281321654793,164.2438564981733L262.92853659103395,164.2438564981733L263.1291729875326,166.77068505968367L263.1612658339524,166.77068505968367L263.251484884727,169.29751362119404L263.2522329697251,169.29751362119404L263.3321284475255,169.29751362119404L263.4185322648096,169.29751362119404L263.656124060216,166.77068505968367L263.80895782533406,161.71702793666293L263.993884436872,156.66337081364222L264.1392373520088,156.66337081364222L264.1740233044219,156.66337081364222L264.33493638751986,156.66337081364222L264.4701901551819,156.66337081364222L264.7112979500794,156.66337081364222L264.901984816103,154.13654225213187L264.9937000368738,149.08288512911116L265.11930350805994,146.5560565676008L265.339016072011,141.50239944458008L265.7685664779377,138.9755708830697L265.8445719137478,136.44874232155937L265.9169865415668,138.9755708830697L266.254298067224,146.5560565676008L266.28908401963713,149.08288512911116L266.4520917407298,149.08288512911116L266.63873894776344,146.5560565676008L266.7083856610894,146.5560565676008L267.1137729215765,149.08288512911116L267.15140159698245,146.5560565676008L267.1849158048987,146.5560565676008L267.22965128778696,146.5560565676008L268.03257091628075,156.66337081364222L268.0741644421768,154.13654225213187L268.4213506898093,154.13654225213187L268.63620070127246,159.1901993751526L268.896534280622,156.66337081364222L269.1701837729383,151.60971369062153L269.34680664099693,154.13654225213187L269.9665950619483,156.66337081364222L270.173216138432,154.13654225213187L270.36068623896364,156.66337081364222L270.60867641584395,156.66337081364222L271.5080242005968,159.1901993751526L271.88393691215754,164.2438564981733L271.98088872791527,164.2438564981733L272.0159739143276,164.2438564981733L272.0932510946345,161.71702793666293L272.25229396523713,154.13654225213187L272.4043048368573,154.13654225213187L272.51150541708944,156.66337081364222L272.70308998511075,156.66337081364222L272.7348835975313,154.13654225213187L272.90956144459483,151.60971369062153L273.61717504432676,146.5560565676008L273.68390422616005,146.5560565676008L274.07283361668823,149.08288512911116L274.0827831471634,149.08288512911116L274.16417479496005,146.5560565676008L274.302645328114,146.5560565676008L274.37476072193385,146.5560565676008L274.4767247071791,146.5560565676008L274.9433053205133,146.5560565676008L275.0463914332557,146.5560565676008L275.25735140272855,146.5560565676008L275.5726692294407,151.60971369062153" fill="none"></path></g></g></g></g></g></g><g transform="translate(30, 176)" clip-path="url(#clip_1)"><clipPath id="clip_1"><rect width="299" height="23"></rect></clipPath><g><g><line x1="0" y1="0" x2="0" y2="5" style="visibility: inherit;" fill="rgb(0, 0, 0)" stroke="rgb(204, 204, 204)" stroke-width="1px"></line><line x1="37.40424990653992" y1="0" x2="37.40424990653992" y2="5" style="visibility: inherit;" fill="rgb(0, 0, 0)" stroke="rgb(204, 204, 204)" stroke-width="1px"></line><line x1="74.80849981307983" y1="0" x2="74.80849981307983" y2="5" style="visibility: inherit;" fill="rgb(0, 0, 0)" stroke="rgb(204, 204, 204)" stroke-width="1px"></line><line x1="112.21274971961975" y1="0" x2="112.21274971961975" y2="5" style="visibility: inherit;" fill="rgb(0, 0, 0)" stroke="rgb(204, 204, 204)" stroke-width="1px"></line><line x1="149.61699962615967" y1="0" x2="149.61699962615967" y2="5" style="visibility: inherit;" fill="rgb(0, 0, 0)" stroke="rgb(204, 204, 204)" stroke-width="1px"></line><line x1="187.02124953269958" y1="0" x2="187.02124953269958" y2="5" style="visibility: inherit;" fill="rgb(0, 0, 0)" stroke="rgb(204, 204, 204)" stroke-width="1px"></line><line x1="224.4254994392395" y1="0" x2="224.4254994392395" y2="5" style="visibility: inherit;" fill="rgb(0, 0, 0)" stroke="rgb(204, 204, 204)" stroke-width="1px"></line><line x1="261.8297493457794" y1="0" x2="261.8297493457794" y2="5" style="visibility: inherit;" fill="rgb(0, 0, 0)" stroke="rgb(204, 204, 204)" stroke-width="1px"></line><line x1="299.23399925231934" y1="0" x2="299.23399925231934" y2="5" style="visibility: inherit;" fill="rgb(0, 0, 0)" stroke="rgb(204, 204, 204)" stroke-width="1px"></line></g><g transform="translate(0, 8)"><text style="text-anchor: middle; visibility: hidden; font-family: Roboto, sans-serif; font-size: 12px; font-weight: 200;" x="0" y="0" dx="0em" dy="0.95em" fill="rgb(33, 33, 33)" stroke="none" stroke-width="1px">-500k</text><text style="text-anchor: middle; visibility: inherit; font-family: Roboto, sans-serif; font-size: 12px; font-weight: 200;" x="37.40424990653992" y="0" dx="0em" dy="0.95em" fill="rgb(33, 33, 33)" stroke="none" stroke-width="1px">0</text><text style="text-anchor: middle; visibility: inherit; font-family: Roboto, sans-serif; font-size: 12px; font-weight: 200;" x="74.80849981307983" y="0" dx="0em" dy="0.95em" fill="rgb(33, 33, 33)" stroke="none" stroke-width="1px">500k</text><text style="text-anchor: middle; visibility: inherit; font-family: Roboto, sans-serif; font-size: 12px; font-weight: 200;" x="112.21274971961975" y="0" dx="0em" dy="0.95em" fill="rgb(33, 33, 33)" stroke="none" stroke-width="1px">1M</text><text style="text-anchor: middle; visibility: inherit; font-family: Roboto, sans-serif; font-size: 12px; font-weight: 200;" x="149.61699962615967" y="0" dx="0em" dy="0.95em" fill="rgb(33, 33, 33)" stroke="none" stroke-width="1px">1.5M</text><text style="text-anchor: middle; visibility: inherit; font-family: Roboto, sans-serif; font-size: 12px; font-weight: 200;" x="187.02124953269958" y="0" dx="0em" dy="0.95em" fill="rgb(33, 33, 33)" stroke="none" stroke-width="1px">2M</text><text style="text-anchor: middle; visibility: inherit; font-family: Roboto, sans-serif; font-size: 12px; font-weight: 200;" x="224.4254994392395" y="0" dx="0em" dy="0.95em" fill="rgb(33, 33, 33)" stroke="none" stroke-width="1px">2.5M</text><text style="text-anchor: middle; visibility: inherit; font-family: Roboto, sans-serif; font-size: 12px; font-weight: 200;" x="261.8297493457794" y="0" dx="0em" dy="0.95em" fill="rgb(33, 33, 33)" stroke="none" stroke-width="1px">3M</text><text style="text-anchor: middle; visibility: hidden; font-family: Roboto, sans-serif; font-size: 12px; font-weight: 200;" x="299.23399925231934" y="0" dx="0em" dy="0.95em" fill="rgb(33, 33, 33)" stroke="none" stroke-width="1px">3.5M</text></g><line x1="0" y1="0" x2="299.23399925231934" y2="0" fill="rgb(0, 0, 0)" stroke="rgb(204, 204, 204)" stroke-width="1px"></line></g></g></g></g></svg>